<svg xmlns="http://www.w3.org/2000/svg"  viewBox="0 0 48 48" width="480px" height="480px"><path fill="#d6e5e5" d="M20.678,3.608c-2.826,0.067-5.421,0.125-8.235,0.388C11.259,4.107,9.742,3.893,8.63,4.313	c-1.826,0.69-3.314,2.224-3.946,4.071c-0.471,1.374,0.022,3.002,0.018,4.454c-0.019,6.265-0.217,12.351-0.235,18.617	c-0.009,3.142-0.224,6.639,1.892,8.962c2.259,2.479,6.119,3.017,9.473,3.091c2.048,0.045,4.245-0.128,6.282-0.112	c4.191,0.032,8.213,0.194,12.424,0.006c1.137-0.051,2.44-0.411,3.529-0.741c1.009-0.306,1.751-0.886,2.525-1.602	c2.216-2.052,2.268-4.697,2.346-7.716c0.113-4.358,0.743-9.151,0.618-13.464c-0.086-2.961-0.002-5.986-0.088-8.947	c-0.038-1.315,0.061-2.659-0.61-3.79C41.825,5.4,39.653,4.738,37.656,4.4c-2.766-0.469-5.75-0.287-8.553-0.415	C26.264,3.854,23.517,3.54,20.678,3.608z"/><path fill="#bcbcbc" d="M19.899,35.869c-1.19,1.504-2.696,2.725-4.235,3.871c0.209-1.768,0.72-3.464,1.397-5.108	L19.899,35.869z"/><path fill="#febf10" d="M28.249,22.005c-0.691,1.429-1.625,2.688-2.412,4.067c-0.34,0.595-0.778,1.161-1.091,1.771	c-0.344,0.67-0.724,1.32-1.104,1.969c-0.586,1.002-5.435,2.206-3.415-1.34c0.436-0.765,0.872-1.53,1.307-2.295	c1.026-1.8,2.405-4.283,3.685-5.912H26.4L28.249,22.005z"/><path fill="#febf10" d="M33.133,6.921c0.688-0.463,1.621-0.171,2.359,0.209c0.432,0.222,0.907,0.568,0.884,1.053	c-0.01,0.208-0.115,0.399-0.217,0.581c-1.97,3.516-3.828,7.094-5.573,10.727c-0.524,1.091-1.059,2.217-1.951,3.036	c-0.353-0.727-0.797-1.44-1.46-1.901c-0.664-0.461-1.59-0.617-2.285-0.205c0.266-0.706,0.628-1.375,1.072-1.985L33.133,6.921z"/><path fill="#010101" d="M20.678,3.108c-2.668,0.064-5.335,0.135-7.995,0.366c-1.11,0.096-2.233-0.008-3.337,0.154	C8.328,3.777,7.387,4.28,6.585,4.91c-1.65,1.296-2.707,3.227-2.59,5.347c0.071,1.282,0.209,2.527,0.201,3.816	c-0.009,1.349-0.025,2.699-0.045,4.048c-0.078,5.273-0.28,10.557-0.189,15.83c0.035,2.017,0.237,4.168,1.348,5.911	c1.072,1.68,2.846,2.736,4.711,3.328c1.976,0.628,4.09,0.801,6.153,0.823c2.634,0.029,5.265-0.133,7.901-0.094	c2.749,0.04,5.499,0.105,8.249,0.052c2.325-0.044,4.932-0.132,7.012-1.32c1.778-1.016,3.129-2.719,3.649-4.698	c0.564-2.144,0.418-4.438,0.536-6.633c0.136-2.54,0.371-5.075,0.485-7.617c0.119-2.645,0.007-5.289,0.005-7.935	c-0.001-1.372,0.002-2.744-0.027-4.116c-0.023-1.131,0.033-2.304-0.192-3.418c-0.415-2.051-2.17-3.263-4.056-3.862	c-2.299-0.73-4.772-0.792-7.163-0.821c-2.65-0.032-5.277-0.186-7.922-0.344C23.328,3.128,22.004,3.081,20.678,3.108	c-0.643,0.013-0.645,1.013,0,1c2.531-0.051,5.05,0.189,7.575,0.332c2.41,0.137,4.827,0.043,7.235,0.21	c1.98,0.138,4.304,0.413,5.943,1.646c1.884,1.418,1.537,3.985,1.566,6.079c0.067,4.937,0.143,9.87-0.201,14.798	c-0.162,2.322-0.307,4.638-0.38,6.965c-0.059,1.895-0.173,3.897-1.267,5.518c-0.592,0.878-1.476,1.671-2.403,2.18	c-0.945,0.519-2.144,0.76-3.198,0.948c-1.212,0.216-2.484,0.178-3.712,0.195c-1.293,0.018-2.587,0.013-3.88-0.002	c-2.483-0.029-4.97-0.127-7.453-0.063c-2.263,0.058-4.524,0.189-6.783-0.024c-1.91-0.18-3.881-0.593-5.532-1.612	c-1.763-1.088-2.701-2.785-3.034-4.797C4.815,34.43,4.96,32.289,4.973,30.22c0.017-2.57,0.06-5.139,0.105-7.708	c0.044-2.526,0.09-5.052,0.112-7.578c0.011-1.241,0.025-2.464-0.106-3.699c-0.121-1.137-0.19-2.213,0.309-3.275	C6.229,6.181,7.98,4.695,9.987,4.559c1.137-0.077,2.274-0.056,3.412-0.146c1.205-0.096,2.413-0.158,3.621-0.203	c1.219-0.045,2.438-0.073,3.658-0.102C21.32,4.092,21.323,3.092,20.678,3.108z"/><path fill="#010101" d="M7.056,7.464c0.214,3.663-0.149,7.327-0.216,10.989C6.836,18.682,7,18.865,7.207,18.935	c0.529,0.179,1.171,0.112,1.717,0.083c0.703-0.037,1.404-0.106,2.107-0.156c0.891-0.063,1.787-0.018,2.679-0.002	c2.207,0.04,4.415,0.075,6.622,0.13c0.287,0.007,0.478-0.236,0.5-0.5c0.309-3.658,0.106-7.332-0.018-10.994	c-0.009-0.26-0.222-0.513-0.5-0.5c-2.488,0.12-4.991,0.018-7.479-0.041c-0.775-0.018-1.558-0.067-2.334-0.045	c-0.975,0.029-1.97,0.17-2.945,0.054c-0.638-0.076-0.632,0.925,0,1c0.968,0.115,1.959-0.021,2.928-0.053	c0.781-0.026,1.57,0.026,2.351,0.045c2.488,0.059,4.991,0.16,7.479,0.041c-0.167-0.167-0.333-0.333-0.5-0.5	c0.125,3.662,0.327,7.335,0.018,10.994c0.167-0.167,0.333-0.333,0.5-0.5c-2.165-0.054-4.331-0.088-6.496-0.127	c-0.869-0.016-1.748-0.067-2.617-0.013c-0.689,0.043-1.377,0.113-2.066,0.155c-0.519,0.032-1.175,0.136-1.68-0.034	c0.122,0.161,0.245,0.321,0.367,0.482c0.067-3.662,0.429-7.326,0.216-10.989C8.019,6.825,7.019,6.82,7.056,7.464z"/><path fill="#febf10" d="M12.912,10.547c0-0.295-0.669-1.406-0.741-1.388c-1.882,0.463-2.675,2.303-2.912,4.227	c-0.125,1.008,0.222,2.461,1.069,2.968c0.45,0.269,1.791,0.203,2.118-0.179c0.328-0.382,0.608-0.884,0.388-1.547	c-0.114-0.346-0.276-0.607-0.513-0.719c-0.441-0.209-0.971-0.973-0.971-1.355C11.35,11.842,12.259,10.721,12.912,10.547z"/><path fill="#febf10" d="M18.335,10.25c-0.125-0.268-0.621-0.728-0.746-0.996c-0.575,0.156-1.266,0.3-1.981,1.143	S14.589,12.3,14.5,13.678c-0.053,0.825,0.424,1.993,1.097,2.474c0.673,0.481,1.728,0.277,2.337-0.282	c0.439-0.403,0.489-1.013,0.289-1.663c-0.954-0.007-1.428-0.759-1.294-1.704C17.051,11.653,17.658,10.564,18.335,10.25z"/><path fill="#010101" d="M13.412,10.547c-0.038-0.531-0.389-1.091-0.693-1.515c-0.207-0.289-0.41-0.423-0.779-0.329	c-0.375,0.095-0.75,0.27-1.07,0.488c-1.346,0.916-1.901,2.545-2.098,4.094c-0.163,1.286,0.274,3.373,1.785,3.673	c0.625,0.124,1.457,0.1,2.015-0.246c0.706-0.438,0.986-1.458,0.745-2.217c-0.152-0.479-0.396-0.789-0.809-1.053	c-0.262-0.168-0.631-0.566-0.659-0.896c-0.021-0.252,0.228-0.622,0.383-0.829c0.201-0.269,0.482-0.585,0.814-0.687	c0.613-0.19,0.351-1.155-0.266-0.964c-0.621,0.192-1.11,0.701-1.467,1.225c-0.323,0.474-0.586,1.092-0.385,1.664	c0.11,0.314,0.296,0.597,0.509,0.851c0.211,0.252,0.47,0.375,0.71,0.578c0.422,0.358,0.303,1.27-0.135,1.5	c-0.35,0.184-1.05,0.206-1.382,0.064c-0.496-0.212-0.715-0.925-0.817-1.399c-0.259-1.2,0.128-2.677,0.794-3.69	c0.177-0.269,0.397-0.519,0.651-0.718c0.065-0.051,0.948-0.519,0.951-0.474c-0.058-0.021-0.115-0.041-0.173-0.062	c-0.166-0.091-0.216-0.103-0.151-0.037c-0.036-0.046-0.035-0.043,0.004,0.011c0.017,0.024,0.033,0.049,0.049,0.074	c0.07,0.11,0.138,0.221,0.202,0.335c0.074,0.131,0.149,0.266,0.209,0.404c0.024,0.054,0.075,0.281,0.066,0.155	C12.457,11.185,13.458,11.19,13.412,10.547z"/><path fill="#010101" d="M18.767,9.998c-0.196-0.37-0.551-0.628-0.746-0.996c-0.103-0.195-0.357-0.285-0.565-0.23	c-0.96,0.258-1.744,0.669-2.363,1.474c-0.636,0.827-0.917,1.823-1.04,2.845c-0.12,0.992,0.035,1.968,0.621,2.802	c0.604,0.859,1.563,1.23,2.586,0.913c0.528-0.164,1.062-0.489,1.341-0.981c0.305-0.536,0.268-1.177,0.103-1.75	c-0.063-0.218-0.26-0.36-0.482-0.367c-1.629-0.055-0.479-2.599,0.365-3.025c0.575-0.29,0.069-1.153-0.505-0.863	c-0.987,0.499-1.609,1.807-1.673,2.871c-0.067,1.116,0.696,1.98,1.812,2.017c-0.161-0.122-0.321-0.245-0.482-0.367	c0.129,0.446,0.172,0.924-0.233,1.239c-0.318,0.247-0.765,0.386-1.168,0.336c-0.831-0.103-1.276-1.211-1.337-1.936	c-0.077-0.908,0.183-1.998,0.646-2.78c0.242-0.409,0.566-0.786,0.97-1.042c0.342-0.216,0.717-0.317,1.103-0.421	c-0.188-0.077-0.376-0.153-0.565-0.23c0.196,0.37,0.551,0.628,0.746,0.996C18.205,11.072,19.068,10.567,18.767,9.998z"/><path fill="#bcbcbc" d="M25.925,17.79c1.857-3.568,3.886-7.047,6.076-10.42c0.093-0.144,0.203-0.299,0.37-0.339	c0.121-0.029,0.248,0.011,0.366,0.05c0.208,0.069,0.417,0.137,0.625,0.206c0.086,0.029,0.181,0.063,0.224,0.144	c0.049,0.091,0.013,0.202-0.025,0.297c-0.164,0.412-0.356,0.812-0.565,1.203c-0.21,0.394-0.437,0.779-0.667,1.162	c-0.741,1.234-1.511,2.451-2.282,3.667c-0.218,0.344-0.436,0.687-0.653,1.031c-0.733,1.157-1.466,2.314-2.199,3.47	c-0.074,0.117-0.156,0.24-0.284,0.292c-0.153,0.062-0.334,0-0.457-0.11c-0.123-0.11-0.2-0.261-0.275-0.409"/><path fill="#010101" d="M26.357,18.042c0.981-1.881,2.006-3.738,3.079-5.567c0.555-0.946,1.122-1.885,1.702-2.817	c0.27-0.435,0.544-0.868,0.819-1.299c0.104-0.163,0.308-0.651,0.475-0.738c0.279-0.145,0.432,0.139,0.692,0.113	c0.166,0.075,0.151,0.028-0.046-0.14c-0.055,0.136-0.113,0.271-0.175,0.404c-0.106,0.23-0.22,0.456-0.339,0.68	c-0.246,0.461-0.515,0.909-0.784,1.357c-0.568,0.941-1.152,1.871-1.739,2.8c-0.563,0.889-1.126,1.778-1.69,2.667	c-0.285,0.45-0.57,0.9-0.855,1.35c-0.163,0.257-0.326,0.514-0.489,0.771c-0.166,0.263-0.206,0.523-0.397,0.159	c-0.299-0.57-1.162-0.065-0.863,0.505c0.347,0.662,1.129,1.122,1.723,0.444c0.302-0.344,0.523-0.795,0.767-1.181	c0.305-0.482,0.611-0.964,0.916-1.446c1.172-1.849,2.359-3.689,3.49-5.563c0.506-0.839,1.105-1.734,1.4-2.679	c0.277-0.888-0.76-1.277-1.488-1.331c-0.89-0.065-1.366,1.172-1.755,1.788c-0.587,0.927-1.162,1.861-1.724,2.803	c-1.256,2.104-2.449,4.244-3.582,6.417C25.196,18.108,26.059,18.614,26.357,18.042L26.357,18.042z"/><path fill="#010101" d="M33.385,7.353c0.629-0.362,1.421-0.055,1.999,0.288c0.461,0.274,0.546,0.489,0.284,0.977	c-0.191,0.355-0.392,0.704-0.587,1.057c-0.798,1.447-1.576,2.905-2.336,4.372c-0.741,1.431-1.465,2.872-2.17,4.322	c-0.646,1.328-1.208,2.766-2.294,3.805c0.262,0.034,0.524,0.067,0.785,0.101c-0.814-1.638-2.479-3.296-4.43-2.286	c0.245,0.188,0.49,0.376,0.734,0.565c0.261-0.666,0.608-1.283,1.021-1.866c0.373-0.526-0.494-1.026-0.863-0.505	c-0.466,0.657-0.829,1.355-1.122,2.104c-0.171,0.437,0.384,0.746,0.734,0.565c1.411-0.731,2.525,0.848,3.061,1.927	c0.147,0.297,0.567,0.311,0.785,0.101c1.319-1.263,1.979-3.052,2.769-4.659c0.924-1.881,1.878-3.747,2.863-5.597	c0.492-0.925,0.992-1.846,1.5-2.763c0.365-0.659,1.006-1.449,0.635-2.234c-0.302-0.637-1.04-0.989-1.667-1.221	c-0.739-0.273-1.51-0.319-2.207,0.082C32.323,6.811,32.826,7.675,33.385,7.353L33.385,7.353z"/><path fill="#010101" d="M24.865,19.913c-2.206,2.843-3.859,6.152-5.622,9.278c-1.865,3.308-3.6,6.735-4.079,10.549	c-0.045,0.361,0.465,0.646,0.752,0.432c1.45-1.084,2.882-2.219,4.056-3.607c1.203-1.423,2.095-3.074,3.032-4.675	c0.944-1.612,1.804-3.296,2.823-4.86c1.001-1.538,2.039-3.126,2.853-4.772c0.284-0.575-0.578-1.082-0.863-0.505	c-0.784,1.587-1.783,3.108-2.738,4.597c-0.959,1.493-1.788,3.074-2.686,4.606c-0.937,1.6-1.809,3.29-2.986,4.732	c-1.142,1.399-2.555,2.544-3.995,3.62c0.251,0.144,0.502,0.288,0.752,0.432c0.464-3.698,2.243-7.042,4.053-10.239	c1.686-2.979,3.251-6.169,5.355-8.881C25.962,20.118,25.26,19.405,24.865,19.913L24.865,19.913z"/><path fill="#010101" d="M20.78,28.356c0.143,0,0.286-0.013,0.429-0.011c0.058,0.001,0.116,0.007,0.174,0.01	c-0.104-0.005-0.007-0.001,0.018,0.004c0.029,0.005,0.057,0.011,0.085,0.017c0.064,0.015,0.127,0.032,0.189,0.052	c0.028,0.009,0.055,0.019,0.083,0.029c0.129,0.045-0.048-0.027,0.022,0.008c0.119,0.058,0.235,0.118,0.345,0.191	c0.024,0.016,0.048,0.033,0.072,0.05c0.008,0.006,0.079,0.061,0.037,0.027c-0.048-0.04,0.042,0.037,0.051,0.044	c0.022,0.019,0.044,0.039,0.065,0.058c0.096,0.089,0.186,0.185,0.27,0.286c0.019,0.022,0.037,0.045,0.055,0.068	c-0.044-0.056-0.009-0.01,0.014,0.021c0.034,0.048,0.067,0.096,0.099,0.145c0.075,0.117,0.143,0.238,0.207,0.361	c0.12,0.233,0.466,0.32,0.684,0.179c0.238-0.153,0.307-0.435,0.179-0.684c-0.289-0.564-0.697-1.067-1.228-1.42	c-0.258-0.172-0.556-0.304-0.857-0.376c-0.334-0.08-0.656-0.06-0.994-0.061c-0.262,0-0.512,0.23-0.5,0.5	C20.292,28.127,20.499,28.356,20.78,28.356L20.78,28.356z"/><path fill="#010101" d="M17.195,35.656c0.014-0.003,0.063-0.005,0.073-0.014c-0.066,0.008-0.079,0.011-0.041,0.008	c0.012-0.001,0.025-0.002,0.037-0.002c0.025-0.001,0.049-0.001,0.074,0c0.019,0.001,0.091,0.017,0.026-0.001	c-0.076-0.021,0.027,0.005,0.044,0.009c0.024,0.005,0.049,0.011,0.073,0.017c0.054,0.014,0.106,0.034,0.159,0.052	c0.065,0.022-0.078-0.039-0.017-0.007c0.027,0.014,0.056,0.027,0.083,0.041c0.044,0.023,0.087,0.047,0.13,0.072	c0.096,0.057,0.188,0.12,0.279,0.185c0.038,0.027,0.075,0.054,0.112,0.081c0.014,0.01,0.09,0.068,0.027,0.02	c-0.059-0.045,0.002,0.002,0.013,0.011c0.072,0.058,0.141,0.119,0.206,0.184c0.034,0.034,0.064,0.072,0.097,0.107	c0.044,0.046-0.054-0.079-0.02-0.026c0.014,0.022,0.03,0.043,0.044,0.065c0.019,0.031,0.035,0.085,0.06,0.11	c-0.026-0.025-0.037-0.098-0.009-0.018c0.009,0.025,0.016,0.05,0.022,0.076c0.067,0.253,0.36,0.432,0.615,0.349	c0.26-0.084,0.421-0.344,0.349-0.615c-0.144-0.542-0.577-0.897-1.013-1.208c-0.498-0.355-1.07-0.598-1.69-0.461	c-0.256,0.056-0.429,0.367-0.349,0.615C16.667,35.576,16.921,35.716,17.195,35.656L17.195,35.656z"/><path fill="#010101" d="M23.427,29.465c-0.217-0.43-0.51-0.827-0.888-1.125c-0.379-0.297-0.848-0.49-1.33-0.495	c-0.143-0.002-0.286,0.013-0.429,0.011l-2.094,3.384l-1.624,3.934c0.241-0.058,0.498-0.016,0.728,0.076	c0.23,0.092,0.437,0.233,0.638,0.378c0.311,0.225,0.631,0.493,0.723,0.866l2.504-3.152L23.427,29.465z"/><path fill="#010101" d="M22.484,10.002c0.829,0.026,1.656,0.089,2.485,0.093c1.173,0.006,2.357-0.043,3.529-0.093	c0.641-0.027,0.645-1.028,0-1c-1.172,0.05-2.356,0.1-3.529,0.093c-0.829-0.004-1.657-0.067-2.485-0.093	C21.84,8.981,21.841,9.981,22.484,10.002L22.484,10.002z"/><path fill="#010101" d="M37.537,9.94c0.787,0.121,1.572,0.163,2.367,0.144c0.664-0.016,1.327-0.044,1.989,0.025	c0.269,0.028,0.5-0.25,0.5-0.5c0-0.294-0.23-0.472-0.5-0.5c-1.363-0.142-2.729,0.076-4.091-0.133	c-0.267-0.041-0.538,0.068-0.615,0.349C37.122,9.561,37.268,9.898,37.537,9.94L37.537,9.94z"/><path fill="#010101" d="M22.351,14.06c0.556,0.132,1.182,0.089,1.745,0.03c0.297-0.031,0.59-0.068,0.889-0.057	c0.314,0.012,0.626,0.041,0.94,0.044c0.27,0.003,0.5-0.232,0.5-0.5c0-0.273-0.229-0.497-0.5-0.5	c-0.301-0.003-0.601-0.029-0.901-0.043c-0.301-0.014-0.596,0.018-0.895,0.051c-0.269,0.03-0.541,0.043-0.812,0.046	c-0.146,0.002-0.292,0.001-0.438-0.007c-0.067-0.004-0.134-0.013-0.201-0.016c0.122,0.006-0.011-0.003-0.061-0.015	c-0.263-0.062-0.542,0.082-0.615,0.349C21.932,13.699,22.087,13.998,22.351,14.06L22.351,14.06z"/><path fill="#010101" d="M36.301,13.961c1.748,0.009,3.493-0.044,5.241,0.011c0.644,0.02,0.643-0.98,0-1	c-1.748-0.056-3.493-0.002-5.241-0.011C35.658,12.957,35.657,13.957,36.301,13.961L36.301,13.961z"/><path fill="#010101" d="M34.378,17.986c0.957,0,1.915-0.096,2.871-0.08c0.699,0.011,1.384,0.172,2.085,0.118	c0.741-0.056,1.468-0.088,2.209-0.009c0.271,0.029,0.497-0.251,0.5-0.5c0.003-0.294-0.233-0.471-0.5-0.5	c-0.717-0.076-1.424-0.052-2.141,0.004c-0.726,0.056-1.429-0.101-2.152-0.113c-0.957-0.016-1.914,0.08-2.871,0.08	C33.734,16.987,33.733,17.987,34.378,17.986L34.378,17.986z"/><path fill="#010101" d="M22.945,18.004c-0.196,0-0.396-0.002-0.601-0.009c-0.276-0.008-0.492-0.239-0.483-0.516	c0.008-0.276,0.225-0.503,0.516-0.483c0.391,0.012,0.761,0.008,1.132,0.004l0.582-0.004c0.276,0,0.5,0.224,0.5,0.5	s-0.224,0.5-0.5,0.5L23.519,18C23.328,18.002,23.138,18.004,22.945,18.004z"/><path fill="#010101" d="M41.613,21.012c-0.85-0.046-1.696,0.001-2.546,0.002c-0.807,0.001-1.615-0.018-2.422-0.013	c-1.397,0.009-2.793,0.033-4.191,0.013c-0.644-0.01-0.644,0.99,0,1c1.397,0.021,2.793-0.003,4.191-0.013	c0.807-0.005,1.615,0.014,2.422,0.013c0.85-0.001,1.696-0.049,2.546-0.002C42.256,22.047,42.254,21.047,41.613,21.012L41.613,21.012	z"/><path fill="#010101" d="M21.495,21.034c-1.113-0.078-2.199-0.137-3.312-0.05c-1.269,0.099-2.532,0.064-3.804,0.042	c-1.466-0.025-2.94,0.009-4.404-0.038c-0.71-0.023-1.417-0.109-2.128-0.057c-0.54,0.039-1.301,0.044-1.733,0.385	c-0.128,0.101-0.182,0.336-0.129,0.486c0.005,0.014,0.01,0.027,0.014,0.041c0.213,0.603,1.179,0.343,0.964-0.266	c-0.005-0.014-0.01-0.027-0.014-0.041c-0.043,0.162-0.086,0.324-0.129,0.486c-0.008,0.006,0.337-0.007,0.38-0.014	c0.162-0.025,0.323-0.049,0.486-0.065c0.267-0.026,0.535-0.035,0.802-0.031c0.731,0.011,1.458,0.086,2.19,0.08	c1.378-0.011,2.76,0.057,4.137,0.033c1.188-0.021,2.346,0.032,3.535-0.056c1.055-0.078,2.089-0.011,3.143,0.063	C22.138,22.079,22.135,21.079,21.495,21.034L21.495,21.034z"/><path fill="#010101" d="M41.542,25.126c-1.465-0.131-2.95-0.122-4.42-0.21c-0.749-0.045-1.47,0.016-2.215,0.064	c-2.077,0.135-4.191-0.308-6.256,0.028c-0.634,0.103-0.365,1.067,0.266,0.964c2-0.325,4.079,0.148,6.093,0.001	c0.71-0.052,1.399-0.099,2.113-0.057c1.47,0.088,2.955,0.079,4.42,0.21C42.183,26.183,42.179,25.183,41.542,25.126L41.542,25.126z"/><path fill="#010101" d="M19.484,25.043c-4.338-0.083-8.683-0.247-13.023-0.101c-0.642,0.022-0.645,1.022,0,1	c4.34-0.147,8.685,0.018,13.023,0.101C20.127,26.055,20.127,25.055,19.484,25.043L19.484,25.043z"/><path fill="#010101" d="M6.461,30.023c0.855,0.079,1.656-0.138,2.504-0.181c0.931-0.047,1.876,0.028,2.807,0.051	c1.912,0.047,3.824,0.028,5.735,0.071c0.644,0.015,0.644-0.985,0-1c-1.912-0.043-3.823-0.024-5.735-0.071	c-0.931-0.023-1.876-0.098-2.807-0.051c-0.846,0.043-1.651,0.259-2.504,0.181C5.821,28.964,5.825,29.964,6.461,30.023L6.461,30.023z"/><path fill="#010101" d="M26.472,29.965c1.225,0.017,2.447-0.074,3.671-0.065c1.16,0.008,2.319,0.11,3.479,0.137	c1.287,0.029,2.547-0.061,3.827-0.167c1.367-0.113,2.728,0.04,4.093,0.109c0.643,0.032,0.642-0.968,0-1	c-1.366-0.068-2.726-0.222-4.093-0.109c-1.28,0.106-2.54,0.196-3.827,0.167c-1.16-0.026-2.319-0.129-3.479-0.137	c-1.224-0.008-2.446,0.083-3.671,0.065C25.828,28.956,25.828,29.956,26.472,29.965L26.472,29.965z"/><path fill="#010101" d="M40.589,32.949c-5.373-0.309-10.738,0.305-16.112,0c-0.643-0.036-0.641,0.964,0,1	c5.374,0.305,10.739-0.309,16.112,0C41.232,33.986,41.23,32.986,40.589,32.949L40.589,32.949z"/><path fill="#010101" d="M15.665,32.984c-1.614-0.07-3.229-0.134-4.843-0.202c-1.549-0.065-3.067-0.036-4.6,0.22	c-0.633,0.106-0.365,1.07,0.266,0.964c1.499-0.251,2.992-0.242,4.505-0.177c1.557,0.067,3.115,0.127,4.672,0.195	C16.308,34.012,16.307,33.012,15.665,32.984L15.665,32.984z"/><path fill="#010101" d="M7.095,37.954c2.378,0.29,4.76,0.004,7.144,0c0.643-0.001,0.645-1.001,0-1	c-2.384,0.004-4.766,0.29-7.144,0c-0.27-0.033-0.497,0.253-0.5,0.5C6.592,37.752,6.828,37.922,7.095,37.954L7.095,37.954z"/><path fill="#010101" d="M21.443,38.006c6.361-0.262,12.721,0.5,19.076-0.033c0.637-0.053,0.642-1.054,0-1	c-6.355,0.532-12.715-0.229-19.076,0.033C20.801,37.032,20.798,38.032,21.443,38.006L21.443,38.006z"/></svg>