<svg xmlns="http://www.w3.org/2000/svg" width="375" viewBox="0 0 375 165" height="165" version="1.0"><g fill-opacity=".4"><g><g><path d="M 30.78125 -40.1875 L 30.78125 -26.765625 C 32.78125 -28.523438 34.6875 -30.429688 36.5 -32.484375 C 38.3125 -34.535156 39.863281 -36.53125 41.15625 -38.46875 L 46.859375 -35.15625 C 45.398438 -32.914062 43.28125 -30.84375 40.5 -28.9375 C 37.71875 -27.039062 34.476562 -25.332031 30.78125 -23.8125 L 30.78125 -22.4375 L 47.765625 -22.4375 C 47.765625 -21.414062 47.546875 -20.566406 47.109375 -19.890625 C 46.671875 -19.210938 46.046875 -18.875 45.234375 -18.875 L 36.484375 -18.875 C 37.191406 -17.175781 37.914062 -15.613281 38.65625 -14.1875 C 39.40625 -12.769531 40.265625 -11.398438 41.234375 -10.078125 C 42.203125 -8.753906 43.320312 -7.457031 44.59375 -6.1875 C 45.863281 -4.914062 47.398438 -3.617188 49.203125 -2.296875 L 42.890625 3.453125 C 40.785156 1.117188 39.070312 -1.625 37.75 -4.78125 C 36.457031 -2.882812 34.65625 -1.097656 32.34375 0.578125 C 30.039062 2.265625 27.535156 3.679688 24.828125 4.828125 L 22.1875 -1.875 C 22.550781 -1.914062 22.9375 -1.953125 23.34375 -1.984375 C 23.757812 -2.015625 24.1875 -2.066406 24.625 -2.140625 L 24.625 -18.875 L 19.4375 -18.875 L 19.4375 -22.4375 L 24.625 -22.4375 L 24.625 -40.1875 Z M 2.953125 -38.515625 L 19.640625 -38.515625 L 19.640625 -28.4375 C 19.640625 -27.082031 19.28125 -26.015625 18.5625 -25.234375 C 17.851562 -24.453125 16.890625 -24.0625 15.671875 -24.0625 L 10.171875 -24.0625 L 9.515625 -16.78125 L 19.234375 -16.78125 L 19.234375 -1.625 C 19.234375 0.300781 18.550781 1.816406 17.1875 2.921875 C 15.832031 4.023438 13.664062 4.578125 10.6875 4.578125 L 9 4.578125 C 10.09375 3.796875 11.035156 2.835938 11.828125 1.703125 C 12.628906 0.566406 13.03125 -0.539062 13.03125 -1.625 L 13.03125 -13.28125 L 3.71875 -13.28125 L 4.984375 -27.671875 L 13.9375 -27.671875 L 13.9375 -35.046875 L 2.953125 -35.046875 Z M 30.78125 -3.203125 C 31.96875 -3.441406 33.144531 -3.695312 34.3125 -3.96875 C 35.488281 -4.238281 36.632812 -4.507812 37.75 -4.78125 C 35.988281 -9.019531 34.953125 -13.71875 34.640625 -18.875 L 30.78125 -18.875 Z M 30.78125 -3.203125" transform="translate(201.452 103.236)"/></g></g></g><g fill-opacity=".4"><g><g><path d="M 43.390625 -29.765625 C 43.390625 -28.742188 43.175781 -27.910156 42.75 -27.265625 C 42.332031 -26.617188 41.71875 -26.296875 40.90625 -26.296875 L 24.828125 -26.296875 C 24.554688 -25.753906 24.289062 -25.21875 24.03125 -24.6875 C 23.78125 -24.164062 23.503906 -23.648438 23.203125 -23.140625 L 47.671875 -23.140625 C 47.671875 -22.128906 47.457031 -21.300781 47.03125 -20.65625 C 46.601562 -20.007812 45.984375 -19.6875 45.171875 -19.6875 L 34.546875 -19.6875 C 36.546875 -18.226562 38.773438 -17.03125 41.234375 -16.09375 C 43.691406 -15.164062 46.191406 -14.429688 48.734375 -13.890625 L 44.203125 -7.78125 C 42.710938 -8.394531 41.347656 -9.070312 40.109375 -9.8125 C 38.878906 -10.5625 37.738281 -11.398438 36.6875 -12.328125 C 35.632812 -13.265625 34.648438 -14.332031 33.734375 -15.53125 C 32.816406 -16.738281 31.953125 -18.125 31.140625 -19.6875 L 20.859375 -19.6875 C 19.097656 -17.382812 16.976562 -15.300781 14.5 -13.4375 C 15.613281 -13.257812 16.707031 -12.992188 17.78125 -12.640625 C 18.851562 -12.285156 19.726562 -11.851562 20.40625 -11.34375 L 18.828125 -7.078125 L 22.28125 -8.1875 L 22.28125 -18.5625 L 28.4375 -18.5625 L 28.4375 -8.34375 C 29.519531 -9.457031 30.453125 -10.53125 31.234375 -11.5625 C 32.015625 -12.601562 32.757812 -13.800781 33.46875 -15.15625 L 37.390625 -11.09375 C 36.410156 -10.238281 35.164062 -9.523438 33.65625 -8.953125 C 32.144531 -8.378906 30.40625 -8.054688 28.4375 -7.984375 L 28.4375 -7.6875 C 29.863281 -7.613281 31.3125 -7.457031 32.78125 -7.21875 C 34.257812 -6.988281 35.710938 -6.664062 37.140625 -6.25 C 38.566406 -5.84375 39.921875 -5.375 41.203125 -4.84375 C 42.492188 -4.320312 43.648438 -3.742188 44.671875 -3.109375 L 41.8125 3.65625 C 39.613281 1.726562 37.421875 -0.015625 35.234375 -1.578125 C 33.046875 -3.140625 30.78125 -4.613281 28.4375 -6 L 28.4375 -2.5 C 28.4375 0.144531 27.722656 2.023438 26.296875 3.140625 C 24.878906 4.265625 22.828125 4.796875 20.140625 4.734375 L 17.8125 4.734375 C 19.09375 3.847656 20.15625 2.835938 21 1.703125 C 21.851562 0.566406 22.28125 -0.675781 22.28125 -2.03125 L 22.28125 -6.046875 C 20.445312 -4.285156 18.332031 -2.769531 15.9375 -1.5 C 13.550781 -0.226562 11.019531 0.863281 8.34375 1.78125 L 5.703125 -3.609375 C 7.117188 -3.878906 8.882812 -4.285156 11 -4.828125 C 13.125 -5.367188 15.257812 -5.960938 17.40625 -6.609375 C 16.6875 -7.492188 15.851562 -8.394531 14.90625 -9.3125 C 13.957031 -10.226562 13.039062 -11.078125 12.15625 -11.859375 C 9.132812 -9.953125 5.554688 -8.457031 1.421875 -7.375 C 3.960938 -9.445312 6.234375 -11.484375 8.234375 -13.484375 C 10.242188 -15.484375 12.023438 -17.550781 13.578125 -19.6875 L 3.3125 -19.6875 L 3.3125 -23.140625 L 15.828125 -23.140625 C 16.398438 -24.097656 16.957031 -25.148438 17.5 -26.296875 L 6.671875 -26.296875 L 6.671875 -29.765625 L 18.96875 -29.765625 C 19.175781 -30.273438 19.363281 -30.78125 19.53125 -31.28125 C 19.707031 -31.789062 19.878906 -32.316406 20.046875 -32.859375 L 5.140625 -32.859375 L 5.140625 -36.328125 L 20.90625 -36.328125 C 21.21875 -37.679688 21.472656 -39.101562 21.671875 -40.59375 L 28.59375 -39.484375 C 28.519531 -38.941406 28.441406 -38.40625 28.359375 -37.875 C 28.273438 -37.351562 28.179688 -36.835938 28.078125 -36.328125 L 45.890625 -36.328125 C 45.890625 -35.304688 45.675781 -34.472656 45.25 -33.828125 C 44.832031 -33.179688 44.210938 -32.859375 43.390625 -32.859375 L 27.21875 -32.859375 L 27.0625 -32.25 C 26.925781 -31.8125 26.796875 -31.390625 26.671875 -30.984375 C 26.554688 -30.578125 26.414062 -30.171875 26.25 -29.765625 Z M 43.390625 -29.765625" transform="translate(249.766 103.236)"/></g></g></g><g fill="#FF2768"><g><g><path d="M 30.78125 -40.1875 L 30.78125 -26.765625 C 32.78125 -28.523438 34.6875 -30.429688 36.5 -32.484375 C 38.3125 -34.535156 39.863281 -36.53125 41.15625 -38.46875 L 46.859375 -35.15625 C 45.398438 -32.914062 43.28125 -30.84375 40.5 -28.9375 C 37.71875 -27.039062 34.476562 -25.332031 30.78125 -23.8125 L 30.78125 -22.4375 L 47.765625 -22.4375 C 47.765625 -21.414062 47.546875 -20.566406 47.109375 -19.890625 C 46.671875 -19.210938 46.046875 -18.875 45.234375 -18.875 L 36.484375 -18.875 C 37.191406 -17.175781 37.914062 -15.613281 38.65625 -14.1875 C 39.40625 -12.769531 40.265625 -11.398438 41.234375 -10.078125 C 42.203125 -8.753906 43.320312 -7.457031 44.59375 -6.1875 C 45.863281 -4.914062 47.398438 -3.617188 49.203125 -2.296875 L 42.890625 3.453125 C 40.785156 1.117188 39.070312 -1.625 37.75 -4.78125 C 36.457031 -2.882812 34.65625 -1.097656 32.34375 0.578125 C 30.039062 2.265625 27.535156 3.679688 24.828125 4.828125 L 22.1875 -1.875 C 22.550781 -1.914062 22.9375 -1.953125 23.34375 -1.984375 C 23.757812 -2.015625 24.1875 -2.066406 24.625 -2.140625 L 24.625 -18.875 L 19.4375 -18.875 L 19.4375 -22.4375 L 24.625 -22.4375 L 24.625 -40.1875 Z M 2.953125 -38.515625 L 19.640625 -38.515625 L 19.640625 -28.4375 C 19.640625 -27.082031 19.28125 -26.015625 18.5625 -25.234375 C 17.851562 -24.453125 16.890625 -24.0625 15.671875 -24.0625 L 10.171875 -24.0625 L 9.515625 -16.78125 L 19.234375 -16.78125 L 19.234375 -1.625 C 19.234375 0.300781 18.550781 1.816406 17.1875 2.921875 C 15.832031 4.023438 13.664062 4.578125 10.6875 4.578125 L 9 4.578125 C 10.09375 3.796875 11.035156 2.835938 11.828125 1.703125 C 12.628906 0.566406 13.03125 -0.539062 13.03125 -1.625 L 13.03125 -13.28125 L 3.71875 -13.28125 L 4.984375 -27.671875 L 13.9375 -27.671875 L 13.9375 -35.046875 L 2.953125 -35.046875 Z M 30.78125 -3.203125 C 31.96875 -3.441406 33.144531 -3.695312 34.3125 -3.96875 C 35.488281 -4.238281 36.632812 -4.507812 37.75 -4.78125 C 35.988281 -9.019531 34.953125 -13.71875 34.640625 -18.875 L 30.78125 -18.875 Z M 30.78125 -3.203125" transform="translate(199.203 100.987)"/></g></g></g><g fill="#FF2768"><g><g><path d="M 43.390625 -29.765625 C 43.390625 -28.742188 43.175781 -27.910156 42.75 -27.265625 C 42.332031 -26.617188 41.71875 -26.296875 40.90625 -26.296875 L 24.828125 -26.296875 C 24.554688 -25.753906 24.289062 -25.21875 24.03125 -24.6875 C 23.78125 -24.164062 23.503906 -23.648438 23.203125 -23.140625 L 47.671875 -23.140625 C 47.671875 -22.128906 47.457031 -21.300781 47.03125 -20.65625 C 46.601562 -20.007812 45.984375 -19.6875 45.171875 -19.6875 L 34.546875 -19.6875 C 36.546875 -18.226562 38.773438 -17.03125 41.234375 -16.09375 C 43.691406 -15.164062 46.191406 -14.429688 48.734375 -13.890625 L 44.203125 -7.78125 C 42.710938 -8.394531 41.347656 -9.070312 40.109375 -9.8125 C 38.878906 -10.5625 37.738281 -11.398438 36.6875 -12.328125 C 35.632812 -13.265625 34.648438 -14.332031 33.734375 -15.53125 C 32.816406 -16.738281 31.953125 -18.125 31.140625 -19.6875 L 20.859375 -19.6875 C 19.097656 -17.382812 16.976562 -15.300781 14.5 -13.4375 C 15.613281 -13.257812 16.707031 -12.992188 17.78125 -12.640625 C 18.851562 -12.285156 19.726562 -11.851562 20.40625 -11.34375 L 18.828125 -7.078125 L 22.28125 -8.1875 L 22.28125 -18.5625 L 28.4375 -18.5625 L 28.4375 -8.34375 C 29.519531 -9.457031 30.453125 -10.53125 31.234375 -11.5625 C 32.015625 -12.601562 32.757812 -13.800781 33.46875 -15.15625 L 37.390625 -11.09375 C 36.410156 -10.238281 35.164062 -9.523438 33.65625 -8.953125 C 32.144531 -8.378906 30.40625 -8.054688 28.4375 -7.984375 L 28.4375 -7.6875 C 29.863281 -7.613281 31.3125 -7.457031 32.78125 -7.21875 C 34.257812 -6.988281 35.710938 -6.664062 37.140625 -6.25 C 38.566406 -5.84375 39.921875 -5.375 41.203125 -4.84375 C 42.492188 -4.320312 43.648438 -3.742188 44.671875 -3.109375 L 41.8125 3.65625 C 39.613281 1.726562 37.421875 -0.015625 35.234375 -1.578125 C 33.046875 -3.140625 30.78125 -4.613281 28.4375 -6 L 28.4375 -2.5 C 28.4375 0.144531 27.722656 2.023438 26.296875 3.140625 C 24.878906 4.265625 22.828125 4.796875 20.140625 4.734375 L 17.8125 4.734375 C 19.09375 3.847656 20.15625 2.835938 21 1.703125 C 21.851562 0.566406 22.28125 -0.675781 22.28125 -2.03125 L 22.28125 -6.046875 C 20.445312 -4.285156 18.332031 -2.769531 15.9375 -1.5 C 13.550781 -0.226562 11.019531 0.863281 8.34375 1.78125 L 5.703125 -3.609375 C 7.117188 -3.878906 8.882812 -4.285156 11 -4.828125 C 13.125 -5.367188 15.257812 -5.960938 17.40625 -6.609375 C 16.6875 -7.492188 15.851562 -8.394531 14.90625 -9.3125 C 13.957031 -10.226562 13.039062 -11.078125 12.15625 -11.859375 C 9.132812 -9.953125 5.554688 -8.457031 1.421875 -7.375 C 3.960938 -9.445312 6.234375 -11.484375 8.234375 -13.484375 C 10.242188 -15.484375 12.023438 -17.550781 13.578125 -19.6875 L 3.3125 -19.6875 L 3.3125 -23.140625 L 15.828125 -23.140625 C 16.398438 -24.097656 16.957031 -25.148438 17.5 -26.296875 L 6.671875 -26.296875 L 6.671875 -29.765625 L 18.96875 -29.765625 C 19.175781 -30.273438 19.363281 -30.78125 19.53125 -31.28125 C 19.707031 -31.789062 19.878906 -32.316406 20.046875 -32.859375 L 5.140625 -32.859375 L 5.140625 -36.328125 L 20.90625 -36.328125 C 21.21875 -37.679688 21.472656 -39.101562 21.671875 -40.59375 L 28.59375 -39.484375 C 28.519531 -38.941406 28.441406 -38.40625 28.359375 -37.875 C 28.273438 -37.351562 28.179688 -36.835938 28.078125 -36.328125 L 45.890625 -36.328125 C 45.890625 -35.304688 45.675781 -34.472656 45.25 -33.828125 C 44.832031 -33.179688 44.210938 -32.859375 43.390625 -32.859375 L 27.21875 -32.859375 L 27.0625 -32.25 C 26.925781 -31.8125 26.796875 -31.390625 26.671875 -30.984375 C 26.554688 -30.578125 26.414062 -30.171875 26.25 -29.765625 Z M 43.390625 -29.765625" transform="translate(247.518 100.987)"/></g></g></g><path d="M 188.878906 92.007812 L 188.878906 64.367188 L 186.054688 64.367188 L 186.054688 103.867188 L 188.878906 103.867188 L 188.878906 92.007812"/><g fill="#FF2768"><g><g><path d="M 4.53125 -1.9375 L 16.550781 -20.277344 L 1.371094 -20.277344 L 1.371094 -18.339844 L 12.761719 -18.339844 L 0.746094 0 L 16.042969 0 L 16.042969 -1.9375 Z M 4.53125 -1.9375" transform="translate(44.344 94.451)"/></g></g></g><g fill="#FF2768"><g><g><path d="M 4.324219 0 L 4.324219 -5.488281 C 4.324219 -7.304688 4.621094 -8.675781 5.25 -9.632812 C 5.605469 -10.167969 6.054688 -10.554688 6.621094 -10.855469 C 7.15625 -11.152344 7.902344 -11.300781 8.796875 -11.300781 C 9.691406 -11.300781 10.316406 -10.972656 10.707031 -10.378906 C 11.09375 -9.78125 11.300781 -9.035156 11.300781 -8.199219 L 11.300781 0 L 13.390625 0 L 13.390625 -8.199219 C 13.390625 -9.722656 12.972656 -10.945312 12.195312 -11.867188 C 11.777344 -12.34375 11.300781 -12.703125 10.734375 -12.972656 C 10.136719 -13.238281 9.394531 -13.390625 8.46875 -13.390625 C 7.515625 -13.390625 6.710938 -13.121094 5.992188 -12.644531 C 5.308594 -12.195312 4.742188 -11.601562 4.324219 -10.855469 L 4.324219 -22.363281 L 2.238281 -22.363281 L 2.238281 0 Z M 4.324219 0" transform="translate(61.64 94.451)"/></g></g></g><g fill="#FF2768"><g><g><path d="M 12.671875 -6.558594 C 12.671875 -5.277344 12.226562 -4.144531 11.332031 -3.21875 C 10.4375 -2.265625 9.332031 -1.789062 8.050781 -1.789062 C 6.738281 -1.789062 5.636719 -2.265625 4.742188 -3.21875 C 3.847656 -4.144531 3.429688 -5.277344 3.429688 -6.558594 C 3.429688 -7.8125 3.847656 -8.945312 4.742188 -9.898438 C 5.636719 -10.855469 6.738281 -11.332031 8.050781 -11.332031 C 9.332031 -11.332031 10.4375 -10.855469 11.332031 -9.898438 C 12.226562 -8.945312 12.671875 -7.8125 12.671875 -6.558594 Z M 14.761719 0 L 14.761719 -13.121094 L 12.671875 -13.121094 L 12.671875 -10.855469 C 12.554688 -11.03125 12.40625 -11.183594 12.285156 -11.332031 C 11.03125 -12.703125 9.511719 -13.417969 7.722656 -13.417969 C 5.902344 -13.417969 4.382812 -12.703125 3.132812 -11.332031 C 1.9375 -9.960938 1.34375 -8.378906 1.34375 -6.558594 C 1.34375 -4.710938 1.9375 -3.132812 3.132812 -1.789062 C 4.382812 -0.386719 5.902344 0.296875 7.722656 0.296875 C 9.511719 0.296875 11.03125 -0.386719 12.285156 -1.789062 C 12.40625 -1.910156 12.554688 -2.058594 12.671875 -2.238281 L 12.671875 0 Z M 14.761719 0" transform="translate(76.817 94.451)"/></g></g></g><g fill="#FF2768"><g><g><path d="M 11.300781 0 L 13.390625 0 L 13.390625 -8.199219 C 13.390625 -9.722656 12.972656 -10.945312 12.195312 -11.867188 C 11.777344 -12.34375 11.300781 -12.703125 10.734375 -12.972656 C 10.136719 -13.238281 9.394531 -13.390625 8.46875 -13.390625 C 7.515625 -13.390625 6.710938 -13.121094 5.992188 -12.644531 C 5.308594 -12.195312 4.742188 -11.601562 4.324219 -10.855469 L 4.324219 -13.121094 L 2.238281 -13.121094 L 2.238281 0 L 4.324219 0 L 4.324219 -5.488281 C 4.324219 -7.15625 4.621094 -8.46875 5.25 -9.453125 C 5.605469 -9.988281 6.054688 -10.4375 6.621094 -10.792969 C 7.15625 -11.121094 7.902344 -11.300781 8.796875 -11.300781 C 9.691406 -11.300781 10.316406 -10.972656 10.707031 -10.378906 C 11.09375 -9.78125 11.300781 -9.035156 11.300781 -8.199219 Z M 11.300781 0" transform="translate(93.814 94.451)"/></g></g></g><g fill="#FF2768"><g><g><path d="M 12.851562 -6.558594 C 12.851562 -5.277344 12.40625 -4.144531 11.511719 -3.21875 C 10.617188 -2.265625 9.511719 -1.789062 8.230469 -1.789062 C 6.949219 -1.789062 5.84375 -2.265625 4.949219 -3.21875 C 4.054688 -4.144531 3.609375 -5.25 3.609375 -6.558594 C 3.609375 -7.84375 4.054688 -8.945312 4.949219 -9.898438 C 5.84375 -10.855469 6.949219 -11.332031 8.230469 -11.332031 C 9.511719 -11.332031 10.617188 -10.855469 11.511719 -9.898438 C 12.40625 -8.945312 12.851562 -7.8125 12.851562 -6.558594 Z M 3.546875 1.789062 L 1.402344 1.789062 C 1.640625 3.191406 2.265625 4.414062 3.339844 5.457031 C 4.652344 6.796875 6.261719 7.453125 8.140625 7.453125 C 9.988281 7.453125 11.601562 6.796875 12.941406 5.457031 C 14.253906 4.144531 14.941406 2.535156 14.941406 0.65625 L 14.941406 -13.121094 L 12.851562 -13.121094 L 12.851562 -10.914062 C 12.734375 -11.03125 12.613281 -11.183594 12.496094 -11.332031 C 11.183594 -12.703125 9.660156 -13.417969 7.933594 -13.417969 C 6.082031 -13.417969 4.5625 -12.703125 3.308594 -11.332031 C 2.117188 -9.960938 1.519531 -8.378906 1.519531 -6.558594 C 1.519531 -4.710938 2.117188 -3.132812 3.308594 -1.789062 C 4.5625 -0.386719 6.082031 0.296875 7.933594 0.296875 C 9.722656 0.296875 11.242188 -0.386719 12.496094 -1.789062 C 12.613281 -1.910156 12.734375 -2.058594 12.851562 -2.175781 L 12.851562 0.65625 C 12.851562 1.96875 12.375 3.070312 11.449219 3.996094 C 10.527344 4.921875 9.421875 5.367188 8.140625 5.367188 C 6.828125 5.367188 5.726562 4.921875 4.800781 3.996094 C 4.144531 3.339844 3.726562 2.625 3.546875 1.789062 Z M 3.546875 1.789062" transform="translate(108.993 94.451)"/></g></g></g><g fill="#FF2768"><g><g><path d="M 0.597656 -18.398438 L 5.515625 -18.398438 L 5.515625 -0.0585938 L 7.605469 -0.0585938 L 7.605469 -18.398438 L 12.523438 -18.398438 L 12.523438 -20.335938 L 0.597656 -20.335938 Z M 0.597656 -18.398438" transform="translate(134.22 94.451)"/></g></g></g><g fill="#FF2768"><g><g><path d="M 12.671875 -6.558594 C 12.671875 -5.277344 12.226562 -4.144531 11.332031 -3.21875 C 10.4375 -2.265625 9.332031 -1.789062 8.050781 -1.789062 C 6.738281 -1.789062 5.636719 -2.265625 4.742188 -3.21875 C 3.847656 -4.144531 3.429688 -5.277344 3.429688 -6.558594 C 3.429688 -7.8125 3.847656 -8.945312 4.742188 -9.898438 C 5.636719 -10.855469 6.738281 -11.332031 8.050781 -11.332031 C 9.332031 -11.332031 10.4375 -10.855469 11.332031 -9.898438 C 12.226562 -8.945312 12.671875 -7.8125 12.671875 -6.558594 Z M 14.761719 0 L 14.761719 -13.121094 L 12.671875 -13.121094 L 12.671875 -10.855469 C 12.554688 -11.03125 12.40625 -11.183594 12.285156 -11.332031 C 11.03125 -12.703125 9.511719 -13.417969 7.722656 -13.417969 C 5.902344 -13.417969 4.382812 -12.703125 3.132812 -11.332031 C 1.9375 -9.960938 1.34375 -8.378906 1.34375 -6.558594 C 1.34375 -4.710938 1.9375 -3.132812 3.132812 -1.789062 C 4.382812 -0.386719 5.902344 0.296875 7.722656 0.296875 C 9.511719 0.296875 11.03125 -0.386719 12.285156 -1.789062 C 12.40625 -1.910156 12.554688 -2.058594 12.671875 -2.238281 L 12.671875 0 Z M 14.761719 0" transform="translate(147.34 94.451)"/></g></g></g><g fill="#FF2768"><g><g><path d="M 4.355469 -17.652344 C 4.085938 -17.890625 3.757812 -18.039062 3.398438 -18.039062 C 3.042969 -18.039062 2.714844 -17.890625 2.476562 -17.652344 C 2.207031 -17.382812 2.085938 -17.054688 2.085938 -16.699219 C 2.085938 -16.339844 2.207031 -16.011719 2.476562 -15.773438 C 2.714844 -15.507812 3.042969 -15.386719 3.398438 -15.386719 C 3.757812 -15.386719 4.085938 -15.507812 4.355469 -15.773438 C 4.59375 -16.011719 4.742188 -16.339844 4.742188 -16.699219 C 4.742188 -17.054688 4.59375 -17.382812 4.355469 -17.652344 Z M 4.472656 0 L 4.472656 -13.121094 L 2.386719 -13.121094 L 2.386719 0 Z M 4.472656 0" transform="translate(164.337 94.451)"/></g></g></g><g fill="#00A8A8"><g><g><path d="M 14.402344 -18.222656 C 14.351562 -18.222656 14.300781 -18.246094 14.300781 -18.273438 C 14.300781 -18.324219 14.273438 -18.347656 14.222656 -18.347656 C 14.121094 -18.347656 13.742188 -18.679688 13.792969 -18.730469 C 13.820312 -18.753906 13.617188 -18.957031 13.617188 -19.082031 C 13.617188 -19.160156 13.589844 -19.234375 13.539062 -19.234375 C 13.515625 -19.234375 13.464844 -19.285156 13.464844 -19.363281 C 13.464844 -19.410156 13.4375 -19.460938 13.386719 -19.460938 C 13.363281 -19.460938 13.339844 -19.488281 13.363281 -19.511719 C 13.386719 -19.5625 12.933594 -20.144531 12.933594 -20.222656 C 12.933594 -20.296875 12.855469 -20.347656 12.78125 -20.347656 C 12.707031 -20.347656 12.628906 -20.398438 12.605469 -20.449219 C 12.578125 -20.5 12.453125 -20.578125 12.324219 -20.601562 C 11.945312 -20.652344 11.945312 -20.753906 11.667969 -20.449219 C 11.441406 -20.195312 11.414062 -20.195312 11.441406 -19.613281 C 11.441406 -19.3125 11.414062 -19.03125 11.390625 -19.03125 C 11.363281 -19.03125 11.363281 -18.980469 11.390625 -18.90625 C 11.414062 -18.753906 11.238281 -17.285156 11.085938 -16.628906 C 10.984375 -16.070312 10.882812 -15.589844 10.679688 -14.097656 C 10.578125 -13.464844 10.476562 -12.90625 10.453125 -12.882812 C 10.402344 -12.78125 9.972656 -12.707031 9.261719 -12.65625 C 8.859375 -12.628906 8.097656 -12.527344 7.542969 -12.453125 C 6.351562 -12.25 6.277344 -12.222656 5.871094 -12.074219 C 5.71875 -11.996094 5.441406 -11.921875 5.289062 -11.894531 C 4.734375 -11.792969 5.695312 -11.820312 5.011719 -11.667969 C 4.707031 -11.617188 4.632812 -11.617188 4.554688 -11.691406 C 4.453125 -11.820312 4.53125 -16.324219 4.65625 -17.109375 C 4.707031 -17.386719 4.734375 -17.816406 4.734375 -18.046875 C 4.734375 -18.398438 4.707031 -18.476562 4.53125 -18.679688 C 4.429688 -18.804688 4.300781 -18.90625 4.277344 -18.90625 C 4.25 -18.90625 4.125 -18.980469 4.023438 -19.082031 C 3.695312 -19.386719 3.085938 -19.691406 2.910156 -19.640625 C 2.757812 -19.589844 2.734375 -19.5625 2.734375 -19.132812 C 2.707031 -18.578125 2.554688 -18.703125 2.554688 -18.222656 C 2.554688 -17.84375 2.277344 -16.070312 2.203125 -15.945312 C 2.175781 -15.894531 2.125 -15.414062 2.101562 -14.855469 C 2.074219 -13.792969 1.949219 -12.832031 1.949219 -11.921875 C 1.949219 -11.667969 1.921875 -11.3125 1.871094 -11.109375 C 1.820312 -10.882812 1.820312 -10.730469 1.871094 -10.578125 C 1.972656 -10.324219 1.773438 -10.300781 1.847656 -10.097656 C 1.871094 -10.046875 1.796875 -9.792969 1.671875 -9.566406 C 1.390625 -8.933594 1.417969 -8.148438 1.238281 -7.339844 C 1.140625 -6.757812 1.113281 -6.351562 1.113281 -4.882812 C 1.089844 -3.921875 1.113281 -2.960938 1.164062 -2.785156 C 1.214844 -2.554688 1.214844 -2.203125 1.164062 -1.871094 L 1.113281 -1.339844 L 1.367188 -1.113281 C 1.492188 -1.011719 1.59375 -0.859375 1.59375 -0.835938 C 1.59375 -0.785156 1.644531 -0.734375 1.695312 -0.734375 C 1.820312 -0.734375 1.898438 -0.304688 2.023438 -0.355469 C 2.074219 -0.378906 2.277344 -0.253906 2.480469 -0.0742188 C 2.9375 0.355469 4.050781 1.039062 4.351562 1.089844 C 4.605469 1.140625 4.65625 1.113281 4.859375 0.859375 C 5.011719 0.707031 5.085938 0.582031 5.035156 0.558594 C 5.011719 0.53125 4.984375 0.429688 5.011719 0.328125 C 5.035156 0.101562 4.933594 -0.203125 4.785156 -0.277344 C 4.757812 -0.304688 4.707031 -0.378906 4.707031 -0.429688 C 4.707031 -0.480469 4.65625 -0.605469 4.605469 -0.707031 C 4.402344 -1.140625 4.351562 -2.65625 4.453125 -6.175781 C 4.480469 -7.164062 4.554688 -7.996094 4.582031 -8.023438 C 4.605469 -8.074219 5.136719 -8.175781 5.71875 -8.25 C 7.390625 -8.480469 7.492188 -8.480469 7.796875 -8.554688 C 7.945312 -8.578125 8.503906 -8.628906 9.011719 -8.65625 L 9.945312 -8.707031 L 9.996094 -8.527344 C 10.097656 -8.097656 9.742188 -7.363281 9.71875 -7.363281 C 9.644531 -7.3125 9.769531 -6.808594 9.667969 -6.808594 C 9.566406 -6.808594 9.644531 -6.199219 9.769531 -6 C 9.84375 -5.871094 9.71875 -5.871094 9.820312 -5.746094 C 9.921875 -5.617188 9.71875 -5.617188 9.820312 -5.441406 C 9.945312 -5.214844 10.023438 -4.882812 9.945312 -4.859375 C 9.894531 -4.835938 9.894531 -4.785156 9.945312 -4.707031 C 10.023438 -4.632812 9.945312 -4.203125 10.046875 -4.175781 C 10.125 -4.152344 9.921875 -3.847656 10.046875 -3.769531 C 10.097656 -3.71875 10.097656 -3.695312 10.046875 -3.667969 C 9.945312 -3.59375 10.125 -3.1875 10.023438 -3.136719 C 9.996094 -3.113281 9.945312 -2.9375 9.921875 -2.734375 C 9.84375 -2.101562 9.792969 -1.847656 9.742188 -1.847656 C 9.644531 -1.847656 9.695312 -1.140625 9.792969 -1.113281 C 9.820312 -1.089844 9.871094 -1.011719 9.871094 -0.9375 C 9.871094 -0.558594 9.945312 0.0234375 10.023438 0.125 C 10.097656 0.304688 10.679688 0.785156 10.78125 0.785156 C 10.859375 0.785156 11.210938 1.113281 11.289062 1.113281 C 11.363281 1.113281 12.351562 1.746094 12.453125 1.746094 C 12.503906 1.746094 12.605469 1.796875 12.65625 1.847656 C 12.753906 1.972656 13.339844 2 13.339844 1.871094 C 13.339844 1.820312 13.363281 1.492188 13.363281 1.164062 C 13.464844 -1.671875 13.589844 -3.667969 13.742188 -5.238281 C 13.820312 -5.820312 13.945312 -8.882812 14.25 -8.882812 C 14.273438 -8.882812 14.300781 -8.960938 14.300781 -9.035156 C 14.300781 -9.109375 14.324219 -9.160156 14.375 -9.160156 C 14.453125 -9.160156 14.375 -9.871094 14.453125 -9.871094 C 14.527344 -9.871094 14.527344 -10.046875 14.453125 -10.175781 C 14.324219 -10.425781 14.222656 -11.210938 14.25 -11.617188 C 14.351562 -12.476562 14.402344 -13.363281 14.476562 -14.171875 C 14.601562 -15.816406 14.730469 -16.90625 14.78125 -17.058594 C 14.855469 -17.234375 14.882812 -17.714844 14.804688 -17.714844 C 14.730469 -17.714844 14.503906 -18.222656 14.402344 -18.222656 Z M 14.402344 -18.222656" transform="translate(46.006 40.782)"/></g></g></g><g fill="#00A8A8"><g><g><path d="M 4.734375 -17.714844 C 4.707031 -17.765625 4.707031 -17.867188 4.734375 -17.945312 C 4.757812 -18.171875 4.707031 -18.527344 4.605469 -18.578125 C 4.554688 -18.578125 4.53125 -18.679688 4.503906 -18.753906 C 4.453125 -19.082031 4.125 -19.234375 4.074219 -19.539062 C 4.023438 -19.765625 3.390625 -19.96875 3.316406 -20.121094 C 3.238281 -20.296875 2.582031 -20.246094 2.40625 -20.019531 C 2.226562 -19.816406 2 -19.867188 1.871094 -19.664062 C 1.820312 -19.589844 1.644531 -19.386719 1.492188 -19.234375 C 1.089844 -18.78125 0.9375 -18.398438 1.011719 -17.996094 C 1.0625 -17.816406 1.0625 -17.664062 1.039062 -17.664062 C 0.960938 -17.664062 1.089844 -17.363281 1.367188 -16.730469 C 1.59375 -16.273438 1.644531 -16.222656 1.972656 -16.070312 C 2.277344 -15.945312 2.328125 -15.945312 2.707031 -16.046875 C 2.9375 -16.121094 3.113281 -16.199219 3.136719 -16.222656 C 3.136719 -16.273438 3.238281 -16.324219 3.339844 -16.324219 C 3.59375 -16.375 3.972656 -16.601562 3.972656 -16.679688 C 3.972656 -16.703125 4 -16.730469 4.023438 -16.730469 C 4.351562 -16.804688 4.859375 -17.515625 4.734375 -17.714844 Z M 9.035156 -0.808594 C 9.109375 -0.835938 8.933594 -1.621094 8.832031 -1.796875 C 8.78125 -1.898438 8.503906 -2.253906 8.480469 -2.355469 C 8.453125 -2.453125 8.125 -2.707031 8.097656 -2.835938 C 8.074219 -2.988281 7.796875 -3.035156 7.796875 -3.265625 C 7.820312 -3.367188 6.480469 -4.203125 6.328125 -4.226562 C 6.226562 -4.226562 6.074219 -4.226562 6.023438 -4.25 C 5.847656 -4.328125 5.316406 -4.152344 5.085938 -4.203125 C 4.785156 -4.277344 4.605469 -4.226562 4.402344 -4.429688 C 4.175781 -4.683594 3.921875 -6.097656 3.71875 -8.402344 C 3.59375 -9.921875 3.59375 -10.046875 3.71875 -10.808594 L 3.796875 -11.441406 L 3.621094 -11.691406 C 3.519531 -11.84375 3.390625 -12.074219 3.316406 -12.199219 C 3.164062 -12.425781 2.53125 -12.882812 2.378906 -12.855469 C 2.328125 -12.855469 2.277344 -12.882812 2.253906 -12.933594 C 2.203125 -13.007812 2.101562 -13.007812 1.921875 -12.984375 C 1.570312 -12.933594 1.417969 -12.679688 1.441406 -12.222656 C 1.492188 -11.71875 1.339844 -11.820312 1.46875 -11.210938 C 1.519531 -10.910156 1.542969 -10.605469 1.492188 -10.425781 C 1.46875 -10.300781 1.46875 -10.046875 1.492188 -9.894531 C 1.542969 -9.644531 1.542969 -9.238281 1.519531 -8.378906 C 1.519531 -8.175781 1.542969 -7.847656 1.519531 -7.644531 C 1.492188 -7.59375 1.59375 -6.960938 1.746094 -6.25 C 2.023438 -4.707031 2.050781 -4.65625 2.101562 -4.683594 C 2.175781 -4.683594 2.175781 -4.480469 2.253906 -4.480469 C 2.328125 -4.503906 2.554688 -4.125 2.605469 -3.847656 C 2.632812 -3.746094 2.683594 -3.644531 2.707031 -3.667969 C 2.734375 -3.667969 2.757812 -3.621094 2.734375 -3.570312 C 2.707031 -3.417969 2.886719 -3.492188 2.859375 -3.417969 C 2.835938 -3.367188 2.886719 -3.238281 2.988281 -3.085938 C 3.164062 -2.835938 3.164062 -2.859375 3.265625 -2.632812 C 3.316406 -2.53125 3.390625 -2.453125 3.417969 -2.453125 C 3.441406 -2.453125 3.492188 -2.429688 3.492188 -2.378906 C 3.519531 -2.253906 4.023438 -1.59375 4.226562 -1.46875 C 4.300781 -1.417969 4.378906 -1.339844 4.378906 -1.289062 C 4.402344 -1.191406 4.757812 -0.886719 4.859375 -0.886719 C 4.910156 -0.910156 4.960938 -0.859375 4.960938 -0.808594 C 4.984375 -0.683594 5.1875 -0.707031 5.214844 -0.582031 C 5.238281 -0.480469 6.050781 -0.253906 6.097656 -0.152344 C 6.175781 -0.0507812 6.453125 -0.125 6.582031 -0.0507812 C 6.730469 0.0507812 7.542969 0.101562 7.894531 0.0234375 C 8.378906 -0.0507812 8.78125 -0.304688 8.910156 -0.53125 C 8.960938 -0.65625 9.035156 -0.785156 9.035156 -0.808594 Z M 9.035156 -0.808594" transform="translate(64.45 40.782)"/></g></g></g><g fill="#00A8A8"><g><g><path d="M 16.398438 -19.386719 C 16.398438 -19.4375 16.300781 -19.511719 16.171875 -19.5625 C 16.046875 -19.613281 15.894531 -19.714844 15.816406 -19.792969 C 15.667969 -19.945312 15.035156 -20.171875 14.933594 -20.09375 C 14.882812 -20.070312 14.019531 -20.042969 12.984375 -20.042969 C 11.464844 -20.019531 10.808594 -19.996094 9.515625 -19.84375 C 8.65625 -19.742188 7.746094 -19.640625 7.492188 -19.613281 C 6.933594 -19.589844 4.734375 -19.386719 4.203125 -19.3125 C 3.238281 -19.183594 1.46875 -18.878906 1.140625 -18.578125 C 1.0625 -18.527344 1.011719 -18.398438 0.988281 -18.296875 C 0.9375 -18.097656 1.0625 -17.664062 1.140625 -17.664062 C 1.191406 -17.664062 1.214844 -17.613281 1.214844 -17.539062 C 1.214844 -17.414062 2.050781 -16.703125 2.050781 -16.578125 C 2.050781 -16.5 2.859375 -15.667969 2.859375 -15.589844 C 2.859375 -15.464844 3.59375 -15.3125 3.847656 -15.414062 C 4.882812 -15.917969 7.085938 -16.097656 8.527344 -16.25 C 8.933594 -16.300781 8.933594 -16.300781 8.984375 -16.121094 C 8.984375 -16.121094 9.011719 -13.1875 8.730469 -13.238281 C 8.480469 -13.261719 8.503906 -12.832031 8.453125 -12.199219 C 8.351562 -10.984375 8.199219 -9.742188 8.125 -9.441406 C 8.074219 -9.3125 8.046875 -9.109375 8.046875 -9.011719 C 8.046875 -8.910156 8.023438 -8.832031 7.972656 -8.832031 C 7.847656 -8.832031 7.542969 -4.960938 7.289062 -2.835938 C 7.238281 -2.53125 7.238281 -2.226562 7.265625 -2.175781 C 7.3125 -2.050781 7.921875 -1.570312 8.046875 -1.570312 C 8.074219 -1.570312 8.125 -1.519531 8.125 -1.46875 C 8.125 -1.417969 8.148438 -1.367188 8.175781 -1.390625 C 8.25 -1.441406 8.503906 -1.316406 8.65625 -1.140625 C 8.859375 -0.9375 9.769531 -0.53125 9.996094 -0.558594 C 10.074219 -0.558594 10.277344 -0.53125 10.425781 -0.480469 C 10.65625 -0.378906 10.707031 -0.40625 10.78125 -0.507812 C 10.984375 -0.785156 11.007812 -0.859375 10.882812 -1.164062 C 10.808594 -1.417969 10.808594 -1.671875 10.859375 -3.011719 C 10.910156 -4.074219 10.957031 -4.582031 11.007812 -4.65625 C 11.085938 -4.734375 11.085938 -4.785156 11.007812 -4.835938 C 10.933594 -4.859375 10.933594 -4.882812 10.984375 -4.882812 C 11.035156 -4.882812 11.085938 -4.960938 11.085938 -5.035156 C 11.085938 -5.113281 11.058594 -5.164062 11.007812 -5.164062 C 10.984375 -5.164062 10.984375 -5.238281 11.007812 -5.367188 C 11.109375 -5.71875 10.984375 -5.972656 11.109375 -6.300781 C 11.1875 -6.453125 11.261719 -6.933594 11.289062 -7.414062 C 11.390625 -8.605469 11.390625 -8.046875 11.464844 -9.238281 C 11.515625 -10.351562 11.539062 -10.25 11.589844 -11.339844 C 11.640625 -12.300781 11.921875 -13.210938 11.921875 -14.222656 C 11.921875 -14.703125 12.097656 -15.007812 12.148438 -15.515625 C 12.171875 -15.867188 12.25 -16.046875 12.425781 -16.300781 C 12.707031 -16.703125 12.78125 -16.730469 14.703125 -16.730469 C 16.097656 -16.730469 16.171875 -16.703125 16.5 -16.550781 C 17.082031 -16.273438 17.714844 -16.375 17.945312 -16.78125 C 18.097656 -17.109375 18.070312 -17.414062 17.894531 -17.613281 C 17.792969 -17.714844 17.714844 -17.84375 17.714844 -17.894531 C 17.714844 -17.945312 17.664062 -17.996094 17.640625 -17.996094 C 17.566406 -17.996094 17.234375 -18.347656 17.234375 -18.425781 C 17.234375 -18.476562 16.398438 -19.335938 16.398438 -19.386719 Z M 16.398438 -19.386719" transform="translate(94.154 40.782)"/></g></g></g><g fill="#00A8A8"><g><g><path d="M 12.804688 -14.046875 C 12.804688 -14.121094 12.453125 -14.425781 12.476562 -14.476562 C 12.476562 -14.628906 12.351562 -14.832031 12.273438 -14.804688 C 12.199219 -14.78125 12.046875 -14.90625 11.921875 -15.183594 C 11.84375 -15.3125 11.792969 -15.386719 11.769531 -15.386719 C 11.742188 -15.386719 11.589844 -15.515625 11.414062 -15.667969 C 11.238281 -15.867188 11.058594 -15.96875 10.910156 -15.96875 C 10.808594 -15.996094 10.707031 -15.996094 10.707031 -15.996094 C 10.707031 -16.046875 9.339844 -16.222656 9.160156 -16.25 C 8.984375 -16.300781 8.046875 -16.097656 7.085938 -15.816406 C 7.011719 -15.816406 6.933594 -15.71875 6.882812 -15.617188 C 6.679688 -15.136719 5.746094 -14.375 5.136719 -14.171875 C 4.328125 -13.894531 3.0625 -12.324219 2.9375 -12.453125 C 2.9375 -12.476562 2.886719 -13.007812 2.859375 -13.640625 C 2.785156 -15.109375 2.503906 -17.539062 2.65625 -18.398438 C 2.734375 -18.78125 2.65625 -18.855469 2.632812 -19.082031 C 2.605469 -19.363281 1.871094 -20.09375 1.59375 -20.144531 C 1.46875 -20.144531 1.367188 -20.09375 1.214844 -19.945312 C 1.011719 -19.714844 1.011719 -19.664062 1.011719 -19.183594 C 1.011719 -18.476562 1.214844 -18.296875 1.238281 -17.664062 C 1.265625 -17.414062 1.289062 -16.882812 1.339844 -16.449219 C 1.390625 -16.046875 1.441406 -14.679688 1.441406 -13.464844 C 1.46875 -10.984375 1.542969 -8.300781 1.59375 -7.921875 C 1.621094 -7.746094 1.492188 -5.164062 1.417969 -5.164062 C 1.339844 -5.164062 1.390625 -4.707031 1.417969 -4.707031 C 1.417969 -4.707031 1.441406 -4.632812 1.441406 -4.554688 C 1.46875 -4.351562 1.773438 -3.921875 1.773438 -3.71875 C 1.773438 -3.417969 2.101562 -3.0625 2.125 -2.835938 C 2.152344 -2.65625 2.378906 -2.480469 2.378906 -2.277344 C 2.378906 -2.203125 2.40625 -2.125 2.453125 -2.125 C 2.480469 -2.125 2.53125 -2 2.554688 -1.847656 C 2.605469 -1.570312 2.808594 -1.289062 2.988281 -1.289062 C 3.035156 -1.289062 3.0625 -1.265625 3.0625 -1.238281 C 3.0625 -1.140625 3.621094 -1.164062 3.796875 -1.265625 C 4 -1.367188 4.25 -1.695312 4.203125 -1.746094 C 4.175781 -1.773438 4.175781 -1.796875 4.226562 -1.796875 C 4.378906 -1.796875 4.277344 -2.480469 4.101562 -2.9375 C 3.769531 -3.746094 3.59375 -5.316406 3.441406 -6.554688 C 3.390625 -7.0625 3.339844 -7.464844 3.367188 -7.492188 C 3.390625 -7.542969 3.570312 -7.566406 3.769531 -7.566406 C 4.125 -7.59375 4.53125 -7.746094 4.53125 -7.871094 C 4.53125 -7.894531 4.554688 -7.921875 4.582031 -7.894531 C 4.65625 -7.847656 4.882812 -8.402344 4.835938 -8.480469 C 4.808594 -8.527344 4.835938 -8.554688 4.882812 -8.554688 C 4.933594 -8.554688 5.011719 -8.628906 5.0625 -8.757812 C 5.238281 -9.1875 7.363281 -11.136719 7.996094 -11.464844 C 8.328125 -11.640625 9.492188 -11.996094 9.566406 -11.972656 C 9.617188 -11.945312 9.871094 -11.921875 10.125 -11.894531 C 10.78125 -11.84375 11.261719 -11.589844 11.492188 -11.1875 C 11.589844 -10.957031 11.589844 -10.097656 11.464844 -9.71875 C 11.390625 -9.542969 11.339844 -9.1875 11.3125 -8.910156 C 11.289062 -8.378906 11.058594 -7.441406 11.058594 -6.960938 C 11.085938 -6.832031 11.058594 -6.679688 11.035156 -6.632812 C 10.957031 -6.453125 10.910156 -5.898438 10.859375 -5.847656 C 10.832031 -5.820312 10.78125 -5.417969 10.78125 -4.910156 C 10.757812 -4.125 10.757812 -3.949219 10.882812 -3.71875 C 10.984375 -3.519531 10.984375 -3.316406 11.085938 -3.238281 C 11.3125 -3.035156 11.339844 -2.429688 11.492188 -2.125 C 11.667969 -1.820312 11.894531 -1.339844 11.972656 -1.140625 C 12.023438 -1.039062 12.097656 -0.960938 12.148438 -0.960938 C 12.199219 -0.960938 12.273438 -0.886719 12.324219 -0.757812 C 12.527344 -0.378906 13.160156 -0.175781 13.589844 -0.378906 C 13.71875 -0.429688 13.921875 -0.480469 14.019531 -0.480469 C 14.578125 -0.480469 14.703125 -0.480469 14.804688 -0.582031 C 14.882812 -0.632812 14.984375 -0.683594 15.035156 -0.683594 C 15.109375 -0.683594 15.160156 -0.707031 15.160156 -0.734375 C 15.160156 -0.785156 15.210938 -0.859375 15.261719 -0.910156 C 15.3125 -0.988281 15.386719 -1.191406 15.4375 -1.390625 C 15.515625 -1.921875 15.335938 -2.605469 15.363281 -3.238281 C 15.414062 -3.972656 15.234375 -5.390625 15.109375 -5.617188 C 15.007812 -5.746094 15.058594 -6.378906 15.007812 -6.378906 C 14.984375 -6.378906 15.007812 -7.464844 14.882812 -7.617188 C 14.804688 -7.695312 14.804688 -7.71875 14.855469 -7.71875 C 14.957031 -7.71875 14.933594 -8.023438 14.804688 -8.148438 C 14.730469 -8.277344 14.933594 -8.910156 14.730469 -8.910156 C 14.601562 -8.910156 14.804688 -9.238281 14.679688 -9.136719 C 14.601562 -9.109375 14.601562 -9.136719 14.628906 -9.210938 C 14.652344 -9.3125 14.628906 -9.363281 14.578125 -9.390625 C 14.453125 -9.441406 14.476562 -10.097656 14.375 -10.175781 C 14.351562 -10.199219 14.324219 -10.300781 14.324219 -10.351562 C 14.324219 -10.425781 14.300781 -10.476562 14.25 -10.476562 C 14.222656 -10.476562 14.199219 -10.527344 14.199219 -10.605469 C 14.222656 -10.910156 14.046875 -11.464844 13.792969 -11.945312 C 13.742188 -12.046875 13.691406 -12.171875 13.691406 -12.222656 C 13.691406 -12.273438 13.640625 -12.375 13.589844 -12.425781 C 13.464844 -12.527344 13.589844 -12.628906 13.488281 -12.730469 C 13.386719 -12.855469 13.085938 -13.464844 13.085938 -13.539062 C 13.085938 -13.667969 12.804688 -13.921875 12.804688 -14.046875 Z M 12.804688 -14.046875" transform="translate(115.761 40.782)"/></g></g></g><g fill="#00A8A8"><g><g><path d="M 3.339844 -13.539062 C 3.390625 -13.539062 3.417969 -13.589844 3.441406 -13.640625 C 3.492188 -13.921875 3.265625 -13.566406 3.339844 -13.539062 Z M 10.425781 -12.957031 C 10.957031 -12.855469 11.515625 -12.707031 11.640625 -12.65625 C 11.945312 -12.503906 11.945312 -12.476562 11.691406 -12.425781 C 11.566406 -12.425781 11.414062 -12.351562 11.3125 -12.324219 C 11.109375 -12.199219 9.695312 -11.84375 9.566406 -11.871094 C 9.492188 -11.894531 8.527344 -11.792969 7.996094 -11.691406 C 7.492188 -11.617188 7.515625 -11.492188 6.882812 -11.414062 C 5.898438 -11.289062 5.644531 -11.261719 4.683594 -11.058594 C 3.820312 -10.859375 3.71875 -10.910156 4.050781 -11.3125 C 4.175781 -11.464844 4.351562 -11.617188 4.429688 -11.667969 C 4.480469 -11.691406 4.554688 -11.769531 4.582031 -11.820312 C 4.605469 -12.023438 6.277344 -12.730469 7.238281 -12.957031 C 8.503906 -13.261719 9.109375 -13.261719 10.425781 -12.957031 Z M 12.933594 -14.453125 C 12.882812 -14.453125 12.855469 -14.453125 12.832031 -14.453125 C 12.730469 -14.425781 12.503906 -14.453125 12.222656 -14.554688 C 11.921875 -14.652344 11.769531 -14.679688 11.769531 -14.628906 C 11.820312 -14.503906 8.933594 -15.261719 8.707031 -15.109375 C 8.628906 -15.058594 8.277344 -15.183594 8.480469 -15.058594 C 8.578125 -14.984375 8.554688 -14.957031 8.378906 -14.984375 C 8.25 -14.984375 8.023438 -14.957031 7.894531 -14.933594 C 7.492188 -14.855469 6.554688 -14.679688 6.199219 -14.527344 C 5.71875 -14.351562 5.847656 -14.476562 5.390625 -14.300781 C 4.859375 -14.097656 4.605469 -14.046875 4.605469 -14.121094 C 4.582031 -14.199219 3.695312 -13.742188 3.695312 -13.640625 C 3.695312 -13.589844 3.621094 -13.515625 3.519531 -13.488281 C 3.417969 -13.4375 3.238281 -13.3125 3.164062 -13.210938 C 3.0625 -13.085938 2.9375 -13.007812 2.910156 -13.035156 C 2.808594 -13.109375 2.226562 -12.300781 2.050781 -11.894531 C 1.820312 -11.363281 1.289062 -9.59375 1.113281 -9.011719 C 0.9375 -8.480469 0.9375 -8.351562 1.089844 -7.871094 C 1.113281 -7.746094 1.164062 -7.492188 1.164062 -7.3125 C 1.214844 -6.554688 1.390625 -6.074219 1.820312 -5.515625 C 2.328125 -4.882812 2.960938 -4.402344 4.074219 -3.796875 C 4.808594 -3.390625 4.859375 -3.390625 6.125 -3.085938 C 7.644531 -2.757812 7.769531 -2.785156 9.261719 -2.65625 C 10.554688 -2.554688 12.578125 -2.503906 13.515625 -2.355469 C 14.121094 -2.226562 14.453125 -2.226562 14.578125 -2.355469 C 14.730469 -2.503906 14.804688 -2.378906 14.957031 -2.554688 C 15.183594 -2.757812 15.183594 -3.542969 14.984375 -3.695312 C 14.933594 -3.71875 14.90625 -3.796875 14.933594 -3.820312 C 14.957031 -3.871094 14.933594 -4.023438 14.855469 -4.125 C 14.730469 -4.429688 14.527344 -5.417969 14.324219 -5.617188 C 14.148438 -5.820312 14.121094 -6.125 13.921875 -6.226562 C 13.84375 -6.277344 13.769531 -6.328125 13.792969 -6.351562 C 13.820312 -6.480469 13.566406 -6.632812 13.210938 -6.730469 C 12.957031 -6.808594 12.855469 -6.808594 12.605469 -6.679688 C 12.300781 -6.554688 12.171875 -6.582031 11.871094 -6.503906 C 11.71875 -6.480469 11.1875 -6.503906 9.894531 -6.554688 C 9.0625 -6.605469 8.25 -6.582031 7.464844 -6.605469 C 6.175781 -6.605469 5.542969 -6.605469 5.417969 -6.53125 C 5.339844 -6.503906 4.785156 -6.582031 4.683594 -6.53125 C 4.554688 -6.503906 2.960938 -7.265625 2.835938 -7.414062 C 2.734375 -7.542969 2.707031 -7.667969 2.734375 -7.871094 C 2.785156 -8.148438 2.785156 -8.148438 2.960938 -8.097656 C 4.25 -7.796875 5.136719 -8.023438 6.730469 -8.148438 C 8.199219 -8.277344 7.847656 -8.300781 8.882812 -8.402344 C 9.542969 -8.480469 9.390625 -8.503906 9.871094 -8.554688 C 10.375 -8.605469 12.679688 -9.210938 12.855469 -9.339844 C 12.882812 -9.363281 13.085938 -9.441406 13.3125 -9.515625 C 13.820312 -9.667969 14.25 -9.945312 14.351562 -10.148438 C 14.402344 -10.25 14.453125 -10.375 14.503906 -10.476562 C 14.679688 -10.882812 14.503906 -11.996094 14.121094 -12.65625 C 13.96875 -12.882812 13.871094 -13.109375 13.894531 -13.160156 C 13.921875 -13.261719 13.742188 -13.539062 13.3125 -14.070312 C 13.109375 -14.351562 13.007812 -14.425781 12.933594 -14.453125 Z M 12.933594 -14.453125" transform="translate(134.99 40.782)"/></g></g></g><g fill="#00A8A8"><g><g><path d="M 13.1875 -16.882812 C 13.085938 -17.160156 12.402344 -17.894531 12.199219 -17.945312 C 12.023438 -17.996094 11.691406 -18.425781 11.539062 -18.476562 C 11.492188 -18.5 11.441406 -18.578125 11.441406 -18.628906 C 11.464844 -18.679688 11.363281 -18.730469 11.1875 -18.753906 C 10.933594 -18.78125 10.859375 -18.753906 10.65625 -18.601562 C 10.554688 -18.476562 10.402344 -18.398438 10.351562 -18.398438 C 10.300781 -18.398438 10.25 -18.375 10.25 -18.324219 C 10.25 -18.195312 8.757812 -16.730469 8.679688 -16.78125 C 8.578125 -16.832031 8.25 -16.375 8.148438 -16.425781 C 8.046875 -16.449219 7.894531 -16.300781 7.945312 -16.222656 C 7.972656 -16.199219 7.972656 -16.199219 7.921875 -16.199219 C 7.820312 -16.199219 7.238281 -15.566406 7.1875 -15.414062 C 7.164062 -15.335938 7.113281 -15.285156 7.085938 -15.285156 C 6.859375 -15.285156 7.265625 -15.617188 7.214844 -15.667969 C 7.113281 -15.765625 5.617188 -13.515625 5.617188 -13.515625 C 5.617188 -13.515625 5.59375 -13.464844 5.566406 -13.414062 C 5.441406 -13.261719 4.605469 -11.820312 4.554688 -11.667969 C 4.53125 -11.566406 4.554688 -11.464844 4.632812 -11.414062 C 4.707031 -11.3125 4.707031 -11.261719 4.605469 -11.035156 C 4.351562 -10.503906 4.175781 -10.097656 4.175781 -9.996094 C 4.175781 -9.871094 4.023438 -9.644531 3.949219 -9.644531 C 3.847656 -9.644531 4 -13.921875 3.796875 -14.351562 C 3.667969 -14.601562 3.492188 -14.753906 3.214844 -14.832031 C 2.355469 -15.085938 2.253906 -15.765625 2.304688 -13.488281 C 2.328125 -12.125 2.328125 -11.972656 2.226562 -11.792969 C 2.074219 -11.589844 2.050781 -11.261719 2.023438 -8.527344 C 2 -7.566406 1.972656 -6.730469 1.972656 -6.707031 C 1.949219 -6.65625 1.972656 -6.554688 2 -6.453125 C 2.074219 -6.199219 1.773438 -5.769531 1.773438 -5.515625 C 1.773438 -5.1875 1.46875 -4.125 1.191406 -3.441406 C 0.988281 -2.9375 0.9375 -2.785156 1.011719 -2.65625 C 1.039062 -2.582031 1.0625 -2.453125 1.0625 -2.378906 C 1.0625 -2.304688 1.164062 -2.175781 1.265625 -2.074219 C 1.367188 -1.972656 1.417969 -1.898438 1.390625 -1.898438 C 1.390625 -1.898438 1.417969 -1.847656 1.542969 -1.773438 C 1.820312 -1.59375 2.152344 -0.9375 2.503906 -0.9375 C 2.582031 -0.9375 2.886719 -0.378906 2.960938 -0.378906 C 2.988281 -0.378906 3.136719 -0.277344 3.289062 -0.125 C 3.59375 0.125 3.621094 0.125 3.847656 0 C 4.25 -0.203125 4.402344 -0.480469 4.707031 -1.695312 C 4.882812 -2.328125 5.011719 -2.886719 4.984375 -2.910156 C 4.960938 -3.011719 5.164062 -3.519531 5.1875 -3.644531 C 5.238281 -3.949219 5.390625 -4.101562 5.441406 -4.429688 C 5.542969 -4.984375 5.71875 -4.910156 5.796875 -5.441406 C 5.820312 -5.871094 6.023438 -5.921875 6.125 -6.328125 C 6.199219 -6.632812 6.65625 -7.515625 6.707031 -7.847656 C 6.757812 -8.148438 6.910156 -8.199219 6.984375 -8.453125 C 7.0625 -8.78125 7.921875 -10.402344 8.097656 -10.605469 C 8.148438 -10.65625 8.175781 -10.730469 8.175781 -10.757812 C 8.175781 -10.808594 8.25 -10.933594 8.351562 -11.035156 C 8.429688 -11.160156 8.578125 -11.414062 8.707031 -11.589844 C 8.960938 -12.023438 10.175781 -13.539062 10.476562 -13.921875 C 10.730469 -14.25 11.921875 -15.4375 12.199219 -15.617188 C 12.300781 -15.691406 12.351562 -15.71875 12.375 -15.640625 C 12.425781 -15.539062 12.65625 -15.539062 12.855469 -15.691406 C 13.085938 -15.84375 13.414062 -16.398438 13.1875 -16.882812 Z M 13.1875 -16.882812" transform="translate(153.864 40.782)"/></g></g></g><g fill="#00A8A8"><g><g><path d="M 3.339844 -13.539062 C 3.390625 -13.539062 3.417969 -13.589844 3.441406 -13.640625 C 3.492188 -13.921875 3.265625 -13.566406 3.339844 -13.539062 Z M 10.425781 -12.957031 C 10.957031 -12.855469 11.515625 -12.707031 11.640625 -12.65625 C 11.945312 -12.503906 11.945312 -12.476562 11.691406 -12.425781 C 11.566406 -12.425781 11.414062 -12.351562 11.3125 -12.324219 C 11.109375 -12.199219 9.695312 -11.84375 9.566406 -11.871094 C 9.492188 -11.894531 8.527344 -11.792969 7.996094 -11.691406 C 7.492188 -11.617188 7.515625 -11.492188 6.882812 -11.414062 C 5.898438 -11.289062 5.644531 -11.261719 4.683594 -11.058594 C 3.820312 -10.859375 3.71875 -10.910156 4.050781 -11.3125 C 4.175781 -11.464844 4.351562 -11.617188 4.429688 -11.667969 C 4.480469 -11.691406 4.554688 -11.769531 4.582031 -11.820312 C 4.605469 -12.023438 6.277344 -12.730469 7.238281 -12.957031 C 8.503906 -13.261719 9.109375 -13.261719 10.425781 -12.957031 Z M 12.933594 -14.453125 C 12.882812 -14.453125 12.855469 -14.453125 12.832031 -14.453125 C 12.730469 -14.425781 12.503906 -14.453125 12.222656 -14.554688 C 11.921875 -14.652344 11.769531 -14.679688 11.769531 -14.628906 C 11.820312 -14.503906 8.933594 -15.261719 8.707031 -15.109375 C 8.628906 -15.058594 8.277344 -15.183594 8.480469 -15.058594 C 8.578125 -14.984375 8.554688 -14.957031 8.378906 -14.984375 C 8.25 -14.984375 8.023438 -14.957031 7.894531 -14.933594 C 7.492188 -14.855469 6.554688 -14.679688 6.199219 -14.527344 C 5.71875 -14.351562 5.847656 -14.476562 5.390625 -14.300781 C 4.859375 -14.097656 4.605469 -14.046875 4.605469 -14.121094 C 4.582031 -14.199219 3.695312 -13.742188 3.695312 -13.640625 C 3.695312 -13.589844 3.621094 -13.515625 3.519531 -13.488281 C 3.417969 -13.4375 3.238281 -13.3125 3.164062 -13.210938 C 3.0625 -13.085938 2.9375 -13.007812 2.910156 -13.035156 C 2.808594 -13.109375 2.226562 -12.300781 2.050781 -11.894531 C 1.820312 -11.363281 1.289062 -9.59375 1.113281 -9.011719 C 0.9375 -8.480469 0.9375 -8.351562 1.089844 -7.871094 C 1.113281 -7.746094 1.164062 -7.492188 1.164062 -7.3125 C 1.214844 -6.554688 1.390625 -6.074219 1.820312 -5.515625 C 2.328125 -4.882812 2.960938 -4.402344 4.074219 -3.796875 C 4.808594 -3.390625 4.859375 -3.390625 6.125 -3.085938 C 7.644531 -2.757812 7.769531 -2.785156 9.261719 -2.65625 C 10.554688 -2.554688 12.578125 -2.503906 13.515625 -2.355469 C 14.121094 -2.226562 14.453125 -2.226562 14.578125 -2.355469 C 14.730469 -2.503906 14.804688 -2.378906 14.957031 -2.554688 C 15.183594 -2.757812 15.183594 -3.542969 14.984375 -3.695312 C 14.933594 -3.71875 14.90625 -3.796875 14.933594 -3.820312 C 14.957031 -3.871094 14.933594 -4.023438 14.855469 -4.125 C 14.730469 -4.429688 14.527344 -5.417969 14.324219 -5.617188 C 14.148438 -5.820312 14.121094 -6.125 13.921875 -6.226562 C 13.84375 -6.277344 13.769531 -6.328125 13.792969 -6.351562 C 13.820312 -6.480469 13.566406 -6.632812 13.210938 -6.730469 C 12.957031 -6.808594 12.855469 -6.808594 12.605469 -6.679688 C 12.300781 -6.554688 12.171875 -6.582031 11.871094 -6.503906 C 11.71875 -6.480469 11.1875 -6.503906 9.894531 -6.554688 C 9.0625 -6.605469 8.25 -6.582031 7.464844 -6.605469 C 6.175781 -6.605469 5.542969 -6.605469 5.417969 -6.53125 C 5.339844 -6.503906 4.785156 -6.582031 4.683594 -6.53125 C 4.554688 -6.503906 2.960938 -7.265625 2.835938 -7.414062 C 2.734375 -7.542969 2.707031 -7.667969 2.734375 -7.871094 C 2.785156 -8.148438 2.785156 -8.148438 2.960938 -8.097656 C 4.25 -7.796875 5.136719 -8.023438 6.730469 -8.148438 C 8.199219 -8.277344 7.847656 -8.300781 8.882812 -8.402344 C 9.542969 -8.480469 9.390625 -8.503906 9.871094 -8.554688 C 10.375 -8.605469 12.679688 -9.210938 12.855469 -9.339844 C 12.882812 -9.363281 13.085938 -9.441406 13.3125 -9.515625 C 13.820312 -9.667969 14.25 -9.945312 14.351562 -10.148438 C 14.402344 -10.25 14.453125 -10.375 14.503906 -10.476562 C 14.679688 -10.882812 14.503906 -11.996094 14.121094 -12.65625 C 13.96875 -12.882812 13.871094 -13.109375 13.894531 -13.160156 C 13.921875 -13.261719 13.742188 -13.539062 13.3125 -14.070312 C 13.109375 -14.351562 13.007812 -14.425781 12.933594 -14.453125 Z M 12.933594 -14.453125" transform="translate(170.664 40.782)"/></g></g></g><g fill="#00A8A8"><g><g><path d="M 7.820312 -4.859375 C 7.820312 -4.933594 7.542969 -5.464844 7.59375 -5.515625 C 7.59375 -5.542969 7.390625 -5.847656 7.390625 -5.972656 C 7.390625 -6.097656 7.289062 -6.277344 7.085938 -6.503906 L 6.78125 -6.832031 L 6.300781 -6.832031 C 6.023438 -6.832031 5.746094 -6.808594 5.644531 -6.730469 C 5.289062 -6.554688 5.113281 -5.949219 5.367188 -5.871094 C 5.515625 -5.820312 5.542969 -5.617188 5.542969 -4.632812 C 5.542969 -2.988281 4.65625 -0.558594 3.898438 0.53125 C 3.769531 0.707031 3.667969 0.886719 3.667969 0.886719 C 3.667969 0.9375 3.289062 1.46875 3.1875 1.542969 C 3.0625 1.671875 2.632812 2.277344 2.53125 2.40625 C 2.480469 2.480469 1.820312 3.417969 1.746094 3.417969 C 1.722656 3.417969 1.542969 3.542969 1.367188 3.695312 C 0.988281 4.050781 0.960938 4.25 1.238281 4.582031 C 1.367188 4.683594 1.492188 4.785156 1.519531 4.785156 C 1.542969 4.785156 1.621094 4.882812 1.671875 4.984375 C 1.796875 5.214844 2.253906 5.695312 2.355469 5.695312 C 2.40625 5.695312 2.429688 5.71875 2.429688 5.746094 C 2.429688 5.847656 2.808594 6.226562 2.960938 6.277344 C 3.164062 6.328125 3.644531 6.074219 3.695312 5.898438 C 3.71875 5.820312 3.769531 5.769531 3.820312 5.769531 C 3.898438 5.769531 4.152344 5.214844 4.152344 5.035156 C 4.152344 4.984375 4.402344 4.605469 4.734375 4.203125 C 5.796875 2.910156 6.480469 1.773438 6.910156 0.582031 C 7.136719 -0.0234375 7.515625 -0.808594 7.644531 -0.886719 C 7.796875 -0.988281 7.972656 -1.671875 8.046875 -2.480469 C 8.074219 -2.757812 8.148438 -3.035156 8.199219 -3.113281 C 8.277344 -3.238281 8.277344 -3.316406 8.175781 -3.871094 C 8.148438 -4.050781 8.175781 -4.328125 8.097656 -4.328125 C 8.046875 -4.328125 8.023438 -4.378906 8.023438 -4.453125 C 8.023438 -4.605469 7.820312 -4.707031 7.820312 -4.859375 Z M 7.820312 -4.859375" transform="translate(189.54 40.782)"/></g></g></g><g fill="#00A8A8"><g><g><path d="M 11.742188 -15.285156 C 11.71875 -15.363281 11.667969 -15.4375 11.640625 -15.414062 C 11.589844 -15.414062 11.515625 -15.640625 11.414062 -15.667969 C 11.339844 -15.691406 11.238281 -15.816406 11.1875 -15.917969 C 11.136719 -16.019531 10.957031 -16.199219 10.808594 -16.300781 C 10.679688 -16.398438 10.554688 -16.527344 10.578125 -16.578125 C 10.605469 -16.679688 10.023438 -17.183594 9.894531 -17.160156 C 9.84375 -17.160156 9.84375 -17.210938 9.84375 -17.261719 C 9.894531 -17.414062 9.492188 -17.414062 9.414062 -17.488281 C 9.363281 -17.539062 9.160156 -17.613281 8.960938 -17.640625 C 8.300781 -17.742188 8.402344 -17.488281 8.199219 -17.132812 C 8.046875 -16.882812 7.847656 -16.753906 7.414062 -16.628906 C 7.0625 -16.527344 7.0625 -16.578125 7.238281 -17.261719 C 7.542969 -18.449219 8.277344 -21.335938 8.453125 -21.4375 C 8.628906 -21.539062 8.25 -21.867188 8.226562 -21.992188 C 8.199219 -22.121094 7.390625 -22.777344 7.289062 -22.753906 C 7.214844 -22.753906 6.707031 -23.054688 6.582031 -23.15625 C 6.480469 -23.285156 6.351562 -23.183594 6.378906 -22.980469 C 6.429688 -22.574219 6.300781 -22.347656 6.25 -21.816406 C 6.199219 -21.109375 5.769531 -19.714844 5.566406 -19.539062 C 5.492188 -19.488281 5.390625 -19.3125 5.367188 -19.183594 C 5.164062 -18.398438 5.035156 -18.046875 4.984375 -18.121094 C 4.960938 -18.171875 4.933594 -18.148438 4.910156 -18.070312 C 4.859375 -17.867188 4.53125 -16.375 4.453125 -15.945312 C 4.402344 -15.765625 4.351562 -15.589844 4.300781 -15.539062 C 4.226562 -15.464844 3.265625 -15.109375 2.378906 -14.855469 C 2.125 -14.78125 1.972656 -14.628906 2.175781 -14.652344 C 2.378906 -14.679688 2.277344 -14.527344 2.074219 -14.503906 C 1.695312 -14.453125 1.339844 -14.273438 1.089844 -14.375 C 0.859375 -14.476562 0.910156 -14.300781 0.988281 -14.300781 C 1.011719 -14.300781 1.289062 -13.1875 1.289062 -13.109375 C 1.339844 -12.90625 1.441406 -12.882812 1.417969 -12.730469 C 1.390625 -12.605469 1.570312 -12.65625 1.519531 -12.578125 C 1.492188 -12.503906 1.695312 -12.453125 1.722656 -12.351562 C 1.722656 -12.199219 1.921875 -11.945312 2.101562 -11.84375 C 2.226562 -11.769531 2.453125 -11.742188 2.808594 -11.769531 L 3.316406 -11.792969 C 3.289062 -11.441406 3.265625 -11.136719 3.164062 -10.503906 C 2.988281 -8.984375 2.960938 -8.808594 2.960938 -8.453125 C 2.960938 -8.226562 2.910156 -8.074219 2.835938 -7.972656 C 2.707031 -7.847656 2.707031 -7.796875 2.859375 -6.429688 C 3.035156 -5.011719 3.035156 -4.984375 3.265625 -4.632812 C 3.519531 -4.226562 3.417969 -4.226562 3.695312 -4 C 3.796875 -3.898438 3.972656 -3.695312 4.101562 -3.492188 C 4.25 -3.316406 4.378906 -3.164062 4.402344 -3.164062 C 4.453125 -3.1875 4.453125 -3.136719 4.429688 -3.113281 C 4.402344 -3.035156 4.554688 -2.988281 4.632812 -2.859375 C 4.785156 -2.632812 5.417969 -2.101562 5.566406 -1.871094 C 5.644531 -1.746094 5.71875 -1.671875 5.769531 -1.671875 C 5.796875 -1.671875 5.820312 -1.621094 5.847656 -1.570312 C 5.847656 -1.441406 6.050781 -1.441406 6.074219 -1.339844 C 6.097656 -1.214844 6.582031 -0.988281 6.632812 -0.910156 C 6.910156 -0.507812 6.933594 -0.707031 7.3125 -0.429688 C 8.023438 0.0742188 8.378906 0.175781 9.011719 0.378906 C 9.390625 0.507812 10.628906 0.734375 11.007812 0.835938 C 11.160156 0.886719 11.972656 1.011719 12.097656 1.0625 C 12.199219 1.113281 12.476562 1.113281 12.605469 1.0625 C 12.855469 0.9375 13.035156 0.910156 13.160156 0.632812 C 13.289062 0.40625 13.289062 0.355469 13.1875 0.0742188 C 13.109375 -0.101562 13.035156 -0.253906 12.957031 -0.304688 C 12.882812 -0.355469 12.855469 -0.558594 12.753906 -0.53125 C 12.707031 -0.53125 11.84375 -1.191406 11.792969 -1.191406 C 11.742188 -1.191406 11.667969 -1.265625 11.589844 -1.367188 C 11.390625 -1.644531 11.390625 -1.492188 11.136719 -1.695312 C 10.808594 -2 9.695312 -2.253906 9.210938 -2 C 9.011719 -1.898438 9.035156 -2.050781 8.808594 -2.023438 C 8.453125 -1.972656 7.414062 -2.328125 7.390625 -2.554688 C 7.390625 -2.605469 7.1875 -2.886719 6.933594 -3.214844 C 6.679688 -3.519531 6.453125 -3.871094 6.402344 -3.972656 C 6.378906 -4.050781 6.300781 -4.226562 6.25 -4.328125 C 6.074219 -4.605469 5.71875 -6.910156 5.769531 -7.542969 C 5.796875 -8.453125 5.820312 -9.109375 5.972656 -9.972656 C 6.226562 -11.539062 6.074219 -11.058594 6.328125 -12.25 C 6.453125 -12.855469 6.480469 -12.855469 6.707031 -12.933594 C 7.164062 -13.058594 7.871094 -13.3125 8.402344 -13.4375 C 8.960938 -13.589844 9.894531 -13.96875 10.476562 -13.742188 C 10.859375 -13.589844 11.667969 -14.019531 11.640625 -14.171875 C 11.640625 -14.199219 11.691406 -14.25 11.769531 -14.300781 C 12.125 -14.453125 11.84375 -15.035156 11.742188 -15.285156 Z M 11.742188 -15.285156" transform="translate(218.712 40.782)"/></g></g></g><g fill="#00A8A8"><g><g><path d="M 12.804688 -14.046875 C 12.804688 -14.121094 12.453125 -14.425781 12.476562 -14.476562 C 12.476562 -14.628906 12.351562 -14.832031 12.273438 -14.804688 C 12.199219 -14.78125 12.046875 -14.90625 11.921875 -15.183594 C 11.84375 -15.3125 11.792969 -15.386719 11.769531 -15.386719 C 11.742188 -15.386719 11.589844 -15.515625 11.414062 -15.667969 C 11.238281 -15.867188 11.058594 -15.96875 10.910156 -15.96875 C 10.808594 -15.996094 10.707031 -15.996094 10.707031 -15.996094 C 10.707031 -16.046875 9.339844 -16.222656 9.160156 -16.25 C 8.984375 -16.300781 8.046875 -16.097656 7.085938 -15.816406 C 7.011719 -15.816406 6.933594 -15.71875 6.882812 -15.617188 C 6.679688 -15.136719 5.746094 -14.375 5.136719 -14.171875 C 4.328125 -13.894531 3.0625 -12.324219 2.9375 -12.453125 C 2.9375 -12.476562 2.886719 -13.007812 2.859375 -13.640625 C 2.785156 -15.109375 2.503906 -17.539062 2.65625 -18.398438 C 2.734375 -18.78125 2.65625 -18.855469 2.632812 -19.082031 C 2.605469 -19.363281 1.871094 -20.09375 1.59375 -20.144531 C 1.46875 -20.144531 1.367188 -20.09375 1.214844 -19.945312 C 1.011719 -19.714844 1.011719 -19.664062 1.011719 -19.183594 C 1.011719 -18.476562 1.214844 -18.296875 1.238281 -17.664062 C 1.265625 -17.414062 1.289062 -16.882812 1.339844 -16.449219 C 1.390625 -16.046875 1.441406 -14.679688 1.441406 -13.464844 C 1.46875 -10.984375 1.542969 -8.300781 1.59375 -7.921875 C 1.621094 -7.746094 1.492188 -5.164062 1.417969 -5.164062 C 1.339844 -5.164062 1.390625 -4.707031 1.417969 -4.707031 C 1.417969 -4.707031 1.441406 -4.632812 1.441406 -4.554688 C 1.46875 -4.351562 1.773438 -3.921875 1.773438 -3.71875 C 1.773438 -3.417969 2.101562 -3.0625 2.125 -2.835938 C 2.152344 -2.65625 2.378906 -2.480469 2.378906 -2.277344 C 2.378906 -2.203125 2.40625 -2.125 2.453125 -2.125 C 2.480469 -2.125 2.53125 -2 2.554688 -1.847656 C 2.605469 -1.570312 2.808594 -1.289062 2.988281 -1.289062 C 3.035156 -1.289062 3.0625 -1.265625 3.0625 -1.238281 C 3.0625 -1.140625 3.621094 -1.164062 3.796875 -1.265625 C 4 -1.367188 4.25 -1.695312 4.203125 -1.746094 C 4.175781 -1.773438 4.175781 -1.796875 4.226562 -1.796875 C 4.378906 -1.796875 4.277344 -2.480469 4.101562 -2.9375 C 3.769531 -3.746094 3.59375 -5.316406 3.441406 -6.554688 C 3.390625 -7.0625 3.339844 -7.464844 3.367188 -7.492188 C 3.390625 -7.542969 3.570312 -7.566406 3.769531 -7.566406 C 4.125 -7.59375 4.53125 -7.746094 4.53125 -7.871094 C 4.53125 -7.894531 4.554688 -7.921875 4.582031 -7.894531 C 4.65625 -7.847656 4.882812 -8.402344 4.835938 -8.480469 C 4.808594 -8.527344 4.835938 -8.554688 4.882812 -8.554688 C 4.933594 -8.554688 5.011719 -8.628906 5.0625 -8.757812 C 5.238281 -9.1875 7.363281 -11.136719 7.996094 -11.464844 C 8.328125 -11.640625 9.492188 -11.996094 9.566406 -11.972656 C 9.617188 -11.945312 9.871094 -11.921875 10.125 -11.894531 C 10.78125 -11.84375 11.261719 -11.589844 11.492188 -11.1875 C 11.589844 -10.957031 11.589844 -10.097656 11.464844 -9.71875 C 11.390625 -9.542969 11.339844 -9.1875 11.3125 -8.910156 C 11.289062 -8.378906 11.058594 -7.441406 11.058594 -6.960938 C 11.085938 -6.832031 11.058594 -6.679688 11.035156 -6.632812 C 10.957031 -6.453125 10.910156 -5.898438 10.859375 -5.847656 C 10.832031 -5.820312 10.78125 -5.417969 10.78125 -4.910156 C 10.757812 -4.125 10.757812 -3.949219 10.882812 -3.71875 C 10.984375 -3.519531 10.984375 -3.316406 11.085938 -3.238281 C 11.3125 -3.035156 11.339844 -2.429688 11.492188 -2.125 C 11.667969 -1.820312 11.894531 -1.339844 11.972656 -1.140625 C 12.023438 -1.039062 12.097656 -0.960938 12.148438 -0.960938 C 12.199219 -0.960938 12.273438 -0.886719 12.324219 -0.757812 C 12.527344 -0.378906 13.160156 -0.175781 13.589844 -0.378906 C 13.71875 -0.429688 13.921875 -0.480469 14.019531 -0.480469 C 14.578125 -0.480469 14.703125 -0.480469 14.804688 -0.582031 C 14.882812 -0.632812 14.984375 -0.683594 15.035156 -0.683594 C 15.109375 -0.683594 15.160156 -0.707031 15.160156 -0.734375 C 15.160156 -0.785156 15.210938 -0.859375 15.261719 -0.910156 C 15.3125 -0.988281 15.386719 -1.191406 15.4375 -1.390625 C 15.515625 -1.921875 15.335938 -2.605469 15.363281 -3.238281 C 15.414062 -3.972656 15.234375 -5.390625 15.109375 -5.617188 C 15.007812 -5.746094 15.058594 -6.378906 15.007812 -6.378906 C 14.984375 -6.378906 15.007812 -7.464844 14.882812 -7.617188 C 14.804688 -7.695312 14.804688 -7.71875 14.855469 -7.71875 C 14.957031 -7.71875 14.933594 -8.023438 14.804688 -8.148438 C 14.730469 -8.277344 14.933594 -8.910156 14.730469 -8.910156 C 14.601562 -8.910156 14.804688 -9.238281 14.679688 -9.136719 C 14.601562 -9.109375 14.601562 -9.136719 14.628906 -9.210938 C 14.652344 -9.3125 14.628906 -9.363281 14.578125 -9.390625 C 14.453125 -9.441406 14.476562 -10.097656 14.375 -10.175781 C 14.351562 -10.199219 14.324219 -10.300781 14.324219 -10.351562 C 14.324219 -10.425781 14.300781 -10.476562 14.25 -10.476562 C 14.222656 -10.476562 14.199219 -10.527344 14.199219 -10.605469 C 14.222656 -10.910156 14.046875 -11.464844 13.792969 -11.945312 C 13.742188 -12.046875 13.691406 -12.171875 13.691406 -12.222656 C 13.691406 -12.273438 13.640625 -12.375 13.589844 -12.425781 C 13.464844 -12.527344 13.589844 -12.628906 13.488281 -12.730469 C 13.386719 -12.855469 13.085938 -13.464844 13.085938 -13.539062 C 13.085938 -13.667969 12.804688 -13.921875 12.804688 -14.046875 Z M 12.804688 -14.046875" transform="translate(235.512 40.782)"/></g></g></g><g fill="#00A8A8"><g><g><path d="M 4.734375 -17.714844 C 4.707031 -17.765625 4.707031 -17.867188 4.734375 -17.945312 C 4.757812 -18.171875 4.707031 -18.527344 4.605469 -18.578125 C 4.554688 -18.578125 4.53125 -18.679688 4.503906 -18.753906 C 4.453125 -19.082031 4.125 -19.234375 4.074219 -19.539062 C 4.023438 -19.765625 3.390625 -19.96875 3.316406 -20.121094 C 3.238281 -20.296875 2.582031 -20.246094 2.40625 -20.019531 C 2.226562 -19.816406 2 -19.867188 1.871094 -19.664062 C 1.820312 -19.589844 1.644531 -19.386719 1.492188 -19.234375 C 1.089844 -18.78125 0.9375 -18.398438 1.011719 -17.996094 C 1.0625 -17.816406 1.0625 -17.664062 1.039062 -17.664062 C 0.960938 -17.664062 1.089844 -17.363281 1.367188 -16.730469 C 1.59375 -16.273438 1.644531 -16.222656 1.972656 -16.070312 C 2.277344 -15.945312 2.328125 -15.945312 2.707031 -16.046875 C 2.9375 -16.121094 3.113281 -16.199219 3.136719 -16.222656 C 3.136719 -16.273438 3.238281 -16.324219 3.339844 -16.324219 C 3.59375 -16.375 3.972656 -16.601562 3.972656 -16.679688 C 3.972656 -16.703125 4 -16.730469 4.023438 -16.730469 C 4.351562 -16.804688 4.859375 -17.515625 4.734375 -17.714844 Z M 9.035156 -0.808594 C 9.109375 -0.835938 8.933594 -1.621094 8.832031 -1.796875 C 8.78125 -1.898438 8.503906 -2.253906 8.480469 -2.355469 C 8.453125 -2.453125 8.125 -2.707031 8.097656 -2.835938 C 8.074219 -2.988281 7.796875 -3.035156 7.796875 -3.265625 C 7.820312 -3.367188 6.480469 -4.203125 6.328125 -4.226562 C 6.226562 -4.226562 6.074219 -4.226562 6.023438 -4.25 C 5.847656 -4.328125 5.316406 -4.152344 5.085938 -4.203125 C 4.785156 -4.277344 4.605469 -4.226562 4.402344 -4.429688 C 4.175781 -4.683594 3.921875 -6.097656 3.71875 -8.402344 C 3.59375 -9.921875 3.59375 -10.046875 3.71875 -10.808594 L 3.796875 -11.441406 L 3.621094 -11.691406 C 3.519531 -11.84375 3.390625 -12.074219 3.316406 -12.199219 C 3.164062 -12.425781 2.53125 -12.882812 2.378906 -12.855469 C 2.328125 -12.855469 2.277344 -12.882812 2.253906 -12.933594 C 2.203125 -13.007812 2.101562 -13.007812 1.921875 -12.984375 C 1.570312 -12.933594 1.417969 -12.679688 1.441406 -12.222656 C 1.492188 -11.71875 1.339844 -11.820312 1.46875 -11.210938 C 1.519531 -10.910156 1.542969 -10.605469 1.492188 -10.425781 C 1.46875 -10.300781 1.46875 -10.046875 1.492188 -9.894531 C 1.542969 -9.644531 1.542969 -9.238281 1.519531 -8.378906 C 1.519531 -8.175781 1.542969 -7.847656 1.519531 -7.644531 C 1.492188 -7.59375 1.59375 -6.960938 1.746094 -6.25 C 2.023438 -4.707031 2.050781 -4.65625 2.101562 -4.683594 C 2.175781 -4.683594 2.175781 -4.480469 2.253906 -4.480469 C 2.328125 -4.503906 2.554688 -4.125 2.605469 -3.847656 C 2.632812 -3.746094 2.683594 -3.644531 2.707031 -3.667969 C 2.734375 -3.667969 2.757812 -3.621094 2.734375 -3.570312 C 2.707031 -3.417969 2.886719 -3.492188 2.859375 -3.417969 C 2.835938 -3.367188 2.886719 -3.238281 2.988281 -3.085938 C 3.164062 -2.835938 3.164062 -2.859375 3.265625 -2.632812 C 3.316406 -2.53125 3.390625 -2.453125 3.417969 -2.453125 C 3.441406 -2.453125 3.492188 -2.429688 3.492188 -2.378906 C 3.519531 -2.253906 4.023438 -1.59375 4.226562 -1.46875 C 4.300781 -1.417969 4.378906 -1.339844 4.378906 -1.289062 C 4.402344 -1.191406 4.757812 -0.886719 4.859375 -0.886719 C 4.910156 -0.910156 4.960938 -0.859375 4.960938 -0.808594 C 4.984375 -0.683594 5.1875 -0.707031 5.214844 -0.582031 C 5.238281 -0.480469 6.050781 -0.253906 6.097656 -0.152344 C 6.175781 -0.0507812 6.453125 -0.125 6.582031 -0.0507812 C 6.730469 0.0507812 7.542969 0.101562 7.894531 0.0234375 C 8.378906 -0.0507812 8.78125 -0.304688 8.910156 -0.53125 C 8.960938 -0.65625 9.035156 -0.785156 9.035156 -0.808594 Z M 9.035156 -0.808594" transform="translate(254.74 40.782)"/></g></g></g><g fill="#00A8A8"><g><g><path d="M 13.617188 -14.957031 C 13.667969 -15.085938 13.691406 -15.183594 13.691406 -15.183594 C 13.71875 -15.183594 13.363281 -15.894531 13.289062 -15.996094 C 13.210938 -16.070312 13.1875 -16.148438 13.210938 -16.148438 C 13.210938 -16.148438 13.007812 -16.300781 13.007812 -16.351562 C 13.007812 -16.398438 12.882812 -16.5 12.730469 -16.601562 C 12.605469 -16.730469 12.402344 -16.90625 12.300781 -17.03125 C 12.171875 -17.160156 12.074219 -17.261719 12.023438 -17.261719 C 11.945312 -17.234375 11.539062 -17.515625 11.539062 -17.589844 C 11.515625 -17.664062 11.058594 -17.816406 10.65625 -17.894531 C 10.351562 -17.945312 9.972656 -17.894531 8.679688 -17.613281 C 8.628906 -17.613281 8.65625 -17.589844 8.757812 -17.566406 C 8.859375 -17.539062 8.984375 -17.539062 9.035156 -17.566406 C 9.210938 -17.640625 9.210938 -17.464844 9.011719 -17.464844 C 8.910156 -17.4375 8.78125 -17.363281 8.707031 -17.261719 C 8.628906 -17.160156 8.402344 -17.007812 8.175781 -16.90625 C 7.746094 -16.703125 6.832031 -16.148438 6.859375 -16.070312 C 6.859375 -16.019531 6.65625 -15.945312 6.605469 -15.894531 C 6.554688 -15.84375 6.328125 -15.667969 6.125 -15.515625 C 5.71875 -15.234375 5.59375 -15.136719 5.113281 -14.628906 C 4.960938 -14.476562 4.785156 -14.300781 4.707031 -14.25 C 4.605469 -14.171875 4.277344 -13.742188 4.175781 -13.792969 C 4.125 -13.820312 4.125 -13.820312 4.152344 -13.792969 C 4.203125 -13.71875 2.9375 -12.097656 2.910156 -12.046875 C 2.707031 -11.71875 2.480469 -11.640625 2.304688 -11.261719 C 2.203125 -11.058594 2.023438 -10.78125 1.871094 -10.578125 C 1.542969 -10.148438 1.746094 -10.226562 1.390625 -9.921875 C 1.0625 -9.644531 1.113281 -9.515625 0.988281 -9.085938 C 0.734375 -8.378906 1.367188 -7.820312 1.671875 -7.3125 C 1.773438 -7.136719 1.921875 -6.960938 1.972656 -6.933594 C 2.023438 -6.933594 2.101562 -6.859375 2.101562 -6.832031 C 2.101562 -6.679688 2.734375 -6.277344 3.136719 -6.148438 C 3.769531 -5.949219 4.453125 -5.972656 5.289062 -6.199219 C 6.554688 -6.554688 8.808594 -7.136719 9.035156 -7.164062 C 9.035156 -7.164062 9.0625 -7.085938 9.085938 -6.984375 C 9.136719 -6.65625 8.808594 -6.023438 8.175781 -5.265625 C 7.847656 -4.859375 7.59375 -4.503906 7.617188 -4.480469 C 7.667969 -4.378906 6.78125 -3.71875 6.707031 -3.667969 C 6.453125 -3.390625 5.769531 -2.886719 5.667969 -2.886719 C 5.617188 -2.886719 5.542969 -2.835938 5.515625 -2.808594 C 5.492188 -2.757812 5.214844 -2.632812 4.910156 -2.503906 C 4.480469 -2.355469 4.226562 -2.277344 3.769531 -2.253906 C 3.164062 -2.226562 2.355469 -2.253906 2.226562 -2.328125 C 2.101562 -2.429688 1.722656 -2.40625 1.671875 -2.328125 C 1.46875 -2.023438 1.621094 -1.570312 1.921875 -1.621094 C 2.023438 -1.621094 2.050781 -1.339844 2.152344 -1.289062 C 2.226562 -1.238281 2.328125 -1.113281 2.40625 -0.988281 C 2.605469 -0.65625 2.910156 -0.40625 3.164062 -0.152344 L 3.390625 0.0742188 L 4.984375 -0.125 C 6.503906 -0.304688 6.605469 -0.328125 7.238281 -0.582031 C 8.730469 -1.214844 10.628906 -2.480469 11.339844 -3.339844 C 12.148438 -4.351562 12.855469 -6.378906 12.730469 -7.441406 C 12.679688 -7.796875 12.628906 -7.945312 12.554688 -7.996094 C 12.476562 -8.046875 12.199219 -8.503906 12.125 -8.503906 C 12.074219 -8.503906 12.046875 -8.527344 12.046875 -8.554688 C 12.023438 -8.628906 11.261719 -9.238281 11.261719 -9.3125 C 11.261719 -9.339844 11.1875 -9.363281 11.109375 -9.390625 C 11.035156 -9.414062 10.933594 -9.492188 10.882812 -9.566406 C 10.757812 -9.742188 10.628906 -9.667969 10.554688 -9.820312 C 10.503906 -9.894531 10.277344 -9.871094 10.277344 -9.945312 C 10.277344 -10.046875 10.074219 -9.996094 10.046875 -10.046875 C 9.996094 -10.148438 9.566406 -10.324219 9.289062 -10.375 C 8.628906 -10.476562 8.480469 -10.476562 7.921875 -10.375 C 5.921875 -9.972656 4.65625 -9.59375 4.378906 -9.289062 C 4.300781 -9.210938 3.519531 -8.808594 3.417969 -8.808594 C 3.238281 -8.78125 3.972656 -9.972656 4.859375 -11.058594 C 5.515625 -11.894531 6.65625 -13.035156 7.390625 -13.617188 C 7.769531 -13.945312 8.453125 -14.402344 8.527344 -14.402344 C 8.578125 -14.402344 8.679688 -14.476562 8.78125 -14.527344 C 9.210938 -14.832031 9.84375 -15.007812 10.757812 -15.109375 L 11.667969 -15.210938 L 12.097656 -14.984375 C 12.324219 -14.855469 12.679688 -14.703125 12.882812 -14.652344 C 13.339844 -14.476562 13.488281 -14.628906 13.617188 -14.957031 Z M 13.617188 -14.957031" transform="translate(267.366 40.782)"/></g></g></g><g fill="#00A8A8"><g><g><path d="M 4.734375 -17.714844 C 4.707031 -17.765625 4.707031 -17.867188 4.734375 -17.945312 C 4.757812 -18.171875 4.707031 -18.527344 4.605469 -18.578125 C 4.554688 -18.578125 4.53125 -18.679688 4.503906 -18.753906 C 4.453125 -19.082031 4.125 -19.234375 4.074219 -19.539062 C 4.023438 -19.765625 3.390625 -19.96875 3.316406 -20.121094 C 3.238281 -20.296875 2.582031 -20.246094 2.40625 -20.019531 C 2.226562 -19.816406 2 -19.867188 1.871094 -19.664062 C 1.820312 -19.589844 1.644531 -19.386719 1.492188 -19.234375 C 1.089844 -18.78125 0.9375 -18.398438 1.011719 -17.996094 C 1.0625 -17.816406 1.0625 -17.664062 1.039062 -17.664062 C 0.960938 -17.664062 1.089844 -17.363281 1.367188 -16.730469 C 1.59375 -16.273438 1.644531 -16.222656 1.972656 -16.070312 C 2.277344 -15.945312 2.328125 -15.945312 2.707031 -16.046875 C 2.9375 -16.121094 3.113281 -16.199219 3.136719 -16.222656 C 3.136719 -16.273438 3.238281 -16.324219 3.339844 -16.324219 C 3.59375 -16.375 3.972656 -16.601562 3.972656 -16.679688 C 3.972656 -16.703125 4 -16.730469 4.023438 -16.730469 C 4.351562 -16.804688 4.859375 -17.515625 4.734375 -17.714844 Z M 9.035156 -0.808594 C 9.109375 -0.835938 8.933594 -1.621094 8.832031 -1.796875 C 8.78125 -1.898438 8.503906 -2.253906 8.480469 -2.355469 C 8.453125 -2.453125 8.125 -2.707031 8.097656 -2.835938 C 8.074219 -2.988281 7.796875 -3.035156 7.796875 -3.265625 C 7.820312 -3.367188 6.480469 -4.203125 6.328125 -4.226562 C 6.226562 -4.226562 6.074219 -4.226562 6.023438 -4.25 C 5.847656 -4.328125 5.316406 -4.152344 5.085938 -4.203125 C 4.785156 -4.277344 4.605469 -4.226562 4.402344 -4.429688 C 4.175781 -4.683594 3.921875 -6.097656 3.71875 -8.402344 C 3.59375 -9.921875 3.59375 -10.046875 3.71875 -10.808594 L 3.796875 -11.441406 L 3.621094 -11.691406 C 3.519531 -11.84375 3.390625 -12.074219 3.316406 -12.199219 C 3.164062 -12.425781 2.53125 -12.882812 2.378906 -12.855469 C 2.328125 -12.855469 2.277344 -12.882812 2.253906 -12.933594 C 2.203125 -13.007812 2.101562 -13.007812 1.921875 -12.984375 C 1.570312 -12.933594 1.417969 -12.679688 1.441406 -12.222656 C 1.492188 -11.71875 1.339844 -11.820312 1.46875 -11.210938 C 1.519531 -10.910156 1.542969 -10.605469 1.492188 -10.425781 C 1.46875 -10.300781 1.46875 -10.046875 1.492188 -9.894531 C 1.542969 -9.644531 1.542969 -9.238281 1.519531 -8.378906 C 1.519531 -8.175781 1.542969 -7.847656 1.519531 -7.644531 C 1.492188 -7.59375 1.59375 -6.960938 1.746094 -6.25 C 2.023438 -4.707031 2.050781 -4.65625 2.101562 -4.683594 C 2.175781 -4.683594 2.175781 -4.480469 2.253906 -4.480469 C 2.328125 -4.503906 2.554688 -4.125 2.605469 -3.847656 C 2.632812 -3.746094 2.683594 -3.644531 2.707031 -3.667969 C 2.734375 -3.667969 2.757812 -3.621094 2.734375 -3.570312 C 2.707031 -3.417969 2.886719 -3.492188 2.859375 -3.417969 C 2.835938 -3.367188 2.886719 -3.238281 2.988281 -3.085938 C 3.164062 -2.835938 3.164062 -2.859375 3.265625 -2.632812 C 3.316406 -2.53125 3.390625 -2.453125 3.417969 -2.453125 C 3.441406 -2.453125 3.492188 -2.429688 3.492188 -2.378906 C 3.519531 -2.253906 4.023438 -1.59375 4.226562 -1.46875 C 4.300781 -1.417969 4.378906 -1.339844 4.378906 -1.289062 C 4.402344 -1.191406 4.757812 -0.886719 4.859375 -0.886719 C 4.910156 -0.910156 4.960938 -0.859375 4.960938 -0.808594 C 4.984375 -0.683594 5.1875 -0.707031 5.214844 -0.582031 C 5.238281 -0.480469 6.050781 -0.253906 6.097656 -0.152344 C 6.175781 -0.0507812 6.453125 -0.125 6.582031 -0.0507812 C 6.730469 0.0507812 7.542969 0.101562 7.894531 0.0234375 C 8.378906 -0.0507812 8.78125 -0.304688 8.910156 -0.53125 C 8.960938 -0.65625 9.035156 -0.785156 9.035156 -0.808594 Z M 9.035156 -0.808594" transform="translate(301.674 40.782)"/></g></g></g><g fill="#00A8A8"><g><g><path d="M 13.617188 -14.957031 C 13.667969 -15.085938 13.691406 -15.183594 13.691406 -15.183594 C 13.71875 -15.183594 13.363281 -15.894531 13.289062 -15.996094 C 13.210938 -16.070312 13.1875 -16.148438 13.210938 -16.148438 C 13.210938 -16.148438 13.007812 -16.300781 13.007812 -16.351562 C 13.007812 -16.398438 12.882812 -16.5 12.730469 -16.601562 C 12.605469 -16.730469 12.402344 -16.90625 12.300781 -17.03125 C 12.171875 -17.160156 12.074219 -17.261719 12.023438 -17.261719 C 11.945312 -17.234375 11.539062 -17.515625 11.539062 -17.589844 C 11.515625 -17.664062 11.058594 -17.816406 10.65625 -17.894531 C 10.351562 -17.945312 9.972656 -17.894531 8.679688 -17.613281 C 8.628906 -17.613281 8.65625 -17.589844 8.757812 -17.566406 C 8.859375 -17.539062 8.984375 -17.539062 9.035156 -17.566406 C 9.210938 -17.640625 9.210938 -17.464844 9.011719 -17.464844 C 8.910156 -17.4375 8.78125 -17.363281 8.707031 -17.261719 C 8.628906 -17.160156 8.402344 -17.007812 8.175781 -16.90625 C 7.746094 -16.703125 6.832031 -16.148438 6.859375 -16.070312 C 6.859375 -16.019531 6.65625 -15.945312 6.605469 -15.894531 C 6.554688 -15.84375 6.328125 -15.667969 6.125 -15.515625 C 5.71875 -15.234375 5.59375 -15.136719 5.113281 -14.628906 C 4.960938 -14.476562 4.785156 -14.300781 4.707031 -14.25 C 4.605469 -14.171875 4.277344 -13.742188 4.175781 -13.792969 C 4.125 -13.820312 4.125 -13.820312 4.152344 -13.792969 C 4.203125 -13.71875 2.9375 -12.097656 2.910156 -12.046875 C 2.707031 -11.71875 2.480469 -11.640625 2.304688 -11.261719 C 2.203125 -11.058594 2.023438 -10.78125 1.871094 -10.578125 C 1.542969 -10.148438 1.746094 -10.226562 1.390625 -9.921875 C 1.0625 -9.644531 1.113281 -9.515625 0.988281 -9.085938 C 0.734375 -8.378906 1.367188 -7.820312 1.671875 -7.3125 C 1.773438 -7.136719 1.921875 -6.960938 1.972656 -6.933594 C 2.023438 -6.933594 2.101562 -6.859375 2.101562 -6.832031 C 2.101562 -6.679688 2.734375 -6.277344 3.136719 -6.148438 C 3.769531 -5.949219 4.453125 -5.972656 5.289062 -6.199219 C 6.554688 -6.554688 8.808594 -7.136719 9.035156 -7.164062 C 9.035156 -7.164062 9.0625 -7.085938 9.085938 -6.984375 C 9.136719 -6.65625 8.808594 -6.023438 8.175781 -5.265625 C 7.847656 -4.859375 7.59375 -4.503906 7.617188 -4.480469 C 7.667969 -4.378906 6.78125 -3.71875 6.707031 -3.667969 C 6.453125 -3.390625 5.769531 -2.886719 5.667969 -2.886719 C 5.617188 -2.886719 5.542969 -2.835938 5.515625 -2.808594 C 5.492188 -2.757812 5.214844 -2.632812 4.910156 -2.503906 C 4.480469 -2.355469 4.226562 -2.277344 3.769531 -2.253906 C 3.164062 -2.226562 2.355469 -2.253906 2.226562 -2.328125 C 2.101562 -2.429688 1.722656 -2.40625 1.671875 -2.328125 C 1.46875 -2.023438 1.621094 -1.570312 1.921875 -1.621094 C 2.023438 -1.621094 2.050781 -1.339844 2.152344 -1.289062 C 2.226562 -1.238281 2.328125 -1.113281 2.40625 -0.988281 C 2.605469 -0.65625 2.910156 -0.40625 3.164062 -0.152344 L 3.390625 0.0742188 L 4.984375 -0.125 C 6.503906 -0.304688 6.605469 -0.328125 7.238281 -0.582031 C 8.730469 -1.214844 10.628906 -2.480469 11.339844 -3.339844 C 12.148438 -4.351562 12.855469 -6.378906 12.730469 -7.441406 C 12.679688 -7.796875 12.628906 -7.945312 12.554688 -7.996094 C 12.476562 -8.046875 12.199219 -8.503906 12.125 -8.503906 C 12.074219 -8.503906 12.046875 -8.527344 12.046875 -8.554688 C 12.023438 -8.628906 11.261719 -9.238281 11.261719 -9.3125 C 11.261719 -9.339844 11.1875 -9.363281 11.109375 -9.390625 C 11.035156 -9.414062 10.933594 -9.492188 10.882812 -9.566406 C 10.757812 -9.742188 10.628906 -9.667969 10.554688 -9.820312 C 10.503906 -9.894531 10.277344 -9.871094 10.277344 -9.945312 C 10.277344 -10.046875 10.074219 -9.996094 10.046875 -10.046875 C 9.996094 -10.148438 9.566406 -10.324219 9.289062 -10.375 C 8.628906 -10.476562 8.480469 -10.476562 7.921875 -10.375 C 5.921875 -9.972656 4.65625 -9.59375 4.378906 -9.289062 C 4.300781 -9.210938 3.519531 -8.808594 3.417969 -8.808594 C 3.238281 -8.78125 3.972656 -9.972656 4.859375 -11.058594 C 5.515625 -11.894531 6.65625 -13.035156 7.390625 -13.617188 C 7.769531 -13.945312 8.453125 -14.402344 8.527344 -14.402344 C 8.578125 -14.402344 8.679688 -14.476562 8.78125 -14.527344 C 9.210938 -14.832031 9.84375 -15.007812 10.757812 -15.109375 L 11.667969 -15.210938 L 12.097656 -14.984375 C 12.324219 -14.855469 12.679688 -14.703125 12.882812 -14.652344 C 13.339844 -14.476562 13.488281 -14.628906 13.617188 -14.957031 Z M 13.617188 -14.957031" transform="translate(314.3 40.782)"/></g></g></g><g fill="#1E57BE"><g><g><path d="M 0.078125 4.019531 L 2.722656 4.019531 L 10.164062 -14.492188 L 7.496094 -14.492188 Z M 0.078125 4.019531" transform="translate(121.5 141.605)"/></g></g></g><g fill="#1E57BE"><g><g><path d="M 7.824219 -4.25 C 7.824219 -3.128906 6.957031 -2.125 5.796875 -2.125 C 4.636719 -2.125 3.769531 -3.128906 3.769531 -4.25 C 3.769531 -5.371094 4.636719 -6.375 5.796875 -6.375 C 6.957031 -6.375 7.824219 -5.371094 7.824219 -4.25 Z M 10.722656 -14.492188 L 7.824219 -14.492188 L 7.824219 -7.476562 C 7.070312 -8.40625 5.988281 -8.714844 4.90625 -8.714844 C 2.492188 -8.714844 0.675781 -6.609375 0.675781 -4.25 C 0.675781 -1.894531 2.492188 0.191406 4.90625 0.191406 C 5.988281 0.191406 7.246094 -0.15625 7.824219 -1.023438 L 7.824219 0 L 10.722656 0 Z M 10.722656 -14.492188" transform="translate(135.37 141.605)"/></g></g></g><g fill="#1E57BE"><g><g><path d="M 10.046875 -10.546875 L 10.046875 -8.671875 L 5.875 -4.78125 C 7.007812 -4.644531 7.910156 -4.351562 8.578125 -3.90625 C 9.253906 -3.46875 9.738281 -2.910156 10.03125 -2.234375 C 10.320312 -1.566406 10.46875 -0.828125 10.46875 -0.015625 C 10.46875 0.867188 10.257812 1.660156 9.84375 2.359375 C 9.4375 3.066406 8.804688 3.625 7.953125 4.03125 C 7.109375 4.4375 6.03125 4.640625 4.71875 4.640625 C 3.132812 4.640625 1.742188 4.390625 0.546875 3.890625 L 0.546875 1.40625 C 1.160156 1.707031 1.820312 1.929688 2.53125 2.078125 C 3.25 2.234375 3.90625 2.3125 4.5 2.3125 C 5.289062 2.3125 5.90625 2.195312 6.34375 1.96875 C 6.78125 1.738281 7.09375 1.4375 7.28125 1.0625 C 7.46875 0.6875 7.5625 0.28125 7.5625 -0.15625 C 7.5625 -0.613281 7.453125 -1.035156 7.234375 -1.421875 C 7.015625 -1.816406 6.628906 -2.125 6.078125 -2.34375 C 5.523438 -2.570312 4.757812 -2.6875 3.78125 -2.6875 L 2.671875 -2.6875 L 2.671875 -4.734375 L 6.5 -8.34375 L 0.921875 -8.34375 L 0.921875 -10.546875 Z M 10.046875 -10.546875" transform="translate(151.113 141.605)"/></g></g></g><g fill="#1E57BE"><g><g><path d="M 6.984375 -11 L 11 -0.453125 L 7.984375 -0.453125 L 5.953125 -6.453125 C 5.835938 -6.816406 5.75 -7.191406 5.6875 -7.578125 C 5.625 -7.960938 5.578125 -8.3125 5.546875 -8.625 L 5.46875 -8.625 C 5.4375 -7.925781 5.296875 -7.203125 5.046875 -6.453125 L 3.015625 -0.453125 L 0 -0.453125 L 4.015625 -11 Z M 6.984375 -11" transform="translate(166.199 141.605)"/></g></g></g><g fill="#1E57BE"><g><g><path d="M 7.828125 4.640625 C 7.535156 4.640625 7.226562 4.613281 6.90625 4.5625 C 6.582031 4.519531 6.3125 4.46875 6.09375 4.40625 L 6.09375 2.140625 C 6.28125 2.203125 6.457031 2.242188 6.625 2.265625 C 6.789062 2.296875 6.984375 2.3125 7.203125 2.3125 C 7.523438 2.3125 7.800781 2.203125 8.03125 1.984375 C 8.257812 1.765625 8.375 1.34375 8.375 0.71875 L 8.375 -6.375 C 8.375 -7.757812 7.804688 -8.453125 6.671875 -8.453125 C 5.796875 -8.453125 5.195312 -8.148438 4.875 -7.546875 C 4.550781 -6.953125 4.390625 -6.09375 4.390625 -4.96875 L 4.390625 0 L 1.5 0 L 1.5 -10.546875 L 3.71875 -10.546875 L 4.09375 -9.203125 L 4.265625 -9.203125 C 4.609375 -9.742188 5.070312 -10.132812 5.65625 -10.375 C 6.238281 -10.625 6.851562 -10.75 7.5 -10.75 C 8.632812 -10.75 9.539062 -10.441406 10.21875 -9.828125 C 10.90625 -9.210938 11.25 -8.226562 11.25 -6.875 L 11.25 1.140625 C 11.25 1.785156 11.132812 2.367188 10.90625 2.890625 C 10.6875 3.421875 10.320312 3.84375 9.8125 4.15625 C 9.3125 4.476562 8.648438 4.640625 7.828125 4.640625 Z M 7.828125 4.640625" transform="translate(181.053 141.605)"/></g></g></g><g fill="#1E57BE"><g><g><path d="M 4.8125 -6.28125 L 6.355469 -6.28125 L 6.355469 -8.519531 L 4.8125 -8.519531 L 4.8125 -11.769531 L 1.933594 -11.769531 L 1.933594 -8.519531 L 0.386719 -8.519531 L 0.386719 -6.28125 L 1.933594 -6.28125 L 1.933594 0 L 4.8125 0 Z M 4.8125 -6.28125" transform="translate(206.3 141.605)"/></g></g></g><g fill="#1E57BE"><g><g><path d="M 7.824219 -4.25 C 7.824219 -3.128906 6.957031 -2.125 5.796875 -2.125 C 4.636719 -2.125 3.769531 -3.128906 3.769531 -4.25 C 3.769531 -5.371094 4.636719 -6.375 5.796875 -6.375 C 6.957031 -6.375 7.824219 -5.371094 7.824219 -4.25 Z M 10.722656 -8.503906 L 7.824219 -8.503906 L 7.824219 -7.476562 C 7.070312 -8.40625 5.988281 -8.714844 4.90625 -8.714844 C 2.492188 -8.714844 0.675781 -6.609375 0.675781 -4.25 C 0.675781 -1.894531 2.492188 0.191406 4.90625 0.191406 C 5.988281 0.191406 7.246094 -0.15625 7.824219 -1.023438 L 7.824219 0 L 10.722656 0 Z M 10.722656 -8.503906" transform="translate(216.906 141.605)"/></g></g></g><g fill="#1E57BE"><g><g><path d="M 6.59375 -10.546875 L 6.59375 -9.15625 L 4.921875 -8.34375 L 4.921875 -2.203125 L 6.59375 -1.390625 L 6.59375 0 L 0.390625 0 L 0.390625 -1.390625 L 2.046875 -2.203125 L 2.046875 -8.34375 L 0.390625 -9.15625 L 0.390625 -10.546875 Z M 6.59375 -10.546875" transform="translate(232.65 141.605)"/></g></g></g><g fill="#1E57BE"><g><g><path d="M 0.078125 4.019531 L 2.722656 4.019531 L 10.164062 -14.492188 L 7.496094 -14.492188 Z M 0.078125 4.019531" transform="translate(243.486 141.605)"/></g></g></g></svg>