<?xml version="1.0" encoding="UTF-8"?>
<svg width="339px" height="375px" viewBox="0 0 339 375" version="1.1" xmlns="http://www.w3.org/2000/svg" xmlns:xlink="http://www.w3.org/1999/xlink">
    <title>Untitled</title>
    <g id="Page-1" stroke="none" stroke-width="1" fill="none" fill-rule="evenodd">
        <g id="homelab" transform="translate(0.695312, 0.003906)" fill-rule="nonzero">
            <polyline id="path8" fill="#C7D0D8" points="337.5 180.109375 337.5 374.992188 0 374.992188 0 180.109375 168.75 82.6289058 337.5 180.109375"></polyline>
            <path d="M168.75,0 L0,97.4804688 L0,180.109375 L168.75,82.6289058 L337.5,180.109375 L337.5,97.4804688 C337.5,97.4804688 168.75,0 168.75,0" id="path10" fill="#9AA7B2"></path>
            <g id="g14" transform="translate(61.025063, 175.942780)" fill="#000000">
                <path d="M42.703125,56.3590641 C42.867187,54.7340641 42.953125,51.4840641 42.953125,46.6090641 C42.953125,41.7262521 42.867187,35.7457831 42.703125,28.6715641 C41.234375,28.5582831 39.796875,28.4332831 38.390625,28.2965641 C36.992187,28.1520331 35.566406,28.0778141 34.109375,28.0778141 C30.960937,28.0778141 27.929687,28.1520331 25.015625,28.2965641 C22.097656,28.4332831 19.207031,28.5582831 16.34375,28.6715641 C15.894531,28.8395331 15.398437,28.9489081 14.859375,28.9996891 C14.328125,29.0543761 13.726563,29.1676581 13.0625,29.3434391 C12.050781,29.3434391 10.421875,29.6793761 8.171875,30.3434391 C8.171875,31.4684391 8.15625,33.0309391 8.125,35.0309391 C8.101563,37.0231261 8.003906,39.1950021 7.828125,41.5465641 L7.828125,47.7809391 C7.828125,48.6246891 7.84375,49.3434391 7.875,49.9371891 C7.90625,50.5231261 8.003906,50.8981261 8.171875,51.0621891 L8.171875,52.0778141 C8.503906,53.0270331 8.503906,54.1207831 8.171875,55.3590641 C7.835937,56.3082831 6.519531,56.9528141 4.21875,57.2965641 C3.039063,57.2965641 2.195313,57.2301581 1.6875,57.0934391 C1.1875,56.9489081 0.9375,56.8200021 0.9375,56.7028141 C1.101563,54.3512521 1.085937,49.9762521 0.890625,43.5778141 C0.691406,37.1715641 0.59375,28.9176581 0.59375,18.8121891 C0.59375,18.1989081 0.578125,17.4606261 0.546875,16.5934391 C0.523437,15.7184391 0.425781,14.7184391 0.25,13.5934391 C0.082031,10.7301581 -1.42108547e-14,8.21843908 -1.42108547e-14,6.06218908 C-1.42108547e-14,3.89812608 0.082031,2.22625208 0.25,1.04656408 C0.25,0.652033077 0.476563,0.452814077 0.9375,0.452814077 C2.050781,0.570002077 3.054687,0.726252077 3.953125,0.921564077 C4.859375,1.12078308 5.703125,1.38640808 6.484375,1.71843908 C9.128906,2.05437608 10.113281,2.72625208 9.4375,3.73406408 C9.269531,3.73406408 9.054687,5.36687608 8.796875,8.62468908 C8.546875,11.8746891 8.335937,16.8121891 8.171875,23.4371891 L16,23.4371891 C16.507813,23.4371891 17.179687,23.4293761 18.015625,23.4059391 C18.859375,23.3746891 19.84375,23.2770331 20.96875,23.1090641 C24.28125,22.9450021 27.15625,22.7770331 29.59375,22.6090641 C32.039063,22.4332831 33.992187,22.2614081 35.453125,22.0934391 C35.617187,22.0934391 35.8125,22.0856261 36.03125,22.0621891 C36.257813,22.0309391 36.597656,21.9332831 37.046875,21.7653141 C38.234375,21.6520331 39.273437,21.5114081 40.171875,21.3434391 C41.066406,21.1793761 41.679687,21.0075021 42.015625,20.8278141 L42.359375,20.8278141 L42.359375,17.8903141 C42.359375,16.3707831 42.34375,14.8707831 42.3125,13.3903141 C42.289063,11.9020331 42.191406,10.0895331 42.015625,7.95281408 C41.847656,6.82781408 41.75,5.63640808 41.71875,4.37468908 C41.695313,3.11687608 41.6875,1.89031408 41.6875,0.702814077 C42.082031,0.038752077 42.421875,-0.156560923 42.703125,0.124689077 L48.25,1.04656408 C50.550781,1.38250208 51.535156,2.05437608 51.203125,3.06218908 C50.753906,4.52312608 50.375,9.07000208 50.0625,16.7028141 C49.75,24.3395331 49.59375,34.5856261 49.59375,47.4371891 C49.59375,48.7301581 49.609375,49.5739081 49.640625,49.9684391 C49.671875,50.3668761 49.769531,50.7301581 49.9375,51.0621891 C50.269531,52.0231261 50.269531,53.4528141 49.9375,55.3590641 C49.769531,55.8590641 49.375,56.2496891 48.75,56.5309391 C48.132813,56.8121891 47.4375,56.9528141 46.65625,56.9528141 C44.019531,56.9528141 42.703125,56.7575021 42.703125,56.3590641 Z" id="path12"></path>
            </g>
            <g id="g22" transform="translate(123.971813, 192.817469)" fill="#000000">
                <path d="M0,20.046875 C0.5,13.921875 2.585937,9.136719 6.265625,5.6875 C9.941406,2.230469 15.09375,0.335937 21.71875,0 C27.832031,0.335937 32.519531,2.230469 35.78125,5.6875 C39.039063,9.136719 40.804687,13.921875 41.078125,20.046875 C40.628906,26.496094 38.625,31.574219 35.0625,35.28125 C31.5,38.992187 26.40625,40.929687 19.78125,41.09375 C13.320313,40.648437 8.453125,38.601563 5.171875,34.953125 C1.890625,31.296875 0.164063,26.328125 0,20.046875 Z M21.71875,5.5625 C17.28125,5.730469 13.910156,7.164063 11.609375,9.859375 C9.304687,12.546875 8.070313,16.277344 7.90625,21.046875 C8.070313,25.539063 9.222656,29.03125 11.359375,31.53125 C13.492187,34.03125 16.609375,35.367187 20.703125,35.53125 C24.523437,35.367187 27.5,33.898437 29.625,31.125 C31.757813,28.34375 33.082031,24.539063 33.59375,19.703125 C33.425781,15.265625 32.359375,11.84375 30.390625,9.4375 C28.421875,7.023437 25.53125,5.730469 21.71875,5.5625 Z" id="path20"></path>
            </g>
            <g id="g30" transform="translate(174.125188, 191.801844)" fill="#000000">
                <path d="M0.578125,41.1875 C0.742188,39.667969 0.828125,37.523438 0.828125,34.75 C0.828125,31.96875 0.742188,28.164062 0.578125,23.328125 C0.410156,22.039062 0.3125,20.902344 0.28125,19.921875 C0.257812,18.945312 0.25,18.117188 0.25,17.4375 C0.132812,14.125 0.0625,11.011719 0.03125,8.09375 C0.007812,5.179688 0,2.820312 0,1.015625 L0.25,0.671875 C0.414062,0.507812 0.523438,0.355469 0.578125,0.21875 C0.640625,0.074219 0.753906,0 0.921875,0 L6.5625,1.015625 C9.144531,2.027344 10.125,2.789062 9.5,3.296875 C9.445312,3.632812 9.421875,3.964844 9.421875,4.296875 C9.367188,4.578125 9.34375,4.933594 9.34375,5.359375 C9.34375,5.777344 9.285156,6.183594 9.171875,6.578125 C10.128906,5.121094 11.421875,3.859375 13.046875,2.796875 C14.671875,1.726562 16.660156,1.355469 19.015625,1.6875 C21.992188,2.023438 24.550781,2.726562 26.6875,3.796875 C28.820312,4.859375 30.535156,6.574219 31.828125,8.9375 C33.171875,6.804688 34.953125,5.046875 37.171875,3.671875 C39.390625,2.296875 42.015625,1.527344 45.046875,1.359375 C49.816406,1.527344 53.4375,2.929688 55.90625,5.5625 C58.375,8.199219 59.46875,12.15625 59.1875,17.4375 C59.019531,20.917969 58.921875,24.117188 58.890625,27.03125 C58.859375,29.949219 58.84375,32.140625 58.84375,33.609375 L58.84375,34.609375 C59.019531,35.058594 59.117188,35.511719 59.140625,35.96875 C59.171875,36.417969 59.1875,36.726562 59.1875,36.890625 C59.351562,37.507812 59.453125,38.078125 59.484375,38.609375 C59.515625,39.140625 59.53125,39.664062 59.53125,40.171875 C59.1875,41.234375 57.863281,41.765625 55.5625,41.765625 C53.15625,41.765625 51.953125,41.683594 51.953125,41.515625 C51.953125,37.703125 51.9375,33.71875 51.90625,29.5625 C51.875,25.40625 51.773438,21.589844 51.609375,18.109375 C51.273438,10.640625 48.632812,6.90625 43.6875,6.90625 C40.882812,7.074219 38.625,8.125 36.90625,10.0625 C35.195312,12 34.175781,14.460938 33.84375,17.4375 C33.507812,19.574219 33.269531,21.710938 33.125,23.84375 C32.988281,25.96875 33.003906,28.015625 33.171875,29.984375 L33.171875,31.921875 C33.171875,32.421875 33.179688,33.011719 33.203125,33.6875 C33.234375,34.367188 33.332031,35.09375 33.5,35.875 C33.664062,36.71875 33.765625,37.523438 33.796875,38.28125 C33.828125,39.03125 33.84375,39.664062 33.84375,40.171875 C33.507812,41.234375 32.078125,41.765625 29.546875,41.765625 C27.128906,41.765625 25.921875,41.683594 25.921875,41.515625 L25.921875,17.4375 C25.753906,14.460938 25.023438,12.1875 23.734375,10.625 C22.441406,9.054688 20.535156,7.929688 18.015625,7.25 C13.460938,7.585938 10.175781,9.996094 8.15625,14.484375 C7.988281,18.308594 7.832031,21.835938 7.6875,25.0625 C7.550781,28.28125 7.484375,30.792969 7.484375,32.59375 C7.484375,33.09375 7.5,33.65625 7.53125,34.28125 C7.5625,34.898438 7.660156,35.542969 7.828125,36.21875 L7.828125,40.171875 C7.484375,41.234375 6.160156,41.765625 3.859375,41.765625 C1.671875,41.765625 0.578125,41.574219 0.578125,41.1875 Z" id="path28"></path>
            </g>
            <g id="g38" transform="translate(243.113063, 193.489344)" fill="#000000">
                <path d="M32.59375,21.390625 C22.707031,21.390625 14.484375,21.730469 7.921875,22.40625 C8.585937,29.480469 12.539063,33.183594 19.78125,33.515625 C22.257813,33.515625 24.675781,32.6875 27.03125,31.03125 C29.382813,29.375 31.460937,27.148438 33.265625,24.34375 C34.609375,22.65625 35.8125,23.527344 36.875,26.953125 C37.050781,28.070312 37.023437,29.203125 36.796875,30.359375 C36.566406,31.507812 36.035156,32.558594 35.203125,33.515625 C33.398437,35.652344 31.082031,37.324219 28.25,38.53125 C25.414063,39.730469 22.257813,40.246094 18.78125,40.078125 C13,39.578125 8.550781,37.605469 5.4375,34.15625 C2.320313,30.699219 0.507813,25.996094 0,20.046875 C0,7.359375 6.257813,0.679688 18.78125,0 C24.226563,0.167969 28.378906,1.78125 31.234375,4.84375 C34.097656,7.90625 35.867187,11.992188 36.546875,17.09375 C36.878906,19.625 35.5625,21.058594 32.59375,21.390625 Z M8.25,16.421875 C11.394531,16.421875 14.648437,16.339844 18.015625,16.171875 C21.390625,16.007812 24.816406,15.78125 28.296875,15.5 C27.953125,12.304688 26.96875,9.792969 25.34375,7.96875 C23.71875,6.136719 21.414063,5.136719 18.4375,4.96875 C15.125,5.136719 12.640625,6.261719 10.984375,8.34375 C9.328125,10.417969 8.414063,13.109375 8.25,16.421875 Z" id="path36"></path>
            </g>
            <g id="g46" transform="translate(99.705813, 293.569717)" fill="#000000">
                <path d="M4.875,56.685627 C2.46875,57.978596 1.265625,57.748127 1.265625,55.998127 C1.097656,54.209065 0.984375,51.826252 0.921875,48.857502 C0.867187,45.880939 0.757813,42.228596 0.59375,37.904377 C0.414063,36.103596 0.3125,34.529377 0.28125,33.185627 C0.257813,31.841877 0.25,30.693439 0.25,29.732502 C0.082031,25.755939 1.42108547e-14,21.560627 1.42108547e-14,17.154377 C1.42108547e-14,12.740315 0.082031,8.48250203 0.25,4.38875203 L0.25,1.43562703 C0.414063,0.935627033 0.664063,0.545002033 1,0.263752033 C1.34375,-0.0174979674 1.738281,-0.0721849674 2.1875,0.0918770326 L7.484375,1.10750203 C8.441406,1.27547103 9.160156,1.52937703 9.640625,1.87312703 C10.117187,2.20906503 10.273437,2.70906503 10.109375,3.37312703 C9.429687,4.49812703 8.820313,8.82234603 8.28125,16.341877 C7.75,23.865315 7.484375,34.138752 7.484375,47.170002 C7.828125,48.462971 8.585937,49.107502 9.765625,49.107502 C12.628906,48.931721 15.5625,48.662189 18.5625,48.295002 C21.5625,47.931721 24.210937,47.443439 26.515625,46.826252 C27.191406,46.662189 27.769531,46.591877 28.25,46.623127 C28.726563,46.646565 29.050781,46.826252 29.21875,47.170002 C30,48.287189 30.640625,49.349689 31.140625,50.357502 C31.648437,51.369221 31.988281,52.380939 32.15625,53.388752 C32.4375,54.013752 32.210937,54.326252 31.484375,54.326252 C27.503906,54.326252 23.675781,54.412189 20,54.576252 C16.320313,54.744221 13.25,54.994221 10.78125,55.326252 C10.4375,55.326252 10.082031,55.341877 9.71875,55.373127 C9.351563,55.404377 8.945313,55.505939 8.5,55.670002 C7.488281,55.837971 6.660156,56.005939 6.015625,56.170002 C5.367187,56.337971 4.988281,56.509846 4.875,56.685627 Z" id="path44"></path>
            </g>
            <g id="g54" transform="translate(137.147188, 293.109925)" fill="#000000">
                <path d="M38.734375,39.6297942 C34.628906,39.6297942 30.679688,39.7313572 26.890625,39.9266692 C23.109375,40.1141692 19.394531,40.4657312 15.75,40.9735442 C15.1875,42.7665132 14.59375,44.5047942 13.96875,46.1922942 C13.351562,47.8797942 12.707031,49.4266692 12.03125,50.8329192 C11.363281,52.2313572 10.675781,53.4501072 9.96875,54.4891692 C9.269531,55.5321382 8.554688,56.3016692 7.828125,56.8016692 C5.191406,57.2508882 3.253906,57.3641692 2.015625,57.1454192 C0.785156,56.9188572 0.113281,56.2391692 -2.84217094e-14,55.1141692 C0.113281,54.9501072 0.253906,54.6727632 0.421875,54.2860442 C0.585938,53.8915132 0.753906,53.2977632 0.921875,52.5047942 C2.097656,51.0477632 3.035156,49.6610442 3.734375,48.3485442 C4.441406,47.0282312 5.046875,45.8876072 5.546875,44.9266692 C8.359375,38.1376072 11.109375,31.1376072 13.796875,23.9266692 C16.492188,16.7079192 19.332031,9.1415132 22.3125,1.2235442 C25.007812,-0.514736799 28.097656,-0.401455799 31.578125,1.5672942 C34.546875,9.3172942 37.570312,16.9540132 40.65625,24.4735442 C43.75,31.9969812 46.953125,39.4579192 50.265625,46.8641692 C50.941406,48.4891692 51.585938,49.9813572 52.203125,51.3329192 C52.816406,52.6766692 53.378906,53.8290132 53.890625,54.7860442 C54.222656,55.2860442 54.191406,55.8485442 53.796875,56.4735442 C53.410156,57.0907312 52.570312,57.3954192 51.28125,57.3954192 C48.300781,57.3954192 46.207031,57.1141692 45,56.5516692 C43.789062,55.9891692 43.019531,55.2860442 42.6875,54.4422942 C42.570312,53.8797942 42.472656,53.1688572 42.390625,52.3016692 C42.304688,51.4266692 42.125,50.3758882 41.84375,49.1454192 C41.5625,47.9071382 41.179688,46.5008882 40.703125,44.9266692 C40.234375,43.3563572 39.578125,41.5907312 38.734375,39.6297942 Z M36.453125,33.7235442 C35.328125,30.0790132 33.960938,26.4891692 32.359375,22.9579192 C30.765625,19.4188572 29.070312,15.5672942 27.28125,11.4110442 C26.101562,14.2235442 24.753906,17.4852632 23.234375,21.1922942 C21.722656,24.8915132 19.984375,29.2977632 18.015625,34.4110442 C21.828125,34.4110442 25.234375,34.3446382 28.234375,34.2079192 C31.242188,34.0633882 33.984375,33.9032312 36.453125,33.7235442 Z" id="path52"></path>
            </g>
            <g id="g62" transform="translate(200.340751, 293.798591)" fill="#000000">
                <path d="M6.4765625,57.3786276 C4.2343755,59.3981586 2.5781255,59.1989406 1.5078125,56.7848776 C0.5585935,52.0153466 0.2499995,43.1208146 0.5859375,30.0973776 C0.5859375,28.1286276 0.6015625,25.9958146 0.6328125,23.6911276 C0.6640625,21.3903466 0.7617185,18.8083146 0.9296875,15.9411276 L0.9296875,7.6911276 C0.7617185,7.2458146 0.6484375,6.7380026 0.5859375,6.1755026 C0.5312495,5.6130026 0.4218755,4.9176906 0.2578125,4.0817526 C-0.0859375,2.6247216 -0.0859375,1.4176906 0.2578125,0.456752603 C0.5390625,-0.0510593974 1.6328125,-0.136997397 3.5390625,0.206752603 C3.7031255,0.206752603 3.8867185,0.222377603 4.0859375,0.253627603 C4.2812495,0.277064603 4.5234375,0.343471603 4.8046875,0.456752603 C5.4687495,0.624721603 6.0546875,0.780971603 6.5546875,0.925502603 C7.0624995,1.0622216 7.4921875,1.1286276 7.8359375,1.1286276 C12.6054685,0.171596603 16.8828125,-0.109653397 20.6640625,0.284877603 C24.4531255,0.683314603 27.8398435,1.5270646 30.8203125,2.8161276 C34.3515625,5.0583146 36.1171875,8.9020646 36.1171875,14.3473776 C35.9492185,17.3278466 35.1796875,19.8005026 33.8046875,21.7692526 C32.4296875,23.7301906 30.3398435,25.1872216 27.5390625,26.1442526 C31.3515625,26.9801906 34.1679685,28.5036276 35.9921875,30.7223776 C37.8124995,32.9411276 38.7265625,35.7067526 38.7265625,39.0192526 C38.7265625,44.3005026 36.8867185,48.1755026 33.2109375,50.6442526 C29.5312495,53.1130026 23.7929685,54.5973776 15.9921875,55.0973776 L15.0703125,55.0973776 C13.6640625,55.2145646 12.4804685,55.3434716 11.5234375,55.4880026 C10.5742185,55.6247216 9.7929685,55.8083146 9.1796875,56.0348776 C8.5624995,56.2536276 8.0429685,56.4801906 7.6171875,56.7067526 C7.1992185,56.9255026 6.8203125,57.1520646 6.4765625,57.3786276 Z M9.4296875,10.0505026 C9.2617185,12.1872216 9.1054685,14.4645646 8.9609375,16.8786276 C8.8242185,19.2965966 8.7578125,21.8473776 8.7578125,24.5348776 C15.5468755,24.7028466 20.6249995,23.8747216 23.9921875,22.0505026 C27.3671875,20.2301906 28.8828125,17.3239406 28.5390625,13.3317526 C28.8828125,10.1989406 27.7890625,8.0661276 25.2578125,6.9411276 C22.7343755,5.8161276 18.6679685,5.7614406 13.0546875,6.7692526 C12.2617185,6.9372216 11.5859375,7.3161276 11.0234375,7.9098776 C10.4609375,8.4958146 9.9296875,9.2067526 9.4296875,10.0505026 Z M8.1640625,35.0661276 C7.8281255,37.2536276 7.8281255,40.0895646 8.1640625,43.5661276 L8.1640625,47.1911276 C8.3906255,48.5348776 9.0390625,49.2067526 10.1015625,49.2067526 C17.3398435,49.3747216 22.6171875,48.7028466 25.9296875,47.1911276 C29.2421875,45.6715966 30.9804685,42.9489406 31.1484375,39.0192526 C31.3124995,35.8239406 30.0234375,33.5192526 27.2734375,32.1130026 C24.5234375,30.7067526 20.3398435,30.2614406 14.7265625,30.7692526 C12.6015625,30.9372216 10.9765625,31.4020646 9.8515625,32.1598776 C8.7265625,32.9215966 8.1640625,33.8903466 8.1640625,35.0661276 Z" id="path60"></path>
            </g>
        </g>
    </g>
</svg>