<svg xmlns="http://www.w3.org/2000/svg" width="375" viewBox="0 0 375 375" height="375" version="1.0"><path fill="#FFD51E" d="M 121.328125 81.476562 C 112.628906 81.476562 105.578125 88.359375 105.578125 96.851562 C 105.578125 105.34375 112.628906 112.226562 121.328125 112.226562 C 130.023438 112.226562 137.078125 105.34375 137.078125 96.851562 C 137.078125 88.359375 130.023438 81.476562 121.328125 81.476562"/><g fill="#FFF"><g><g><path d="M 97.996094 -0.113281 C 92.957031 -3.695312 90.828125 -5.601562 87.246094 -9.519531 L 88.367188 -10.75 C 92.285156 -6.832031 94.972656 -4.480469 99.003906 -1.34375 L 103.484375 -5.9375 C 99.789062 -8.511719 96.988281 -10.976562 92.957031 -15.007812 L 93.855469 -15.792969 C 97.101562 -12.65625 100.238281 -9.96875 104.605469 -6.945312 L 109.085938 -11.984375 C 101.132812 -17.472656 94.636719 -23.742188 89.820312 -30.800781 C 96.652344 -34.382812 103.039062 -38.863281 107.964844 -42.78125 L 89.261719 -57.679688 L 83.773438 -53.871094 L 87.46875 -50.734375 C 85.566406 -48.496094 83.886719 -46.703125 82.316406 -45.246094 C 80.191406 -50.511719 78.847656 -56.109375 77.839844 -62.269531 C 88.140625 -61.933594 97.550781 -61.039062 101.359375 -59.582031 L 107.40625 -71.230469 L 100.238281 -81.980469 L 94.191406 -78.621094 L 79.628906 -78.621094 L 85.117188 -84.222656 C 78.621094 -86.910156 69.664062 -90.269531 62.832031 -92.0625 L 54.320312 -84.335938 C 57.117188 -82.652344 60.03125 -80.75 62.71875 -78.621094 L 45.695312 -78.621094 L 40.207031 -81.980469 L 37.742188 -77.503906 C 38.75 -80.527344 39.3125 -83.214844 39.648438 -85.34375 L 22.175781 -91.949219 L 15.679688 -86.238281 L 20.273438 -83.101562 C 17.808594 -75.824219 10.863281 -60.589844 3.023438 -51.519531 L 4.367188 -43.679688 C 8.0625 -47.375 11.085938 -51.292969 12.878906 -54.320312 L 13.886719 -53.535156 C 11.648438 -50.0625 8.625 -46.03125 4.703125 -41.886719 L 5.710938 -34.160156 C 9.632812 -38.414062 15.121094 -46.03125 18.367188 -50.957031 L 19.597656 -49.949219 C 17.136719 -45.695312 10.078125 -36.960938 6.160156 -32.480469 L 7.617188 -24.527344 C 9.296875 -25.984375 10.640625 -27.773438 12.320312 -29.679688 L 12.320312 11.535156 L 17.246094 11.535156 L 17.246094 1.457031 L 19.039062 1.457031 L 19.039062 11.535156 L 24.304688 11.535156 L 24.304688 1.457031 L 26.320312 1.457031 L 26.320312 11.535156 L 31.808594 11.535156 L 31.808594 -19.039062 C 35.277344 -21.167969 37.96875 -22.960938 43.007812 -26.878906 L 43.902344 -25.535156 C 39.757812 -22.289062 37.183594 -20.496094 32.144531 -17.472656 L 35.054688 -12.542969 C 38.75 -15.121094 42.109375 -17.582031 45.246094 -20.160156 L 45.246094 -6.160156 C 42.894531 -5.601562 40.765625 -5.375 38.640625 -5.039062 L 46.703125 12.992188 C 58.796875 9.296875 68.320312 5.375 76.71875 1.457031 L 76.269531 -15.566406 C 81.535156 -6.71875 87.359375 -0.113281 93.964844 4.257812 Z M 31.808594 -62.269531 C 33.039062 -64.847656 34.046875 -67.308594 34.941406 -69.886719 L 40.765625 -59.582031 C 43.792969 -60.480469 49.167969 -61.261719 55.550781 -61.710938 C 51.40625 -52.191406 43.453125 -43.566406 31.808594 -35.613281 Z M 64.957031 -41.214844 C 67.984375 -31.695312 71.679688 -23.183594 76.160156 -15.679688 L 63.949219 -11.535156 L 63.949219 -39.648438 Z M 38.863281 -32.480469 L 39.535156 -31.695312 C 36.847656 -29.457031 34.269531 -27.550781 31.808594 -25.984375 L 31.808594 -27.773438 Z M 38.863281 -32.480469" transform="translate(224.017 210.188)"/></g></g></g><path transform="matrix(.75 0 0 .75 192.798 114.188)" fill="none" d="M 172.289558 127.852905 C 165.581225 123.076863 162.737475 120.52478 157.961433 115.311238 L 159.456224 113.670612 C 164.669766 118.884154 168.242683 122.019571 173.638517 126.21228 L 179.617684 120.08728 C 174.695809 116.660196 170.9406 113.378946 165.581225 107.983112 L 166.747891 106.92582 C 171.086433 111.118529 175.279142 114.691446 181.112476 118.738321 L 187.055184 112.029987 C 176.482267 104.701862 167.805183 96.352903 161.388516 86.946652 C 170.5031 82.17061 178.997892 76.191443 185.596851 70.941443 L 160.659349 51.113317 L 153.331224 56.181025 L 158.253099 60.373734 C 155.701016 63.326859 153.477057 65.733109 151.398932 67.665401 C 148.555182 60.665401 146.768723 53.191442 145.419765 44.988316 C 159.164558 45.425816 171.706225 46.628941 176.773934 48.561233 L 184.831226 33.029982 L 175.279142 18.701856 L 167.22185 23.186232 L 147.789557 23.186232 L 155.117682 15.712273 C 146.440598 12.139356 134.518723 7.654981 125.404139 5.24873 L 114.065596 15.566439 C 117.784347 17.790398 121.64893 20.342481 125.258305 23.186232 L 102.544762 23.186232 L 95.216637 18.701856 L 91.935387 24.681023 C 93.284345 20.634148 94.04997 17.061231 94.48747 14.217481 L 71.190593 5.394564 L 62.51351 13.014356 L 68.63851 17.207064 C 65.35726 26.904982 56.096842 47.212275 45.669758 59.316442 L 47.456217 69.774776 C 52.378092 64.821651 56.424968 59.608109 58.794759 55.561234 L 60.143718 56.618525 C 57.154134 61.248734 53.107259 66.644568 47.893717 72.144568 L 49.242675 82.462277 C 54.456217 76.774777 61.784343 66.644568 66.122885 60.045609 L 67.76351 61.394567 C 64.48226 67.082068 55.076009 78.707068 49.826009 84.686236 L 51.794759 95.295611 C 54.018717 93.363319 55.805176 90.957069 58.065593 88.441444 L 58.065593 143.384156 L 64.628093 143.384156 L 64.628093 129.93103 L 66.997885 129.93103 L 66.997885 143.384156 L 74.034344 143.384156 L 74.034344 129.93103 L 76.732261 129.93103 L 76.732261 143.384156 L 84.023928 143.384156 L 84.023928 102.623737 C 88.654136 99.779987 92.263512 97.373736 98.971845 92.160194 L 100.17497 93.946653 C 94.633303 98.285195 91.20622 100.654987 84.497886 104.701862 L 88.36247 111.264362 C 93.284345 107.837279 97.76872 104.556029 101.961429 101.128945 L 101.961429 119.795613 C 98.826012 120.52478 95.982262 120.816446 93.138512 121.290405 L 103.893721 145.316448 C 120.008305 140.394573 132.732264 135.181031 143.924973 129.93103 L 143.305182 107.253945 C 150.34164 119.029988 158.107266 127.852905 166.930183 133.686239 Z M 84.023928 44.988316 C 85.664553 41.524774 87.013511 38.243524 88.216636 34.816441 L 95.982262 48.561233 C 100.029137 47.358108 107.174971 46.300816 115.706221 45.717483 C 110.164554 58.404984 99.555179 69.92061 84.023928 80.493527 Z M 128.247889 73.056026 C 132.258306 85.743527 137.180181 97.08207 143.159348 107.108112 L 126.89893 112.613321 L 126.89893 75.134152 Z M 93.430178 84.686236 L 94.341637 85.743527 C 90.76872 88.733111 87.305178 91.248736 84.023928 93.363319 L 84.023928 90.957069 Z M 93.430178 84.686236" stroke="#A5E2FF" stroke-width="4.76"/><g fill="#FFF"><g><g><path d="M 103.710938 -62.160156 L 97.324219 -73.582031 L 91.839844 -69.773438 L 80.527344 -69.773438 C 85.789062 -74.703125 90.269531 -80.078125 93.292969 -85.007812 L 70.335938 -91.613281 L 66.300781 -86.460938 L 70.222656 -84 C 67.199219 -77.726562 64.847656 -74.140625 61.152344 -69.773438 L 47.488281 -69.773438 C 46.144531 -76.832031 43.34375 -83.214844 38.976562 -91.277344 L 19.9375 -83.550781 C 23.96875 -78.957031 26.992188 -75.148438 30.464844 -69.773438 L 18.03125 -69.773438 L 12.992188 -73.582031 L 7.617188 -62.160156 L 13.550781 -49.613281 C 23.296875 -53.3125 89.484375 -53.984375 98.222656 -49.613281 Z M 107.855469 -1.902344 L 101.246094 -13.328125 L 95.644531 -9.40625 L 14.335938 -9.40625 L 9.183594 -13.328125 L 3.582031 -1.902344 L 9.742188 11.085938 C 19.375 6.832031 93.628906 6.496094 102.253906 11.085938 Z M 96.988281 -32.703125 L 90.605469 -43.792969 L 85.117188 -39.984375 L 24.75 -39.984375 L 19.710938 -43.792969 L 14.335938 -32.703125 L 20.273438 -20.609375 C 30.015625 -24.304688 82.988281 -25.085938 91.503906 -20.609375 Z M 96.988281 -32.703125" transform="translate(224.017 333.188)"/></g></g></g><path transform="matrix(.75 0 0 .75 192.798 114.188)" fill="none" d="M 179.909351 209.13416 L 171.3781 193.894576 L 164.086433 198.962285 L 148.992682 198.962285 C 156.029141 192.399784 161.971849 185.217492 166.018725 178.654992 L 135.393723 169.832074 L 130.034347 176.7227 L 135.247889 180.00395 C 131.237472 188.352909 128.102056 193.128951 123.143722 198.962285 L 104.951012 198.962285 C 103.164554 189.556034 99.409345 181.061242 93.576012 170.306033 L 68.20101 180.587284 C 73.596844 186.712284 77.607261 191.816451 82.237469 198.962285 L 65.648926 198.962285 L 58.940593 193.894576 L 51.794759 209.13416 L 59.706218 225.832078 C 72.685385 220.910203 160.951016 220.035203 172.581225 225.832078 Z M 185.414559 289.446666 L 176.6281 274.24354 L 169.154142 279.457082 L 60.727051 279.457082 L 53.872884 274.24354 L 46.398925 289.446666 L 54.602051 306.800833 C 67.471843 301.113333 166.456225 300.675833 177.977059 306.800833 Z M 170.9406 248.39458 L 162.445808 233.592495 L 155.117682 238.696662 L 74.617677 238.696662 L 67.909343 233.592495 L 60.727051 248.39458 L 68.63851 264.509164 C 81.654136 259.587289 152.273932 258.529997 163.612475 264.509164 Z M 170.9406 248.39458" stroke="#A5E2FF" stroke-width="4.76"/><g fill="#F7FAFF"><g><g><path d="M 107.964844 -71.15625 L 101.585938 -82.679688 L 96.21875 -78.988281 L 78.652344 -78.988281 C 72.5 -84.246094 65.785156 -89.167969 61.421875 -91.519531 L 44.417969 -87.824219 C 47.101562 -85.253906 49.785156 -82.121094 52.359375 -78.988281 L 19.578125 -78.988281 L 14.542969 -82.679688 L 8.167969 -71.15625 L 12.753906 -63.882812 L 12.753906 -36.585938 C 12.753906 -20.136719 9.734375 -7.832031 2.910156 4.25 L 8.613281 6.824219 C 11.300781 2.015625 13.648438 -2.460938 15.550781 -7.382812 L 16.894531 -6.9375 C 16 -4.363281 12.082031 3.46875 9.957031 7.382812 L 14.992188 9.621094 C 17.566406 5.480469 19.804688 0.113281 21.929688 -4.8125 L 23.269531 -4.363281 C 21.59375 0.558594 19.914062 4.699219 16.445312 9.957031 L 21.816406 12.53125 C 28.195312 0.449219 32.332031 -15.105469 32.332031 -36.027344 L 32.332031 -60.863281 C 49.785156 -63.101562 85.253906 -62.875 102.59375 -59.296875 Z M 107.964844 -71.15625" transform="translate(38.824 116.685)"/></g></g></g><path transform="translate(9.87 25.782) scale(6.99251)" fill="none" d="M 19.581823 2.824274 L 18.667898 1.175747 L 17.902571 1.703097 L 15.386486 1.703097 C 14.507756 0.952853 13.546907 0.246182 12.925706 -0.0901157 L 10.492299 0.441145 C 10.874963 0.808725 11.261538 1.257867 11.629118 1.703097 L 6.941626 1.703097 L 6.218754 1.175747 L 5.308741 2.824274 L 5.964576 3.863332 L 5.964576 7.769297 C 5.964576 10.121143 5.531077 11.879162 4.554586 13.60925 L 5.371308 13.97683 C 5.757882 13.289153 6.09362 12.6484 6.36344 11.945081 L 6.554493 12.007648 C 6.429918 12.375229 5.867374 13.495847 5.566271 14.054481 L 6.285232 14.375136 C 6.652254 13.785219 6.972909 13.015423 7.277365 12.312662 L 7.468976 12.375229 C 7.230439 13.077989 6.988551 13.671817 6.491926 14.425972 L 7.261723 14.792994 C 8.171737 13.062348 8.765564 10.840104 8.765564 7.847505 L 8.765564 4.296832 C 11.261538 3.976735 16.332252 4.008018 18.812584 4.519727 Z M 19.581823 2.824274" stroke="#DB1414" stroke-width=".51"/><g fill="#F7FAFF"><g><g><path d="M 7.160156 -29.3125 L 9.621094 -37.257812 L 10.964844 -36.808594 L 8.726562 -28.976562 L 12.753906 -28.195312 C 13.3125 -29.3125 14.878906 -34.90625 15.105469 -36.25 L 16.445312 -35.800781 C 16.109375 -34.347656 14.65625 -29.089844 14.097656 -27.859375 L 19.019531 -26.515625 C 21.816406 -37.703125 23.496094 -49.339844 24.277344 -58.847656 L 24.835938 -63.324219 L 24.835938 -39.492188 C 24.835938 -26.851562 17.003906 -9.734375 4.8125 1.230469 L 10.179688 4.25 C 13.648438 1.007812 17.339844 -3.46875 20.363281 -8.390625 L 21.929688 -7.945312 C 19.355469 -3.582031 15.105469 1.34375 11.410156 4.8125 L 17.453125 7.832031 C 20.808594 4.8125 25.285156 -1.566406 27.96875 -5.929688 L 29.3125 -5.480469 C 26.851562 -0.335938 22.152344 5.929688 18.796875 8.949219 L 24.726562 11.972656 C 38.152344 -2.796875 44.304688 -19.132812 44.304688 -40.054688 L 44.304688 -41.730469 C 46.207031 -36.027344 47.882812 -30.765625 48.890625 -26.851562 L 54.820312 -29.648438 L 54.820312 7.160156 L 59.742188 7.160156 L 59.742188 -3.019531 L 61.308594 -3.019531 L 61.308594 7.160156 L 66.679688 7.160156 L 66.679688 -3.019531 L 68.46875 -3.019531 L 68.46875 7.160156 L 73.730469 7.160156 L 73.730469 -40.277344 C 75.40625 -35.019531 76.972656 -30.207031 77.867188 -26.738281 L 84.691406 -29.984375 L 84.691406 10.742188 L 89.503906 10.742188 L 89.503906 0.449219 L 91.519531 0.449219 L 91.519531 10.742188 L 96.777344 10.742188 L 96.777344 0.449219 L 98.902344 0.449219 L 98.902344 10.742188 L 103.824219 10.742188 L 103.824219 -84.917969 L 85.589844 -90.957031 L 80.890625 -83.351562 L 84.691406 -80.777344 L 84.691406 -57.28125 C 82.007812 -62.542969 79.546875 -66.792969 78.09375 -69.367188 L 73.730469 -67.238281 L 73.730469 -82.121094 L 55.605469 -88.160156 L 51.015625 -80.441406 L 54.820312 -77.867188 L 54.820312 -59.074219 C 52.582031 -63.4375 50.570312 -67.238281 49.226562 -69.367188 L 44.304688 -67.015625 L 44.304688 -84.691406 L 25.84375 -90.175781 L 21.035156 -83.015625 L 24.835938 -80.21875 L 24.835938 -67.910156 L 10.179688 -71.714844 L 7.273438 -65.898438 L 9.734375 -63.773438 L 9.175781 -60.75 C 7.71875 -47.996094 6.152344 -39.941406 2.910156 -30.097656 Z M 7.160156 -29.3125" transform="translate(38.824 235.558)"/></g></g></g><path transform="translate(9.87 25.782) scale(6.99251)" fill="none" d="M 5.164055 25.808685 L 5.515435 24.671866 L 5.707046 24.734433 L 5.386949 25.85561 L 5.964576 25.969012 C 6.042785 25.808685 6.26959 25.007604 6.300873 24.816552 L 6.491926 24.879119 C 6.445559 25.089724 6.238307 25.839968 6.156187 26.015379 L 6.859507 26.20699 C 7.261723 24.609299 7.500259 22.94513 7.613103 21.585975 L 7.691312 20.945223 L 7.691312 24.351769 C 7.691312 26.160065 6.574045 28.609114 4.828316 30.175521 L 5.597554 30.60958 C 6.09362 30.144797 6.62097 29.504044 7.050559 28.800725 L 7.277365 28.863292 C 6.910342 29.488402 6.300873 30.191163 5.773524 30.68723 L 6.636612 31.121288 C 7.117037 30.68723 7.757789 29.777216 8.140453 29.152105 L 8.332064 29.214672 C 7.980684 29.953185 7.308648 30.847557 6.828223 31.281057 L 7.67567 31.711205 C 9.597927 29.601805 10.476658 27.2656 10.476658 24.27356 L 10.476658 24.031113 C 10.749829 24.847835 10.988366 25.601432 11.133052 26.160065 L 11.980499 25.761759 L 11.980499 31.023527 L 12.683818 31.023527 L 12.683818 29.566611 L 12.910065 29.566611 L 12.910065 31.023527 L 13.675951 31.023527 L 13.675951 29.566611 L 13.933481 29.566611 L 13.933481 31.023527 L 14.683725 31.023527 L 14.683725 24.238366 C 14.925614 24.991963 15.148508 25.67964 15.277553 26.175707 L 16.254044 25.710924 L 16.254044 31.535235 L 16.941163 31.535235 L 16.941163 30.062678 L 17.230535 30.062678 L 17.230535 31.535235 L 17.980221 31.535235 L 17.980221 30.062678 L 18.285235 30.062678 L 18.285235 31.535235 L 18.988554 31.535235 L 18.988554 17.855422 L 16.379178 16.992333 L 15.707142 18.078316 L 16.254044 18.449249 L 16.254044 21.80887 C 15.866911 21.054715 15.51553 20.449156 15.308836 20.078224 L 14.683725 20.382679 L 14.683725 18.257638 L 12.093901 17.390639 L 11.437507 18.496174 L 11.980499 18.863196 L 11.980499 21.550781 C 11.660402 20.929581 11.37103 20.382679 11.179418 20.078224 L 10.476658 20.417873 L 10.476658 17.886705 L 7.835998 17.105736 L 7.14832 18.129152 L 7.691312 18.527458 L 7.691312 20.288829 L 5.597554 19.741927 L 5.179696 20.57429 L 5.531077 20.878745 L 5.452868 21.312245 C 5.246174 23.136741 5.019369 24.289202 4.554586 25.695282 Z M 5.164055 25.808685" stroke="#DB1414" stroke-width=".51"/><g fill="#FFF"><g><g><path d="M 50.539062 -1.554688 C 50.539062 4.660156 53.792969 7.324219 58.53125 7.324219 L 63.710938 7.324219 C 68.222656 7.324219 70.886719 5.179688 71.480469 -1.257812 C 71.699219 -4.515625 71.921875 -11.171875 72.144531 -15.019531 L 65.707031 -17.242188 C 65.707031 -14.871094 65.558594 -7.546875 65.335938 -5.253906 C 65.335938 -3.699219 62.894531 -3.699219 62.894531 -5.253906 L 62.894531 -27.15625 L 65.117188 -31.078125 L 59.046875 -37.441406 L 54.089844 -35.148438 L 43.878906 -35.148438 L 38.109375 -37.515625 L 31.597656 -31.597656 L 33.742188 -27.820312 L 33.742188 -19.3125 C 33.742188 -11.839844 31.226562 -5.476562 25.011719 1.628906 L 28.785156 3.847656 C 30.484375 1.851562 32.113281 -0.0742188 33 -2.070312 L 33.667969 -1.777344 C 32.558594 0.371094 31.449219 2.21875 29.671875 4.21875 L 32.558594 6.066406 C 34.113281 4.21875 35.445312 2.144531 36.628906 -0.148438 L 37.515625 0.222656 C 36.847656 1.925781 35.222656 4.515625 33.445312 6.585938 L 36.996094 8.65625 C 43.285156 0.960938 45.949219 -6.660156 45.949219 -19.3125 L 45.949219 -23.972656 C 47.355469 -24.492188 49.28125 -24.789062 50.539062 -23.972656 Z M 29.007812 -44.324219 L 25.453125 -51.5 L 22.640625 -49.355469 L 22.640625 -57.050781 L 10.210938 -60.378906 L 7.769531 -56.679688 L 10.210938 -54.832031 L 10.210938 -49.207031 L 8.804688 -49.207031 L 5.992188 -51.5 L 3.035156 -44.324219 L 6.289062 -36.628906 C 7.546875 -36.996094 8.804688 -37.367188 10.210938 -37.664062 L 10.210938 -36.847656 C 8.289062 -30.929688 5.625 -26.046875 2.21875 -22.125 L 2.886719 -17.757812 C 4.882812 -19.238281 6.957031 -21.753906 8.140625 -23.308594 L 8.507812 -22.421875 C 7.105469 -20.570312 5.179688 -18.277344 3.035156 -16.574219 L 3.625 -12.503906 C 5.699219 -14.207031 8.363281 -17.019531 10.210938 -19.683594 L 10.210938 -18.203125 C 8.433594 -15.761719 6.140625 -13.246094 3.847656 -11.46875 L 4.585938 -6.660156 C 6.585938 -8.507812 8.433594 -10.582031 10.210938 -13.46875 L 10.210938 7.398438 L 13.542969 7.398438 L 13.542969 1.554688 L 14.652344 1.554688 L 14.652344 7.398438 L 17.980469 7.398438 L 17.980469 1.554688 L 19.164062 1.554688 L 19.164062 7.398438 L 22.640625 7.398438 L 22.640625 -18.574219 L 25.75 -14.207031 L 31.152344 -26.488281 C 29.375 -28.042969 25.75 -31.597656 22.640625 -34.113281 L 22.640625 -37.738281 C 23.898438 -37.441406 25.011719 -37.070312 25.972656 -36.628906 Z M 70.8125 -46.320312 L 66.742188 -54.386719 L 63.265625 -51.871094 L 55.273438 -51.871094 L 58.605469 -55.273438 C 54.460938 -57.421875 48.984375 -59.34375 44.546875 -60.453125 L 38.996094 -55.347656 C 40.402344 -54.460938 42.101562 -53.277344 43.878906 -51.871094 L 34.851562 -51.871094 L 31.667969 -54.386719 L 28.265625 -46.320312 L 31.964844 -37.960938 C 38.253906 -40.328125 61.859375 -40.992188 67.335938 -37.960938 Z M 70.8125 -46.320312" transform="translate(31.585 335.822)"/></g></g></g><g fill="#FFF"><g><g><path d="M 4.734375 -19.386719 L 6.363281 -24.640625 L 7.25 -24.34375 L 5.773438 -19.164062 L 8.433594 -18.648438 C 8.804688 -19.386719 9.839844 -23.085938 9.988281 -23.972656 L 10.878906 -23.679688 C 10.65625 -22.714844 9.691406 -19.238281 9.324219 -18.425781 L 12.578125 -17.535156 C 14.429688 -24.9375 15.539062 -32.632812 16.058594 -38.921875 L 16.425781 -41.882812 L 16.425781 -26.121094 C 16.425781 -17.757812 11.246094 -6.4375 3.183594 0.8125 L 6.734375 2.8125 C 9.027344 0.664062 11.46875 -2.292969 13.46875 -5.550781 L 14.503906 -5.253906 C 12.800781 -2.367188 9.988281 0.886719 7.546875 3.183594 L 11.542969 5.179688 C 13.761719 3.183594 16.722656 -1.035156 18.5 -3.921875 L 19.386719 -3.625 C 17.757812 -0.222656 14.652344 3.921875 12.429688 5.917969 L 16.351562 7.917969 C 25.230469 -1.851562 29.300781 -12.652344 29.300781 -26.488281 L 29.300781 -27.601562 C 30.558594 -23.828125 31.667969 -20.347656 32.335938 -17.757812 L 36.257812 -19.609375 L 36.257812 4.734375 L 39.511719 4.734375 L 39.511719 -1.996094 L 40.550781 -1.996094 L 40.550781 4.734375 L 44.101562 4.734375 L 44.101562 -1.996094 L 45.285156 -1.996094 L 45.285156 4.734375 L 48.761719 4.734375 L 48.761719 -26.636719 C 49.871094 -23.160156 50.910156 -19.980469 51.5 -17.683594 L 56.015625 -19.832031 L 56.015625 7.105469 L 59.195312 7.105469 L 59.195312 0.296875 L 60.527344 0.296875 L 60.527344 7.105469 L 64.003906 7.105469 L 64.003906 0.296875 L 65.410156 0.296875 L 65.410156 7.105469 L 68.667969 7.105469 L 68.667969 -56.164062 L 56.605469 -60.15625 L 53.5 -55.125 L 56.015625 -53.425781 L 56.015625 -37.886719 C 54.238281 -41.363281 52.609375 -44.175781 51.648438 -45.875 L 48.761719 -44.472656 L 48.761719 -54.3125 L 36.777344 -58.308594 L 33.742188 -53.203125 L 36.257812 -51.5 L 36.257812 -39.070312 C 34.777344 -41.957031 33.445312 -44.472656 32.558594 -45.875 L 29.300781 -44.324219 L 29.300781 -56.015625 L 17.09375 -59.640625 L 13.910156 -54.902344 L 16.425781 -53.054688 L 16.425781 -44.914062 L 6.734375 -47.429688 L 4.808594 -43.582031 L 6.4375 -42.175781 L 6.066406 -40.179688 C 5.105469 -31.742188 4.070312 -26.417969 1.925781 -19.90625 Z M 4.734375 -19.386719" transform="translate(105.577 335.822)"/></g></g></g><path transform="matrix(.75 0 0 .75 18.354 272.822)" fill="none" d="M 85.03825 81.930238 C 85.03825 90.216697 89.371583 93.779198 95.684084 93.779198 L 102.595543 93.779198 C 108.616376 93.779198 112.158043 90.914614 112.954918 82.315655 C 113.241377 77.977113 113.533043 69.112529 113.845543 63.982321 L 105.246585 61.018779 C 105.246585 64.175029 105.053876 73.930238 104.762209 76.992738 C 104.762209 79.060447 101.512209 79.060447 101.512209 76.992738 L 101.512209 47.794819 L 104.449709 42.570861 L 96.382001 34.065652 L 89.757 37.128152 L 76.147624 37.128152 L 68.43929 33.971902 L 59.767415 41.872944 L 62.637207 46.904194 L 62.637207 58.253154 C 62.637207 68.221904 59.288248 76.701071 50.975748 86.169822 L 56.012206 89.128156 C 58.298665 86.45628 60.465332 83.904197 61.647623 81.232322 L 62.538248 81.638572 C 61.043457 84.482322 59.574707 86.961489 57.18929 89.612531 L 61.043457 92.091697 C 63.116373 89.612531 64.897624 86.867739 66.491374 83.805239 L 67.668457 84.289614 C 66.777832 86.555239 64.611165 90.023989 62.225748 92.789614 L 66.97054 95.539614 C 75.350749 85.279197 78.918458 75.11253 78.918458 58.253154 L 78.918458 52.034403 C 80.772625 51.336486 83.35075 50.95107 85.03825 52.034403 Z M 56.324706 24.91461 L 51.579914 15.326067 L 47.819497 18.195859 L 47.819497 7.935442 L 31.251788 3.50315 L 27.996579 8.414609 L 31.251788 10.893775 L 31.251788 18.388568 L 29.37158 18.388568 L 25.637204 15.326067 L 21.689287 24.91461 L 26.022621 35.154194 C 27.710121 34.669819 29.37158 34.190652 31.251788 33.779194 L 31.251788 34.862527 C 28.694496 42.763569 25.131996 49.268778 20.600746 54.492737 L 21.496579 60.320862 C 24.142413 58.346904 26.913246 54.997945 28.501788 52.930236 L 28.986163 54.10732 C 27.105954 56.565653 24.553871 59.622945 21.689287 61.88857 L 22.480954 67.331279 C 25.225746 65.065654 28.793454 61.310445 31.251788 57.742737 L 31.251788 59.721904 C 28.887205 62.997945 25.829913 66.341696 22.772621 68.706279 L 23.756996 75.11253 C 26.434079 72.654196 28.887205 69.883363 31.251788 66.055237 L 31.251788 93.878156 L 35.704913 93.878156 L 35.704913 86.070864 L 37.173663 86.070864 L 37.173663 93.878156 L 41.605955 93.878156 L 41.605955 86.070864 L 43.194497 86.070864 L 43.194497 93.878156 L 47.819497 93.878156 L 47.819497 59.237529 L 51.965331 65.065654 L 59.168456 48.690653 C 56.803873 46.617736 51.965331 41.872944 47.819497 38.523986 L 47.819497 33.680235 C 49.506998 34.065652 50.975748 34.576069 52.277831 35.154194 Z M 112.059085 22.242734 L 106.642418 11.4719 L 101.991376 14.846901 L 91.345542 14.846901 L 95.777834 10.294817 C 90.262209 7.451067 82.965333 4.872942 77.038249 3.404192 L 69.642416 10.195859 C 71.496582 11.37815 73.788249 12.966692 76.147624 14.846901 L 64.105957 14.846901 L 59.866373 11.4719 L 55.335123 22.242734 L 60.25179 33.393777 C 68.65804 30.237527 100.116376 29.346902 107.413251 33.393777 Z M 122.605961 58.154195 L 124.777836 51.143778 L 125.954919 51.529195 L 123.980961 58.445862 L 127.543461 59.143779 C 128.027836 58.154195 129.423669 53.216695 129.616378 52.034403 L 130.79867 52.41982 C 130.507003 53.721903 129.230961 58.346904 128.725753 59.430237 L 133.059086 60.612529 C 135.543462 50.758361 137.012212 40.497944 137.710128 32.117735 L 138.189295 28.16461 L 138.189295 49.16982 C 138.189295 60.320862 131.303878 75.42503 120.538252 85.086489 L 125.283044 87.758364 C 128.340336 84.89378 131.590336 80.940655 134.241378 76.607321 L 135.637212 76.992738 C 133.376795 80.846905 129.616378 85.180239 126.366378 88.23753 L 131.689295 90.914614 C 134.652836 88.23753 138.600753 82.628155 140.960129 78.773988 L 142.14242 79.159405 C 139.975753 83.711489 135.82992 89.227114 132.866378 91.898989 L 138.095545 94.550031 C 149.944504 81.544822 155.366379 67.138571 155.366379 48.690653 L 155.366379 47.195861 C 157.05388 52.227111 158.52263 56.878153 159.413255 60.320862 L 164.637213 57.867737 L 164.637213 90.310447 L 168.975755 90.310447 L 168.975755 81.326072 L 170.371589 81.326072 L 170.371589 90.310447 L 175.095547 90.310447 L 175.095547 81.326072 L 176.684089 81.326072 L 176.684089 90.310447 L 181.30909 90.310447 L 181.30909 48.471903 C 182.798673 53.122945 184.173673 57.35732 184.970548 60.41982 L 190.991382 57.550028 L 190.991382 93.466697 L 195.230965 93.466697 L 195.230965 84.383364 L 197.012216 84.383364 L 197.012216 93.466697 L 201.637216 93.466697 L 201.637216 84.383364 L 203.517424 84.383364 L 203.517424 93.466697 L 207.850758 93.466697 L 207.850758 9.112525 L 191.762215 3.789608 L 187.616382 10.487525 L 190.991382 12.773984 L 190.991382 33.487527 C 188.605965 28.841693 186.439298 25.107318 185.163256 22.82086 L 181.30909 24.69586 L 181.30909 11.5969 L 165.340338 6.247942 L 161.293463 13.065651 L 164.637213 15.326067 L 164.637213 31.898985 C 162.663255 28.07086 160.882005 24.69586 159.699713 22.82086 L 155.366379 24.91461 L 155.366379 9.305234 L 139.085128 4.487525 L 134.845545 10.800025 L 138.189295 13.258359 L 138.189295 24.117735 L 125.283044 20.747943 L 122.704919 25.878151 L 124.871586 27.75836 L 124.392419 30.430235 C 123.111169 41.680236 121.715336 48.784403 118.850752 57.456278 Z M 122.605961 58.154195" stroke="#FFC4D4" stroke-width="3.145"/><g fill="#FFF"><g><g><path d="M 69.851562 -39.511719 L 65.261719 -47.875 L 61.34375 -45.285156 L 43.878906 -45.285156 L 43.878906 -57.714844 L 29.375 -60.453125 L 27.007812 -56.457031 L 30.117188 -54.460938 L 30.117188 -45.285156 L 11.320312 -45.285156 L 7.769531 -47.875 L 3.921875 -39.511719 L 8.140625 -30.78125 C 10.878906 -31.816406 19.386719 -32.410156 29.226562 -32.78125 C 27.082031 -21.679688 19.832031 -13.320312 2.738281 -4.292969 L 5.699219 -0.371094 L 12.949219 -4.585938 L 13.613281 -3.921875 C 12.578125 -3.109375 8.289062 -0.445312 6.363281 0.519531 L 8.140625 3.109375 C 9.765625 2.292969 14.058594 -0.296875 15.539062 -1.40625 L 16.058594 -0.519531 C 14.871094 0.445312 10.210938 3.109375 8.804688 3.921875 L 11.320312 7.25 C 24.121094 0.148438 32.410156 -7.84375 37.441406 -16.722656 C 42.84375 -6.363281 51.203125 1.183594 62.746094 7.695312 L 65.558594 3.773438 C 62.894531 2.367188 60.824219 1.332031 58.382812 -0.148438 L 58.824219 -0.886719 C 61.269531 0.519531 63.042969 1.554688 66.078125 3.035156 L 68.296875 0.0742188 C 65.042969 -1.40625 63.117188 -2.441406 60.824219 -3.699219 L 61.34375 -4.441406 C 63.636719 -3.183594 65.632812 -2.21875 68.816406 -0.738281 L 71.554688 -4.660156 C 56.753906 -10.953125 48.394531 -18.5 43.65625 -32.855469 C 54.164062 -32.632812 63.339844 -31.964844 65.929688 -30.78125 Z M 69.851562 -39.511719" transform="translate(200.73 86.888)"/></g></g></g><g fill="#FFF"><g><g><path d="M 45.65625 -9.914062 L 45.65625 -6.511719 L 49.355469 -6.511719 L 49.355469 -9.914062 L 50.761719 -9.914062 L 50.761719 -6.511719 L 54.238281 -6.511719 L 54.238281 -10.804688 C 60.824219 -10.582031 66.226562 -10.285156 67.925781 -9.691406 L 70.8125 -16.722656 L 67.410156 -23.457031 L 64.523438 -21.3125 L 54.238281 -21.3125 L 54.238281 -26.195312 C 59.566406 -25.972656 63.785156 -25.824219 65.042969 -25.453125 L 68.296875 -32.113281 L 64.449219 -38.550781 L 61.195312 -36.480469 L 54.238281 -36.480469 L 54.238281 -40.550781 L 43.804688 -42.175781 L 41.734375 -38.996094 L 43.214844 -38.550781 L 43.214844 -36.480469 L 39.070312 -36.480469 L 42.324219 -43.214844 C 52.535156 -43.433594 63.859375 -43.140625 66.59375 -42.175781 L 69.40625 -49.207031 L 66.078125 -55.71875 L 63.191406 -53.574219 L 47.28125 -53.574219 L 49.652344 -58.457031 L 34.332031 -60.230469 L 31.667969 -57.125 L 34.703125 -55.941406 L 33.742188 -53.574219 L 29.078125 -53.574219 L 26.417969 -55.496094 L 23.605469 -49.207031 L 26.710938 -42.175781 C 27.230469 -42.324219 28.191406 -42.472656 29.449219 -42.621094 L 22.863281 -25.824219 C 25.453125 -26.046875 32.929688 -26.34375 40.917969 -26.34375 L 40.917969 -21.3125 L 27.894531 -21.3125 L 25.230469 -23.234375 L 22.421875 -16.722656 L 25.527344 -9.691406 C 27.601562 -10.285156 33.816406 -10.582031 40.917969 -10.804688 L 40.917969 -6.511719 L 44.398438 -6.511719 L 44.398438 -9.914062 Z M 8.65625 8.65625 C 12.800781 5.402344 15.835938 1.777344 17.242188 -0.664062 C 20.792969 5.84375 25.011719 6.214844 32.929688 6.808594 C 41.363281 7.398438 58.53125 7.769531 68.890625 6.808594 L 69.851562 2.886719 C 67.410156 3.402344 64.523438 3.476562 61.046875 3.699219 L 61.121094 2.664062 C 64.449219 2.441406 67.484375 2.21875 70.148438 1.628906 L 70.960938 -2.144531 C 68.296875 -1.257812 64.523438 -0.8125 60.972656 -0.59375 L 61.046875 -1.554688 C 64.375 -1.925781 68.074219 -2.441406 71.257812 -3.253906 L 71.996094 -6.957031 C 61.269531 -4.585938 39.808594 -4.734375 29.597656 -5.328125 C 24.34375 -5.699219 21.679688 -9.027344 21.679688 -15.390625 L 21.679688 -30.707031 L 24.34375 -34.039062 L 17.535156 -39.808594 L 14.355469 -36.554688 L 10.582031 -36.554688 L 7.03125 -39.808594 L 2.8125 -34.777344 L 5.476562 -24.863281 C 6.585938 -25.378906 8.289062 -25.824219 9.691406 -26.046875 L 9.691406 -15.464844 C 9.691406 -11.839844 7.992188 -8.363281 2.144531 -5.03125 Z M 3.402344 -52.980469 C 6.511719 -49.28125 11.320312 -43.140625 13.6875 -38.550781 L 23.605469 -48.394531 C 19.238281 -53.054688 15.6875 -56.164062 10.582031 -59.417969 Z M 3.402344 -52.980469" transform="translate(274.723 86.888)"/></g></g></g><path transform="matrix(.75 0 0 .75 187.5 23.888)" fill="none" d="M 110.786476 31.320583 L 104.666684 20.16954 L 99.437517 23.612249 L 76.145849 23.612249 L 76.145849 7.04454 L 56.807306 3.403914 L 53.651056 8.726831 L 57.791681 11.377873 L 57.791681 23.612249 L 32.744804 23.612249 L 28.000012 20.16954 L 22.869804 31.320583 L 28.505221 42.956 C 32.140638 41.581 43.484388 40.789333 56.614597 40.284125 C 53.744806 55.096626 44.088555 66.247668 21.302095 78.268503 L 25.229179 83.518503 L 34.911471 77.883086 L 35.802096 78.773711 C 34.406263 79.857044 28.697929 83.398711 26.119804 84.700795 L 28.505221 88.143503 C 30.671887 87.06017 36.380221 83.612253 38.35418 82.122669 L 39.052096 83.299753 C 37.463555 84.601836 31.250012 88.143503 29.369804 89.226837 L 32.744804 93.659129 C 49.796889 84.190378 60.854181 73.544544 67.572932 61.695585 C 74.776057 75.523711 85.901058 85.59142 101.296892 94.263295 L 105.052101 89.034128 C 101.510434 87.15392 98.7396 85.784128 95.4896 83.804961 L 96.067725 82.820586 C 99.317725 84.700795 101.703142 86.070586 105.750017 88.044545 L 108.713559 84.096628 C 104.354184 82.122669 101.8021 80.747669 98.7396 79.060169 L 99.437517 78.075794 C 102.500017 79.763294 105.145851 81.039336 109.385434 83.013295 L 113.046893 77.784128 C 93.322933 69.403919 82.171891 59.33621 75.85939 40.185167 C 89.854183 40.497667 102.088559 41.388292 105.557309 42.956 Z M 177.166689 70.77371 L 177.166689 75.331002 L 182.104189 75.331002 L 182.104189 70.77371 L 183.979189 70.77371 L 183.979189 75.331002 L 188.604189 75.331002 L 188.604189 69.596627 C 197.395857 69.883085 204.598982 70.294544 206.864607 71.065377 L 210.718774 61.695585 L 206.166691 52.737251 L 202.333357 55.575793 L 188.604189 55.575793 L 188.604189 49.075792 C 195.713565 49.362251 201.348982 49.554959 203.01044 50.060167 L 207.369816 41.17475 L 202.239607 32.596625 L 197.880232 35.367458 L 188.604189 35.367458 L 188.604189 29.924749 L 174.708355 27.758083 L 171.937522 31.997666 L 173.91148 32.596625 L 173.91148 35.367458 L 168.395855 35.367458 L 172.734397 26.383083 C 186.343773 26.096624 201.442732 26.482041 205.083357 27.758083 L 208.838566 18.38829 L 204.406274 9.716415 L 200.552107 12.580998 L 179.333356 12.580998 L 182.489606 6.054956 L 162.088563 3.695581 L 158.520854 7.836206 L 162.567729 9.403915 L 161.291688 12.580998 L 155.078146 12.580998 L 151.510437 10.002873 L 147.776062 18.38829 L 151.921895 27.758083 C 152.59377 27.565374 153.895854 27.372666 155.557312 27.179958 L 146.791687 49.554959 C 150.234395 49.268501 160.208354 48.883084 170.854188 48.883084 L 170.854188 55.575793 L 153.489604 55.575793 L 149.947937 53.023709 L 146.18752 61.695585 L 150.333354 71.065377 C 153.104187 70.294544 161.385438 69.883085 170.854188 69.596627 L 170.854188 75.331002 L 175.500022 75.331002 L 175.500022 70.77371 Z M 127.833352 95.539337 C 133.375019 91.200795 137.421894 86.362253 139.276061 83.107045 C 144.020853 91.804962 149.635437 92.284128 160.208354 93.081004 C 171.458355 93.877879 194.338565 94.357045 208.140649 93.081004 L 209.442733 87.851837 C 206.166691 88.52892 202.333357 88.648712 197.687523 88.940378 L 197.781273 87.539337 C 202.239607 87.252878 206.286482 86.961211 209.828149 86.169545 L 210.911483 81.133086 C 207.369816 82.315378 202.333357 82.914336 197.588565 83.206003 L 197.687523 81.929961 C 202.140649 81.445586 207.057316 80.747669 211.296899 79.664336 L 212.281274 74.726836 C 197.973982 77.883086 169.385438 77.690378 155.750021 76.893502 C 148.765645 76.414336 145.203145 71.956002 145.203145 63.476835 L 145.203145 43.04975 L 148.765645 38.622667 L 139.68752 30.914333 L 135.447936 35.273708 L 130.411477 35.273708 L 125.666685 30.914333 L 120.052102 37.633083 L 123.593769 50.857042 C 125.08856 50.159126 127.354185 49.554959 129.229186 49.268501 L 129.229186 63.383085 C 129.229186 68.221627 126.942727 72.846627 119.161477 77.278919 Z M 120.822935 13.351832 C 124.968769 18.289332 131.401061 26.482041 134.552103 32.596625 L 147.776062 19.471624 C 141.947936 13.258082 137.203144 9.112248 130.411477 4.778914 Z M 120.822935 13.351832" stroke="#057DCD" stroke-width="3.145"/></svg>