<svg width="150" height="125" fill="none" xmlns="http://www.w3.org/2000/svg"><path d="M133.337 73.692c0-.99-.242-.99-.249-1.978-.007-.989.078-.989.064-1.977-.014-.99.135-.996.071-1.985-.064-.989.648-1.046.584-2.042-.064-.995 0-1.002-.128-1.998s-.427-.96-.548-1.95c-.122-.988.057-1.01-.107-1.998-.164-.989-.634-.904-.805-1.878-.171-.975-.713-.868-.955-1.82-.242-.954.919-1.224.712-2.199-.206-.974-1.467-.661-1.745-1.6-.278-.94-.064-1.003-.342-1.95-.278-.946 1.033-1.351.712-2.311-.32-.96-.947-.712-1.275-1.679-.327-.967-.491-.875-.819-1.814-.328-.939-.428-.896-.798-1.82-.37-.925-.142-1.018-.52-1.935-.378-.918-.449-.89-.869-1.793-.421-.903-.969-.64-1.389-1.53-.421-.889.171-1.195-.307-2.07-.477-.874-.342-.946-.826-1.82-.485-.875-.791-.712-1.318-1.537s-.371-.939-.891-1.785c-.52-.847-.377-.94-.926-1.771-.548-.833-1.254-.356-1.817-1.167-.562-.81-.242-1.038-.805-1.857-.562-.818-.94-.54-1.538-1.323-.599-.782-.713-.71-1.325-1.465-.613-.754-.271-1.06-.912-1.814-.642-.754-.335-1.031-.991-1.785-.655-.754-1.196-.25-1.888-.953-.691-.704-.797-.605-1.489-1.316-.691-.711.129-1.544-.619-2.212-.748-.67-1.197-.185-1.931-.854s-.093-1.423-.855-2.056-1.368.064-2.137-.555c-.77-.618-.342-1.18-1.147-1.792-.805-.612-.77-.711-1.589-1.28-.819-.57-.89-.498-1.738-1.067-.848-.57-1.012-.313-1.888-.84-.876-.526-.848-.569-1.753-1.067-.904-.498-.933-.426-1.852-.896-.919-.47-1.204.12-2.137-.313-.933-.434-.67-1.039-1.646-1.423-.976-.384-.848-.711-1.86-1.045-1.011-.335-1.168.185-2.137-.093-.968-.277-1.061-.106-2.08-.348-1.019-.242-1.118.291-2.137.135-1.019-.157-1.005-.299-2.045-.377-.555-.043-1.083-.797-1.667-.676-.584.121-.997.96-1.503.967-1.019 0-1.019-.07-2.038 0-1.018.072-1.033-.12-2.044 0-1.012.121-1.105-.597-2.138-.455-1.032.143-1.032.057-2.037.25-1.005.191-.94.497-1.93.71-.991.214-1.027.043-2.01.285-.983.242-.855.711-1.81.989-.954.277-.79.832-1.723 1.138-.934.306-1.311-.797-2.259-.47-.947.328-.484 1.558-1.425 1.9-.94.341-.99.156-1.902.512-.912.355-1.425-.875-2.35-.491-.927.384-.65.996-1.554 1.423-.905.426-.826.562-1.717.995-.89.434-.869.484-1.745.932-.877.448-.998.235-1.881.712-.883.476-.84.526-1.71 1.01-.869.483-.548 1.024-1.425 1.536-.876.512-1.204-.057-2.037.491-.834.548-.926.412-1.746.989-.819.576-.59.889-1.424 1.465-.834.576-.905.462-1.703 1.067s-.884.505-1.66 1.138c-.777.633-.235 1.273-.983 1.928-.748.654-1.026.348-1.746 1.045s-.441.982-1.147 1.68c-.705.696-.591.817-1.282 1.528-.691.712-1.019.427-1.689 1.174-.67.747-.976.49-1.617 1.273-.64.783-.07 1.231-.662 2.042-.591.81-.492.882-1.055 1.707-.562.825-1.51.2-2.08 1.053-.57.853.05 1.23-.463 2.091-.513.86-1.332.413-1.824 1.316-.491.903.35 1.337-.078 2.248-.428.91-1.097.604-1.49 1.558-.39.953-.476.91-.868 1.863s-.257 1.003-.599 1.97c-.342.968 0 1.068-.335 2.042-.334.975-.327.968-.577 1.963-.249.996-.2 1.003-.384 2.013-.186 1.01.413 1.117.25 2.134-.165 1.017-.813.91-.948 1.935-.136 1.024-.45.996-.528 2.034-.078 1.039.485 1.06.456 2.084.016.69.07 1.38.164 2.063.057 1.025.506.996.613 2.006.107 1.01-.043 1.032.071 2.049.114 1.017-.285 1.081-.107 2.134.05.284 1.546.135 3.277-.22 0 0 2.729-.712 2.686-.933-.15-.867.577-.988.428-1.828-.15-.839.356-.91.263-1.75-.092-.839-1.425-.753-1.503-1.642a16.34 16.34 0 0 1 .121-1.772c0-.889 1.24-.84 1.311-1.693.071-.853-.399-.889-.314-1.757.086-.867-.712-.967-.612-1.856.1-.89.192-.868.349-1.743.157-.875.548-.797.748-1.657.2-.86.093-.89.356-1.736.264-.846.584-.754.87-1.586.284-.832.59-.711.89-1.55.3-.84.17-.876.506-1.694.335-.818.27-.839.64-1.643.371-.804.443-.768.87-1.55.427-.783.541-.712 1.005-1.423.463-.712-.321-1.224.142-1.992.463-.768.713-.583 1.247-1.33.534-.747.442-.782.962-1.508.52-.725 1.232-.178 1.788-.86.555-.684.206-.975.812-1.644.605-.669.897-.391 1.496-1.045.598-.655.456-.797 1.076-1.423.62-.626.62-.647 1.26-1.266.642-.62.5-.783 1.17-1.423.669-.64.306-1.024 1.01-1.6.706-.576 1.525.433 2.23-.107.706-.54.464-.868 1.183-1.423l1.482-1.031c.712-.512.356-1.088 1.119-1.593.762-.506.52-.883 1.31-1.36.791-.476 1.54.783 2.323.342.784-.44.556-.853 1.346-1.301.791-.449.5-1.01 1.311-1.423.812-.413 1.076.092 1.888-.313.812-.405.713-.64 1.546-1.017.834-.377 1.111.242 1.952-.114.84-.356.335-1.55 1.197-1.9.862-.348.84-.398 1.703-.71.862-.314 1.353.981 2.201.675.848-.306.549-1.202 1.425-1.48.876-.277.755-.654 1.631-.917.877-.263 1.197.854 2.052.612s.784-.555 1.66-.754c.876-.2.748-.775 1.632-.932.883-.156.933.107 1.81 0 .875-.107.975.612 1.83.505.855-.107.876 0 1.731 0 .855 0 .84-.548 1.703-.548.862 0 .87-.306 1.738-.284l.05-.05a1.239 1.239 0 0 0 .84.44c.856.058.806.535 1.632.634.827.1 1.062-1.259 1.93-1.095.87.163.834.313 1.682.547.848.235.499 1.423 1.304 1.686.805.263.955-.15 1.767.15.812.298 1.132-.463 1.959-.121.826.341.805.39 1.603.79.798.398.634.71 1.425 1.159.79.448.833.341 1.61.796.776.456.57.783 1.325 1.26.755.476.57.753 1.304 1.266.733.512.833.37 1.553.924.72.555.783.463 1.489 1.032.705.569.648.633 1.346 1.216.698.583.563.711 1.233 1.344.669.633 1.282-.05 1.966.576.684.627.449.847 1.097 1.494.648.648.712.584 1.354 1.245.641.662 0 1.238.598 1.928s.919.398 1.518 1.088c.598.69.299.939.854 1.657.556.719.713.57 1.297 1.288.584.718.591.711 1.133 1.423.541.71.712.611 1.239 1.358.528.747.984.441 1.511 1.195.527.754-.613 1.494-.136 2.255.478.761.82.562 1.304 1.337.485.776.435.797.884 1.587.448.79 1.054.462 1.496 1.273.441.81.847.597 1.239 1.422.392.826-.947 1.48-.555 2.29.391.812.847.613 1.189 1.46.342.846.955.59 1.311 1.422s-.164 1.053.171 1.906c.335.854.549.768.855 1.636.306.868-.356 1.081-.057 1.942.299.86 1.496.484 1.76 1.366.263.882.32.868.584 1.757.263.889-1.126 1.245-.912 2.134.214.889 1.133.661 1.339 1.557.207.897.592.819.756 1.729.163.91-.969 1.11-.813 2.006.157.896.528.832.627 1.743.1.91.713.832.798 1.742.086.91-.142.94-.064 1.85.078.91-.67.974-.613 1.878.057.903-.064.903 0 1.806.065.904.513.89.52 1.807.008.918.328.91.335 1.821 0 .25 3.021.498 3.021.498 1.767-.156 2.821-.327 2.821-.604Z" fill="#000"/><path d="M105.218 74.97c0-.59-.249-.576-.284-1.167-.036-.59.042-.59 0-1.18-.043-.591.149-.605.099-1.189-.05-.583.647-.66.59-1.258-.057-.597 0-.604-.05-1.202-.049-.597-.391-.548-.476-1.138-.085-.59.107-.619 0-1.209-.107-.59-.569-.513-.711-1.097-.142-.583-.711-.47-.789-1.047-.078-.576 1.017-.83.882-1.406-.135-.576-1.422-.288-1.55-.857-.128-.57.071-.626-.093-1.195-.163-.57 1.152-.935.974-1.518-.177-.584-.789-.394-.981-.963-.192-.57-.341-.52-.54-1.082-.199-.563-.249-.549-.455-1.111-.206-.562.036-.654-.185-1.209-.22-.555-.27-.541-.498-1.097-.227-.555-.789-.316-1.023-.857-.235-.541.369-.808.121-1.357-.25-.548-.121-.604-.384-1.138-.263-.534-.612-.366-.882-.886s-.114-.604-.384-1.131c-.27-.528-.142-.59-.42-1.11-.276-.521-1.016-.12-1.3-.626-.285-.506.064-.703-.235-1.202-.299-.5-.647-.303-.945-.802-.299-.499-.42-.421-.711-.92-.292-.5.1-.703-.207-1.223-.305-.52.057-.703-.255-1.202-.313-.5-.932-.099-1.237-.584-.306-.485-.441-.4-.754-.878s.654-1.097.334-1.575-.882-.112-1.194-.59c-.313-.478.483-.991.163-1.47-.32-.477-1.102.043-1.422-.428-.32-.47.27-.85-.05-1.328-.32-.478-.248-.52-.575-1.005-.327-.485-.42-.436-.76-.921-.342-.485-.584-.323-.947-.815-.362-.492-.334-.52-.71-1.013-.377-.492-.448-.45-.853-.934-.406-.485-.89-.085-1.323-.549-.433-.463.043-.927-.426-1.405-.47-.478-.235-.703-.782-1.181-.548-.478-.875-.042-1.422-.457-.548-.415-.654-.295-1.259-.668-.604-.372-.853.063-1.471-.239-.619-.302-.576-.414-1.23-.703-.349-.14-.498-.913-.924-.906-.427.007-.903.773-1.23.703-.432-.132-.871-.24-1.316-.324-.668-.098-.647-.26-1.322-.33s-.647-.703-1.344-.703c-.696 0-.71-.077-1.372-.035-.66.042-.646.358-1.3.45-.655.091-.712-.12-1.337 0-.626.12-.555.57-1.166.703-.611.133-.483.703-1.074.857-.59.155-.938-.928-1.55-.703-.61.225-.177 1.406-.71 1.617-.534.21-.647 0-1.216.246s-1.095-1.005-1.678-.752c-.583.253-.284.836-.839 1.096-.554.26-.476.4-1.01.703-.532.302-.518.316-1.051.598-.534.28-.654.063-1.188.351-.533.288-.505.337-1.03.64-.527.302-.214.808-.712 1.131-.497.323-.867-.239-1.379.085-.512.323-.59.217-1.094.562-.505.344-.278.654-.761 1.005-.484.352-.59.218-1.08.576-.491.359-.57.246-1.053.619-.483.372.057 1.012-.405 1.406-.462.393-.711.077-1.173.477-.462.401-.17.703-.619 1.097-.448.394-.341.506-.775.914-.433.407-.76.07-1.18.499-.42.428-.71.133-1.159.562-.447.429.128.935-.277 1.406-.405.47-.284.534-.675.984-.391.45-1.273-.288-1.664.175-.39.464.142.893-.234 1.357-.377.464-1.124-.098-1.493.387-.37.485.383 1.026 0 1.532-.384.506-.939.105-1.287.64-.349.534-.42.477-.754 1.026-.334.548-.242.597-.554 1.16-.313.562-.043.702-.334 1.272-.292.569-.313.562-.583 1.152-.27.59-.185.633-.427 1.244-.242.612.384.823.185 1.406-.2.583-.832.464-1.003 1.132-.17.667-.497.611-.597 1.314-.1.703.42.766.391 1.47.024.47.071.939.142 1.405.05.703.526.703.64 1.363.018.472.07.942.157 1.406.177.703-.214.822.035 1.525.078.204 1.493-.288 3.107-.984.86-.38 1.7-.801 2.517-1.265-.128-.38.519-.597.448-.942-.072-.344.334-.442.291-.78-.043-.337-1.422-.183-1.479-.625-.056-.443.142-.43.142-.858 0-.429 1.287-.33 1.316-.703.028-.372-.37-.478-.299-.892.071-.415-.71-.633-.597-1.09.114-.457.164-.443.327-.9.163-.456.505-.323.71-.759.207-.435.08-.492.307-.934.227-.443.533-.282.775-.703.241-.422.504-.281.76-.703.256-.422.1-.513.377-.935.277-.422.192-.47.483-.886.292-.414.363-.372.711-.787.349-.414.441-.323.775-.703.334-.38-.37-.963-.035-1.405.334-.443.576-.218.924-.619.348-.4.263-.478.626-.864.362-.387 1.002.196 1.358-.19.355-.387.063-.661.433-1.04.37-.38.668-.078 1.045-.436.377-.359.22-.527.612-.886.39-.358.37-.372.76-.703.391-.33.25-.52.654-.857.406-.338.043-.773.47-1.104.426-.33 1.237.703 1.642.373.405-.33.178-.633.604-.942.427-.31.434-.295.867-.59.434-.296 0-.88.477-1.174.476-.296.206-.661.66-.95.456-.287 1.245.97 1.693.704.448-.267.206-.703.668-.928.462-.225.142-.822.612-1.082.469-.26.71.245 1.208 0 .498-.247.356-.471.832-.703.476-.232.775.386 1.251.175.477-.21-.05-1.405.441-1.574.49-.169.462-.267.96-.443.497-.176.96 1.118 1.422.97.462-.148.184-1.054.675-1.188.49-.133.384-.513.882-.632.497-.12.746.998 1.208.9.462-.1.405-.408.882-.486.476-.077.405-.618.888-.703.484-.084.498.247.96.226.462-.022.455.702.875.744.419.043.419.134.824.197.405.064.49-.436.903-.33.413.105.49-.225.903-.091v-.036c.043.218.085.408.277.485.377.169.206.549.548.703.341.155 1.023-1.054 1.422-.815.398.239.305.372.71.633.406.26-.398 1.243-.07 1.518.326.274.632 0 .973.267.342.267.946-.267 1.287.105.341.373.32.394.654.78.334.387.043.619.363 1.027.32.407.405.337.71.766.306.428 0 .632.335 1.061.334.429.05.619.355 1.069.306.45.455.35.768.815.313.464.405.407.711.878.306.471.249.513.562.977.313.464.17.563.483 1.026.313.464 1.06 0 1.365.45.306.45.057.626.37 1.097.313.47.384.407.71.878.328.471-.433.928-.142 1.406.292.478.669.246.953.703.285.457-.064.703.228 1.153.291.45.476.351.76.822.285.47.306.457.583.928.278.47.484.351.754.822s.76.21 1.024.703c.263.492-.896 1.09-.647 1.56.249.471.611.296.86.773.249.478.228.486.462.963.235.479.874.183 1.11.668.234.485.639.302.86.801.22.5-1.152 1.076-.946 1.56.206.486.64.31.839.802.199.492.803.26 1.002.76.2.498-.348.702-.17 1.187.177.485.419.422.59.928.17.506-.505.703-.349 1.216.157.513 1.422.147 1.536.668.114.52.213.506.341 1.026.128.52-1.216.85-1.102 1.363.114.513 1.052.31 1.159.837.107.527.498.45.597.977.1.527-1.024.738-.938 1.258.085.52.433.464.512.99.078.528.654.45.71.985.057.534-.199.57-.135 1.096.064.528-.668.612-.618 1.139.05.527-.071.534 0 1.061.071.528.533.5.562 1.034.028.534.348.52.376 1.054 1 .121 2.008.173 3.015.155 1.777-.07 2.822-.218 2.815-.38Z" fill="#000"/><path d="M84.325 74.53c0-.277-.26-.263-.28-.54-.022-.275.055-.283 0-.566-.057-.284.168-.298.14-.574-.028-.277.701-.355.63-.638-.07-.284.064-.29.036-.574-.028-.284-.337-.248-.372-.525-.035-.276.162-.311.12-.595-.043-.284-.492-.213-.534-.49-.042-.276-.596-.19-.638-.467-.042-.276 1.087-.468 1.045-.709-.042-.24-1.311-.056-1.36-.333-.05-.276.16-.312.105-.588-.056-.277 1.262-.532 1.206-.815-.056-.284-.701-.15-.736-.425-.035-.277-.225-.242-.288-.518-.063-.276-.112-.262-.175-.539-.063-.276.196-.333.126-.61-.07-.275-.112-.261-.175-.538-.063-.276-.646-.12-.702-.397-.056-.276.575-.44.498-.709-.077-.269.063-.311 0-.58-.063-.27-.449-.17-.526-.44-.077-.27.091-.32 0-.588-.091-.27.063-.32 0-.589-.063-.27-.862 0-.947-.283-.084-.284.288-.39.197-.66-.091-.269-.477-.127-.561-.396-.085-.27-.225-.213-.316-.475s.344-.425.246-.709c-.099-.283.294-.418.196-.709-.098-.29-.779 0-.87-.262-.091-.262-.245-.206-.35-.46-.106-.256.946-.71.834-.957-.112-.249-.701 0-.828-.263-.126-.262.758-.63.639-.893-.12-.262-.961.12-1.073-.142-.113-.262.519-.545.4-.8-.12-.256-.043-.298-.169-.553-.126-.256-.203-.22-.33-.475-.126-.255-.378-.128-.505-.383-.126-.255-.084-.27-.217-.524-.133-.256-.182-.22-.309-.475-.126-.255-.701.042-.806-.206-.105-.248.456-.567.323-.815-.134-.248.175-.425.042-.709-.134-.283-.59 0-.744-.255-.154-.255-.273-.191-.442-.468-.168-.276-.582 0-.764-.283-.183-.284-.077-.369-.288-.652-.112-.15.288-.766.042-.844-.245-.078-.96.39-1.094.255-.273-.262-.217-.326-.526-.588-.308-.262-.203-.411-.568-.652-.365-.24-.147-.588-.316-.9 0-.057-.056-.128-.161-.177a7.742 7.742 0 0 0-.87-.447c-.47-.142-.54.163-.975.071-.434-.092-.4-.276-.834-.326-.435-.05-.442.44-.828.432-.386-.007-.365.575-.701.596-.337.021-.47-1.127-.849-1.078-.379.05-.14 1.34-.456 1.418-.315.078-.358-.142-.701-.064-.344.078-.652-1.226-.982-1.127-.33.1-.133.709-.442.815-.309.107-.252.255-.547.383-.295.128-.274.17-.568.298-.295.127-.407-.12-.702 0-.294.12-.266.191-.554.34-.287.149 0 .673-.28.815-.28.142-.596-.418-.877-.248-.28.17-.344.043-.617.22-.274.177-.07.489-.316.708-.245.22-.357.05-.61.241-.252.192-.35.071-.603.27-.253.198.28.843.056 1.042-.224.198-.491-.085-.701.12-.21.206.049.51-.162.709-.21.198-.112.319-.322.539-.21.22-.554-.1-.758.134-.203.234-.519-.035-.701.213-.183.248.364.709.175.943-.19.233-.063.333-.245.58-.183.249-1.102-.403-1.284-.134-.182.27.372.631.218.9-.155.27-.968-.226-1.137.057-.168.284.646.709.491 1.014-.154.304-.75-.043-.897.255-.148.297-.225.255-.365.545-.14.291-.042.34-.161.645-.12.305.147.412 0 .71a6.386 6.386 0 0 0-.26.595c-.098.311 0 .326-.126.637-.127.312.498.482.414.78-.085.298-.702.142-.793.46-.091.32-.42.249-.491.575-.07.326.449.418.407.709-.042.29.098.34.056.659s.442.369.42.709c-.02.34-.154.304-.168.623-.014.32-.462.312-.477.638 1.066.133 2.141.166 3.213.1l1.403-.05c.468.001.937-.025 1.402-.078 0-.213.702-.206.702-.397 0-.191.449-.177.456-.361.007-.185-1.361-.312-1.34-.532.021-.22.168-.198.196-.404.028-.206 1.235 0 1.277-.199.042-.198-.393-.276-.35-.474.041-.199-.786-.397-.702-.61.084-.212.091-.198.154-.411.063-.213.407-.092.463-.298.056-.205 0-.234.05-.432.048-.199.406-.07.476-.262.07-.192.35-.078.442-.255.091-.178-.07-.263 0-.447s0-.234.091-.425c.091-.192.168-.142.274-.326.105-.184.252-.093.357-.27.105-.177-.638-.659-.512-.843.127-.184.365 0 .491-.184.127-.185 0-.248.169-.419.168-.17.813.376.94.22.126-.156-.197-.432-.064-.595.134-.163.45.128.59 0 .14-.128 0-.305.119-.454.119-.149.112-.177.273-.312.162-.134 0-.319.148-.46.147-.142-.204-.567-.035-.71.168-.141.974.894 1.129.78.154-.113-.085-.446.077-.566a3.45 3.45 0 0 1 .344-.213c.168-.107-.204-.709 0-.822.203-.114-.05-.51.147-.61.196-.099.89 1.205 1.059 1.12.168-.085 0-.51.14-.61.14-.099-.084-.673.112-.758.197-.085.4.44.582.362.183-.078.099-.326.295-.383.197-.057.4.595.582.538.183-.056-.161-1.304.05-1.36.21-.057.182-.107.378-.15.197-.042.442 1.326.59 1.305.147-.021 0-.957.196-.971.196-.014.14-.397.301-.404.162-.007.12 1.148.204 1.148.084 0 .126-.326.203-.312.077.014.21-.553.309-.524.098.028 0 .276.042.305.042.028 0 .042 0 .092a3.01 3.01 0 0 1-.155.368c-.04.07-.076.144-.105.22 0 0-.042.106 0 .142.042.035.372-.34.442-.263.07.078.316-.141.414 0h.035c-.112.15-.239.298-.19.362.05.064-.259.383-.168.517.091.135 1.256-.623 1.368-.44.112.185 0 .27.112.469.112.198-.954.822-.835 1.034.12.213.505 0 .625.213.119.213.855-.184.982.036.126.22.09.24.21.46.12.22-.21.397-.098.624.112.227.21.17.322.397.113.227-.203.383-.09.61.112.226-.176.361-.07.58.104.22.266.157.37.376.106.22.197.185.302.419.106.233 0 .255.134.489.133.233-.056.29.042.517.098.227.912-.113 1.01.12.098.234-.175.348-.084.582.09.234.19.191.287.425.099.234-.701.553-.631.787.07.234.484.085.568.319.084.233-.294.375-.21.61.084.233.294.155.371.396.078.241.113.22.197.46.084.242.308.157.379.398.07.24.603.063.7.312.1.248-1.163.63-1.086.864.077.234.456.12.526.362l.12.482c.07.24.743.05.813.29.07.241.49.128.554.376.063.248-1.354.617-1.298.858.056.24.512.127.575.368.063.241.702.092.75.333.05.241-.483.376-.427.617.056.24.309.191.365.432.056.241-.624.39-.575.631.049.241 1.297 0 1.346.248.05.248.113.234.162.49.049.254-1.319.495-1.277.708.042.213.96.085 1.003.34.042.255.428.185.463.44.035.255-1.087.418-1.052.666.035.248.372.198.407.446.035.248.603.17.63.426.029.255-.23.283-.203.531.028.248-.7.334-.7.575 0 .24-.092.262-.071.51.021.248.512.198.533.453.021.255.344.22.365.475 0 .064 2.967-.092 2.967-.092a12.85 12.85 0 0 0 2.72-.361Zm-4.648 22.025c-1.025.579-.87.8-1.76 1.509-.43.38-.622.587-.84.773a4.39 4.39 0 0 0-.75.85 12.26 12.26 0 0 0-1.35 1.804 1.923 1.923 0 0 1-.763.894 1.537 1.537 0 0 0-.707.958c-.17.551-.268.823-.34 1.095a9.587 9.587 0 0 0-.254 1.109c-.099 1.123.156 1.151.163 2.239a16.559 16.559 0 0 0-.07 2.218c.054.378.2.736.423 1.044.214.305.376.643.481 1.001.29 1.052.862.852 1.244 1.825a1.535 1.535 0 0 1 0 1.23 1.294 1.294 0 0 0 .078 1.281c.664 1.001 1.689.157 2.325.937.23.249.436.519.615.808.168.3.39.565.657.78.75.665-.078 1.724.799 2.382.31.223.687.331 1.067.308.366-.019.73.066 1.053.243.612.276 1.24.515 1.88.715.919.372.933.344 1.866.658.933.315.855.544 1.802.802.947.257.961.186 1.915.357.954.172 1.032-.443 1.965-.343.933.1.884.758 1.845.801.961.043.954.186 1.915.165.961-.022.968-.422 1.937-.523a18.71 18.71 0 0 0 1.993-.128c.487-.093.749-.115 1.003-.143a4.195 4.195 0 0 0 1.011-.194c.996-.314.707-1.115 1.654-1.502.947-.386 1.116-.079 2.056-.637s.707-.951 1.534-1.681c.29-.247.542-.536.749-.858l.269-.393v-.043a.552.552 0 0 1 .056-.086c.177-.272.439.157.516 0 0 0 0-.036 0 0s.142.15.198.257c.057.108.113.229.163.244.049.014.099-.716.374-.644h.248l.367.064c.305.033.605.096.898.186.876.236.608 1.352 1.541 1.574.933.222 1.067-.472 2.007-.322.94.15.827 1.094 1.83 1.18 1.004.086 1.046-.88 2.022-.88.975 0 1.01.716 2.035.601.509-.043.77-.071 1.032-.078.352-.02.702-.068 1.046-.143a5.624 5.624 0 0 0 1.032-.294c.247-.1.502-.179 1.003-.35 1.011-.344.898-.637 1.859-1.052a17.9 17.9 0 0 0 1.88-.951 18.423 18.423 0 0 0 1.711-1.274c.826-.715.41-1.166 1.145-1.903.735-.736 1.236-.329 1.908-1.237.671-.909.947-.715 1.484-1.781.184-.351.085-.237.057-.294l-.142-.129c-.099-.093-.198-.221-.169-.293a.109.109 0 0 1 0-.036c.07-.064 0-.157.183-.2.184-.043 0-.129.262-.329.211-.23.483-.394.784-.472.863-.251.905-.107 1.774-.386.467-.158 1.181.35 1.619.035.438-.314.473-1.252.897-1.43.863-.387.898-.315 1.753-.759a18.156 18.156 0 0 0 1.781-.851 1.79 1.79 0 0 1 1.039-.322c.384.013.758-.129 1.039-.393a14.667 14.667 0 0 0 1.59-1.431c.253-.273.45-.594.58-.944.129-.349.3-.681.509-.988.472-.587.891-1.217 1.251-1.881a2.17 2.17 0 0 0 .205-1.166 3.387 3.387 0 0 1 .106-1.173c.226-1.145-.326-1.23-.262-2.332.064-1.102 1.152-1.281.912-2.583a1.44 1.44 0 0 0-.355-.639 1.41 1.41 0 0 0-.621-.377 1.725 1.725 0 0 1-1.038-.815c-.523-.98-.347-1.102-1.032-2.017a1.782 1.782 0 0 1-.288-.638 1.778 1.778 0 0 1-.023-.7c.04-.257.011-.52-.085-.76a1.428 1.428 0 0 0-.46-.607 2.138 2.138 0 0 0-1.3-.465c-.189 0-.378-.015-.565-.043a2.123 2.123 0 0 1-.333-.071h-.134c-.162-.057-.275.086-.487.064h-.121c-.084 0-.063 0-.07-.064a.647.647 0 0 1 0-.165c0-.236.268-.314.247-.558v-.193l-.064-.307c-.042-.18-.07-.322-.106-.465a9.83 9.83 0 0 0-.318-1.116 1.702 1.702 0 0 0-.664-.959 2.47 2.47 0 0 1-.707-.858c-.502-.945.036-1.288-.593-2.218a14.114 14.114 0 0 0-1.343-1.767 2.259 2.259 0 0 0-.947-.6 4.421 4.421 0 0 1-.976-.523c-.431-.322-.636-.508-.855-.68a3.755 3.755 0 0 0-.912-.622 13.237 13.237 0 0 0-2.014-1.002c-1.116-.293-1.307.487-2.318.344a3.662 3.662 0 0 1-1.018-.294 2.021 2.021 0 0 0-1.053-.229c-1.06 0-1.018.465-2.028.587-.655.146-1.3.338-1.93.572-.94.308-1.109-.157-2.042.236-.322.142-.667.22-1.018.23-.354.008-.7.11-1.004.293-.89.515-.494 1.158-1.3 1.702-.24.186-.184.322-.445.551-.262.229-.396-1.145-.438-1.095a3.744 3.744 0 0 0-.135.602c0 .143-.063.293-.099.422a.794.794 0 0 1-.056.171c0 .057-.043.1-.043.05a.241.241 0 0 1 0-.1c.021-.318.066-.633.135-.944.063-.33.134-.601.134-.615 0-.015-.127.236-.262.45-.134.215-.296.394-.36.286-.064-.107 0-.293.12-.45.12-.158.106-.143.142-.215.035-.071 0-.114-.057-.215a2.433 2.433 0 0 0-.205-.314 18.318 18.318 0 0 0-1.477-1.681 16.971 16.971 0 0 0-1.816-1.295c-.948-.594-1.089-.344-2.071-.837a15.237 15.237 0 0 0-2.05-.83 13.636 13.636 0 0 0-2.212-.38c-1.131-.092-1.152.537-2.205.566-1.053.029-1.145-.6-2.234-.386-1.088.214-1.173-.1-2.233.286s-.82.901-1.767 1.43a13.94 13.94 0 0 0-1.71 1.31c-.3.22-.532.522-.665.873a2.58 2.58 0 0 1-.586.908c-.368.372-.544.565-.75.715a3.98 3.98 0 0 0-.706.809 3.07 3.07 0 0 1-.778.787 1.892 1.892 0 0 0-.706.872c-.142.287 1.152 1.038 2.763 1.746l1.308.494a5.06 5.06 0 0 0 1.357.407.654.654 0 0 1 .6-.357.806.806 0 0 0 .615-.287.659.659 0 0 1 .509-.307.871.871 0 0 0 .53-.258c.368-.379-.551-1.43 0-1.852.552-.422.615-.265 1.166-.601.552-.337 1.11.837 1.598.63.487-.208.388-.616.947-.76.558-.142.438-.95 1.067-1.008a7.03 7.03 0 0 1 1.23.064c.615.086.537.458 1.109.602a7.83 7.83 0 0 1 1.166.321c.559.287.382.601.884.916.502.315.304.6.749.98s.544.28.933.715l.12.15.163.187c.155.179.261.358.388.508.198.372.375.765.707 1.566.552 1.91.488 2.032 1.053 4.142.467 1.789.481 2.347.827 3.842l.255-.28A8.785 8.785 0 0 0 117.1 89a8.097 8.097 0 0 1 1.131-2.11 5.955 5.955 0 0 1 1.067-1.073c.409-.33.786-.698 1.124-1.102a13.763 13.763 0 0 1 2.205-2.253c.587-.387 1.046.336 1.597 0 .552-.337.368-.716.969-.959.6-.243.749.157 1.328-.036.58-.193.537-.379 1.138-.493.395-.068.794-.11 1.195-.129.202 0 .403-.037.593-.107.193-.077.404-.097.608-.058.594.072.671-.45 1.272-.3.29.107.325.465.332.816.007.35 0 .715.22.83a.837.837 0 0 0 .565.085.7.7 0 0 1 .572.143c.16.105.309.225.446.358.099.107.219.179.417.393.395.401.911-.057 1.314.43.403.486.707.257 1.039.837.163.279-.141.593-.417.865s-.565.522-.509.759a.776.776 0 0 0 .347.407c.073.045.14.1.197.165a.497.497 0 0 1 .078.121c0 .043.036 0 0 .115v.279a2.896 2.896 0 0 0 .241 1.48c.168.473.207.982.113 1.474a5.911 5.911 0 0 1-.389 1.388 8.214 8.214 0 0 0-.502 1.288c.262.086.541.108.813.064.686-.02 1.371-.081 2.049-.186a6.984 6.984 0 0 1 1.866-.093h.417c.03.035.053.073.071.115.025.093.04.19.042.286 0 .214 0 .379.106.486.106.108.417-.078.707-.229.29-.15.629-.272.813-.064.255.277.475.585.657.916.248.53-1.074 1.023-.975 1.352.099.329 1.004.207.996.715-.007.508.354.58.241 1.173-.113.594-1.237.222-1.414.716-.177.493.071.65-.24 1.158a.948.948 0 0 0-.12.673.805.805 0 0 1-.184.715c-.452.494-.643.301-1.124.716-.48.415-.954-.151-1.449.2-.383.212-.777.403-1.18.572-.594.315-.382.766-1.039 1.066-.657.301-.551.587-1.258.844v.058a1.03 1.03 0 0 0-.848-.1c-.742.236-.869-.201-1.618 0-.75.2-.227 1.537-1.598 1.895-1.145.301-1.378.215-2.396.487a2.6 2.6 0 0 0-.113.336 1.414 1.414 0 0 1-.975.98 1.902 1.902 0 0 0-.587.379 4.363 4.363 0 0 0-.431.587c-.247.479.127.715-.198 1.209-.325.493.29 1.015-.162 1.523-.321.319-.661.618-1.018.895-.558.414-.756.114-1.322.479-.565.365-.53.436-1.152.715-.622.279-.756-.05-1.413.158a1.14 1.14 0 0 1-.707.036 1.687 1.687 0 0 0-.664 0c-.218.048-.43.114-.636.2a1.658 1.658 0 0 1-.665.171c-.467.09-.939.15-1.413.179a13.408 13.408 0 0 1-1.414-.129c-.707-.057-.707-.236-1.413-.329-.707-.093-.877.766-1.633.609-.756-.158-.707-.458-1.413-.659a5.178 5.178 0 0 0-.757-.171l-.311-.065h-.106l-.183-.057-.446-.143c-1.321-.486-1.307-1.431-2.827-2.032a4.13 4.13 0 0 0-1.3-.336c-.304 0-.608-.064-1.018-.086a2.588 2.588 0 0 1-.148.48c-.573 1.538-.87 1.209-1.534 2.861l-.219.565-.156.251-.077.121a1.095 1.095 0 0 0-.057.193.723.723 0 0 1-.261.43 6.03 6.03 0 0 1-.841.672c-.509.293-.389.522-.983.787s-.403.787-1.081 1.001c-.34.115-.608-.178-.848-.45s-.474-.558-.806-.501c-.65.129-.594.536-1.286.615-.47.05-.942.073-1.414.072-.707 0-.742.715-1.505.715-.764 0-.785.415-1.555.344-.77-.072-.58-1.567-1.272-1.682-.693-.114-.792.329-1.499.172-.706-.157-.876.465-1.583.229-.706-.236-.494-.78-1.145-1.037-.65-.258-.756-.043-1.364-.387-.608-.343-.24-.951-.777-1.302-.537-.35-1.315.659-1.852.179l-.53-.465a4.195 4.195 0 0 1-.509-.493c-.452-.558.608-1.431.332-1.867-.155-.215-.417-.222-.706-.244-.29-.021-.566-.043-.707-.343-.22-.601-.622-.451-.799-1.123-.106-.329.142-.565.396-.78.255-.215.495-.422.445-.715 0-.608-.43-.58-.41-1.224.022-.643-.544-.665-.501-1.345.148-.643.353-.608.55-1.201.199-.594.898-.315 1.082-.823.186-.285.399-.551.636-.794a.846.846 0 0 0 .12-.537.624.624 0 0 1 .177-.536c.396-.293.19-.594.665-.844a7.019 7.019 0 0 0-.51-1.431l-.565-1.43c-.735-1.489-1.385-2.333-1.675-2.175Z" fill="#000"/><path d="M83.274 97.824c-.079-.113-.271 0-.35-.106-.078-.107 0-.163-.092-.276-.093-.113.085-.22 0-.34-.086-.12.549-.481.485-.594-.065-.113 0-.163-.043-.269-.043-.106-.335 0-.392-.1-.058-.098.128-.211.07-.332-.056-.12-.484.071-.541-.056-.057-.128-.578.092-.635-.043-.057-.134 1.049-.558.999-.707-.05-.149-1.277.311-1.327.177-.05-.135.164-.212.122-.354-.043-.141 1.262-.524 1.226-.644-.036-.12-.67.043-.713-.085-.043-.127-.192-.092-.221-.233-.028-.142-.086-.12-.121-.255-.036-.134.22-.184.207-.318-.015-.135-.065-.128-.079-.262-.014-.134-.62-.05-.642-.198-.021-.149.642-.22.635-.354-.007-.134.135-.148.128-.276-.007-.127-.399-.106-.413-.247-.014-.142.17-.149.17-.284 0-.134.158-.134.158-.268 0-.135-.835-.142-.835-.283 0-.142.407-.128.414-.27.007-.14-.406-.162-.392-.303.014-.142-.136-.156-.128-.297.007-.142.492-.092.513-.227.021-.134.442-.078.463-.205.022-.127-.713-.255-.713-.396 0-.142-.114-.163-.085-.304.028-.142 1.155.113 1.176 0 .022-.114-.634-.29-.591-.425.042-.134.962.142.998 0 .035-.141-.863-.403-.827-.538.035-.134.713.106.755 0 .043-.106.129-.077.179-.19.05-.114-.05-.15 0-.262.05-.114-.214-.234-.157-.347.057-.113.1-.092.157-.198.057-.106 0-.142.05-.255.05-.113-.478-.417-.407-.53.072-.114.656.24.713.141.057-.099.364.085.428 0s-.356-.39-.285-.488c.071-.1 0-.177 0-.276 0-.099-.314-.417-.214-.516.1-.1.2 0 .292-.093.093-.091.613.383.556.241-.057-.141-.627-.778-.577-.828.05-.05.164-.035.264-.127s.235.05.335-.042c.1-.092.556.452.656.374.1-.077.164 0 .264-.07s-.086-.319 0-.396c.085-.078.214.084.328 0 .114-.085-.15-.46 0-.531.15-.07-.179-.552-.058-.63.122-.077.714.941.813.885.1-.057-.492-1.196-.363-1.267.128-.07.228.128.356.064.129-.064.713 1.174.806 1.132.093-.043-.143-.644 0-.707.143-.064.057-.213.185-.262.129-.05.107-.092.236-.135.128-.042.214.213.335.17.121-.042.114-.085.242-.12.128-.036 0-.602.121-.63.122-.028.286.616.407.587.121-.028.157.106.278.1.121-.008.071-.404.2-.418.128-.014.156.156.285.134.128-.02.142.135.27.135.129 0 .072-.828.215-.835.142-.007.15.39.278.382.128-.007.135-.41.27-.403.136.007.143-.135.286-.128.142.007.107.474.242.474.136 0 .079.446.2.46.121.014.22-.707.364-.707.142 0 .156-.135.292-.106.135.028-.107 1.146 0 1.174.107.028.27-.623.4-.594.127.028-.136.934-.044.976.093.043.4-.856.52-.813.122.042-.127.707 0 .707.13 0 .072.12.172.17.1.05.135-.043.235 0 .1.042.236-.212.343-.163.107.05.078.092.17.141.093.05.122 0 .207.057.086.057.442-.467.528-.396.086.07-.335.601-.27.644.063.042-.18.325-.144.36.036.036.407-.339.45-.29.043.05.142-.056.178 0 .036.057.428-.247.463-.198.036.05-.1.128-.07.177.028.05-.393.248-.379.283l3.045-1.153a26.89 26.89 0 0 0 2.574-1.132c-.107-.276.549-.58.399-.891-.15-.311.243-.517 0-.835-.242-.319-1.362.495-1.54.262-.178-.234-.071-.326-.264-.538-.192-.212.713-1.083.464-1.309-.25-.226-.542.128-.763-.063-.221-.192-.749.488-.956.34-.206-.15-.192-.17-.399-.312-.207-.142 0-.446-.228-.573-.228-.128-.264-.036-.485-.142-.221-.106-.05-.417-.271-.523-.221-.106-.093-.39-.32-.496-.229-.106-.293.05-.529 0-.235-.05-.27 0-.499-.07-.228-.071-.206-.156-.442-.234-.235-.078-.185-.233-.428-.297-.242-.064-.463.807-.712.757-.25-.05-.165-.346-.393-.396-.228-.05-.25.064-.485 0s-.107-.891-.349-.927c-.242-.035-.292.39-.528.368-.235-.021-.206-.432-.456-.439-.25-.007-.25.213-.492.206a3.56 3.56 0 0 0-.478 0c-.242 0-.235.247-.463.254-.228.007-.207.566-.428.58-.22.015-.342-1.287-.592-1.252-.25.036-.185.432-.42.467-.236.035-.243 0-.478.05s-.1.707-.32.778c-.222.07-.13.488-.336.53-.207.043-.578-1.415-.813-1.33-.235.085-.107.517-.328.587-.22.071 0 .708-.235.765-.235.056-.4-.46-.613-.382-.214.077-.122.325-.335.41-.214.085-.478-.552-.714-.46-.235.092.307 1.26.115 1.358-.193.1-.164.15-.364.248-.2.1-.834-1.132-1.055-1.019-.221.114.25.927.064 1.04-.185.113 0 .453-.178.566-.179.114-.806-.842-1.013-.707-.207.134 0 .41-.185.552-.186.141.157.601 0 .707-.157.106-.35-.078-.528.057-.178.134-.649-.41-.827-.248-.178.163-.264.07-.442.234-.178.162.164.523 0 .707-.164.184.064.396-.093.566v.042c-.17-.085-.35-.17-.435-.084-.085.085-.499-.12-.663.056-.164.177.927 1.09.792 1.26-.136.17-.25.084-.392.261-.143.177-1.148-.544-1.298-.346-.15.198.242.452.114.65-.128.199.606.644.485.835-.121.191-.143.17-.25.361-.107.191-.428 0-.527.22-.1.219 0 .247-.107.452-.107.205-.435.043-.52.255-.087.212-.372.092-.464.304-.093.212.078.283 0 .495-.079.213 0 .248-.057.46-.057.212-.143.191-.207.41-.064.22-.235.17-.3.39-.064.22.813.445.763.65-.05.206-.342.15-.385.361-.043.213.05.234 0 .446s-.898.064-.934.297c-.035.234.392.283.364.503-.029.219-.45.17-.478.403-.028.233.207.24.193.467-.015.226 0 .226 0 .445 0 .22.22.234.214.453-.008.22.563.227.563.439s-1.312.226-1.312.46c0 .233.413.212.428.431v.446c0 .226.713.163.713.375s.47.163.499.368c.028.205-1.426.41-1.426.637 0 .226.499.148.535.368.035.219.713.091.713.297 0 .205-.5.325-.45.537.05.213.307.156.35.368.042.212-.606.39-.542.602.064.212 1.305-.15 1.362.049.057.198.12.177.185.375.064.198-1.24.658-1.162.877.078.22.97-.127 1.04.071.072.198.436.057.521.248.086.19-.962.65-.862.856.1.205.406.056.499.254.092.198.613-.056.713.128.1.184-.136.311 0 .502.135.191-.528.552-.414.75.114.198 0 .255.136.453.135.198.549-.078.67.106s.392 0 .52.184c.036.049 2.503-1.67 2.503-1.67l1.669-1.217c.272-.083.533-.2.777-.346ZM8.573 71.152a3.012 3.012 0 0 0-1.109.449c-.263.142-.505.313-1.017.57a9.807 9.807 0 0 0-1.92 1.181c-.824.748-.966.612-1.685 1.481-.718.869-1.258.527-1.813 1.588-.256.548-.398.811-.519 1.096a5.521 5.521 0 0 0-.398 1.154 2.93 2.93 0 0 0-.078 1.245c.048.414.069.83.064 1.246v1.268c-.022.434.023.868.135 1.288.37 1.253.818 1.09 1.358 2.172.54 1.082 1.102.712 1.82 1.545a1.674 1.674 0 0 1 .406 1.217 1.369 1.369 0 0 0 .576 1.189 1.315 1.315 0 0 0 1.343.078 1.597 1.597 0 0 1 1.273-.092c.334.139.66.298.974.477.322.187.673.317 1.038.384a.857.857 0 0 1 .228.071.37.37 0 0 1 .071.079.712.712 0 0 1 .092.242c.036.21.036.424 0 .633a3.675 3.675 0 0 1-.127.4s.412-.635.554-.67c.142-.036.17-.1.17-.085 0 .014.043 0 0 .063-.042.065 0 .129.05.3a.135.135 0 0 1-.042.142v.306l.064.363c.076.315.19.618.341.904.203.387.441.754.711 1.097.261.345.541.676.84.99a1.82 1.82 0 0 0 1.066.605c.384.061.748.21 1.066.434.875.576.548 1.16 1.472 1.637.925.477.853.563 1.728.912.875.349.981-.05 1.792.235.81.284.76.448 1.593.712.832.263.803.412 1.685.647.882.235 1.08-.576 1.97-.391.888.185.838.562 1.784.712.946.149.989-.313 1.941-.278a17.693 17.693 0 0 0 1.934-.221c.975-.114 1.081.349 2.098.129 1.017-.221 1.138.135 2.133-.257a1.45 1.45 0 0 0 .818-.776c.148-.34.396-.628.71-.826a11.555 11.555 0 0 0 1.608-1.352 1.62 1.62 0 0 1 1.187-.335h.306c.093 0 .228-.05.256 0 .029.05.178.064.213 0 .036-.064-.34-.655-.241-.854.042-.079.135.092.227.327.093.235.228.712.228.712s-.1-1.096.1-.99c.198.107.099.242.078.428a2.116 2.116 0 0 1-.036.249v.043s-.057 0 0 .042c.091.061.189.112.291.15.598.283 1.21.535 1.835.755.967.277.995.185 1.984.398.988.214 1.052-.107 2.069 0l1.024.079c.345.024.692.024 1.038 0a13.13 13.13 0 0 0 2.133-.293 1.57 1.57 0 0 0 .96-.526c.24-.275.55-.48.896-.591.96-.335 1.216.299 2.197-.164.33-.167.682-.29 1.045-.363a2.352 2.352 0 0 0 1.038-.449c.918-.712.584-1.089 1.38-1.843.274-.26.514-.554.71-.876.157-.235.314-.47.634-.933.618-.947.192-1.196.654-2.207.213-.512.341-.762.448-1.018.163-.336.278-.693.341-1.06.114-.578.889-1.119.775-1.773-.114-.655-.981-1.04-1.045-1.56a10.618 10.618 0 0 0-.377-2.136c-.122-.35-.227-.706-.313-1.067a4.415 4.415 0 0 0-.142-.442.967.967 0 0 0-.05-.128v-.036l.057.114-.035-.078c-.157-.235.583-.377.519-.449-.064-.07 0-.042 0-.05 0-.007.142-.042.177-.092.036-.05-.234-.17-.128-.313l.057-.064.178-.228.292-.342c.25-.278.455-.593.611-.933.462-1.01 0-1.181.341-2.2.342-1.018-.291-1.16-.149-2.178s1.252-1.004 1.188-2.193a1.29 1.29 0 0 0-.797-1.054 1.584 1.584 0 0 1-.896-.918c-.163-.513-.199-.783-.27-1.054a3.051 3.051 0 0 0-.398-1.04 1.89 1.89 0 0 1-.093-1.359 1.425 1.425 0 0 0-.348-1.424 1.927 1.927 0 0 0-1.195-.612 3.183 3.183 0 0 1-1.208-.413 3.725 3.725 0 0 0-1.095-.463c-.292-.064-.57-.17-1.117-.32a4.873 4.873 0 0 0-1.116-.256c-.285 0-.562-.1-1.123-.136a10.372 10.372 0 0 1-1.138-.17 2.933 2.933 0 0 0-1.18-.05c-.399.039-.792.12-1.174.241h-.092l-.093.043c-.142.064-.213.712-.462.897-.249.185.05-.712 0-.59-.05.12 0 0 0 0 .035-.136.061-.274.078-.413 0-.114-.248.291-.32.085a.419.419 0 0 1 0-.242.561.561 0 0 0 0-.107l.065.078c.042.072 0 0 0 0v-.035l-.043-.072-.22-.327c-.335-.491-.506-.712-.669-.968a4.232 4.232 0 0 0-.754-.89c-.881-.762-1.422-.093-2.26-.712-.84-.62-.755-.883-1.793-1.303a2.131 2.131 0 0 0-1.13-.128 3.95 3.95 0 0 1-1.13 0 3.624 3.624 0 0 0-1.067 0c-.264 0-.52.057-1.031.078-1.01.071-1.074-.392-2.134-.2-1.059.193-1.123-.17-2.133.172a1.373 1.373 0 0 0-.796.712c-.15.321-.4.586-.711.754-.543.331-1.066.695-1.564 1.09a1.228 1.228 0 0 1-1.11.064c-.305-.136-.455-.378-.54-.314-.085.064.15.712-.043.926-.064.05-.114 0-.142-.242-.071-.399-.064-.883-.078-.897-.014-.014-.256.932-.576.762a1.949 1.949 0 0 1-.79-.77 1.546 1.546 0 0 0-.867-.711l-1.01-.363a5.798 5.798 0 0 0-1.038-.285 5.558 5.558 0 0 0-1.073-.128l-1.067-.043a2.634 2.634 0 0 0-1.074.121 4.73 4.73 0 0 1-1.052.206c-.526.043-.79.072-1.052.107a6.921 6.921 0 0 0-1.053.193 6.292 6.292 0 0 0-1.03.32c-.25.107-.506.192-1.003.406a1.626 1.626 0 0 0-.84.712c-.166.319-.41.59-.71.79a1.94 1.94 0 0 1-1.053.292 1.507 1.507 0 0 0-1.045.391c-.274.239-.58.438-.91.591a2.276 2.276 0 0 0-.867.662c-.26.274-.427.623-.477.997a2.38 2.38 0 0 1-.384 1.011c-.198.29-.358.603-.476.933-.1.242-.192.477-.406.947a1.754 1.754 0 0 0-.177 1.046c.047.347.015.7-.093 1.033-.15.477-.234.712-.327.96a3.77 3.77 0 0 0-.256.99 2.757 2.757 0 0 1-.341 1.004 1.853 1.853 0 0 0-.256 1.054c0 .306 1.5.392 3.264.299l1.422-.135a5.261 5.261 0 0 0 1.422-.242c0-.292.178-.435.377-.563a.752.752 0 0 0 .42-.505.67.67 0 0 1 .32-.492.804.804 0 0 0 .348-.448c.07-.25-.214-.484-.484-.748-.27-.263-.555-.548-.412-.825.08-.197.198-.376.348-.527.139-.158.267-.324.384-.499.163-.263.52-.206.853-.128.335.078.654.157.832-.036a.812.812 0 0 0 .2-.54.661.661 0 0 1 .248-.534.805.805 0 0 0 .178-.712c0-.257 0-.527.249-.712.166-.109.342-.202.526-.278.176-.088.356-.167.54-.235.199-.08.42-.08.619 0 .197.057.407.057.604 0 .278-.078.42-.114.562-.171.183-.078.378-.121.576-.128a.895.895 0 0 1 .604.15c.173.112.371.178.576.192a.824.824 0 0 1 .555.206c.158.12.34.202.533.242.185.035.374.05.562.043.19-.02.384.006.562.078.176.065.357.118.54.157.188.034.369.102.533.2l.185.092.206.128c.121.085.228.178.32.256l.498.413 1.245 1.068c.532.447 1.04.922 1.521 1.424.314-.22.604-.47.868-.748 1.18-1.132.896-2.136 1.912-3.04a5.02 5.02 0 0 1 .626-.448l.242-.135a.519.519 0 0 1 .199-.079c.228-.038.445-.128.633-.263.35-.257.712-.495 1.088-.712a.71.71 0 0 1 .753.121c.228.128.441.278.711.178.52-.178.399-.59.953-.712.555-.121.605.313 1.095.278a1.37 1.37 0 0 0 .49-.114.76.76 0 0 1 .456-.079c.138.014.276.036.412.065.147.02.29.058.427.113.42.164.526-.042.96.193.434.234.71-.178 1.159.185.448.363-.583 1.267-.377 1.538.02.037.05.069.085.092v.05l.057.107c.043.07 0 0 0 .064v.235c.064.292.128.512.192.712 0 .1.064.206.1.32.051.139.073.287.064.434 0 .399 0 .883-.078 1.567l-.584 6.664a8.977 8.977 0 0 0-.05 1.488c.008.125.027.249.058.37 0 .064.064.071.1.092.148.043.305 0 .355.484.12-.217.256-.426.405-.626.327-.441.597-.876.846-1.289.249-.413.583-.96.846-1.424a22.347 22.347 0 0 1 1.842-2.847c.412-.534.71-.762.917-.812.186-.01.372.016.548.078a.887.887 0 0 0 .71-.178c.151-.1.294-.212.427-.334.19-.19.365-.392.526-.606l.52-.712a1.34 1.34 0 0 1 .383-.434c.114-.092.214-.142.306-.213a1.43 1.43 0 0 1 .15-.079c.042 0 0 0 0-.057a.943.943 0 0 1 .113-.199.397.397 0 0 1 .228-.1.71.71 0 0 0 .42-.363.52.52 0 0 1 .504-.313c.256 0 .356.2.448.349.093.15.17.32.384.384.153.033.31.033.462 0a.54.54 0 0 1 .448.079c.214.092.17.327.15.512-.022.185-.086.378 0 .477.085.1.362-.05.71-.185.35-.135.655-.206.783 0 .128.207.185.342.263.449.098.148.17.312.213.484.142.548-1.23.797-1.187 1.196.043.398.974.434.931.997-.042.562.313.619.157 1.203-.157.584-1.259.178-1.458.62a.92.92 0 0 0-.092.533.713.713 0 0 1 0 .242.583.583 0 0 1-.043.136s-.05.078-.093.149a1.096 1.096 0 0 1-.156.214c-.22.306-.462.505-.576.712-.11.159-.201.331-.27.512a2.57 2.57 0 0 1-.825 1.118c-.305.26-.629.497-.967.712l-.427.27c-.15.085-.288.188-.412.307.188.23.4.44.633.626.392.302.67.73.79 1.21.184.507.49.962.888 1.325l.398.413.043.042.1.15v.228c.008.129.037.256.085.377.1.384.597.278.661.755.064.477.355.47.341.982l.036.036c-.206.114-.391.206-.441.441a.512.512 0 0 1-.327.392.668.668 0 0 0-.356.32c-.078.178.192.413.448.712.256.3.477.591.299.833a1.303 1.303 0 0 1-.413.413 4.26 4.26 0 0 0-.447.385c-.441.42-1.245-.549-1.636-.257a.89.89 0 0 0-.32.477.661.661 0 0 1-.377.463c-.505.235-.177 1.032-.789 1.246a4.32 4.32 0 0 1-.619.164l-.625.12c-.633.1-.669-.27-1.28-.234a8.414 8.414 0 0 1-1.28.078c-.654-.064-.604-.42-1.23-.534-.626-.114-.562-.434-1.18-.62-.62-.184-.711 0-1.309-.277l-.562-.22-.547-.236a8.24 8.24 0 0 1-1.337-.712c-1.315-.79-1.33-.897-2.652-1.708a14.563 14.563 0 0 1-.846-.556l-.562-.363a11.53 11.53 0 0 0-.569 1.424c-.633 1.766 0 2.791-.633 4.066a4.95 4.95 0 0 1-.447.583c-.079.1-.1.071-.143.1h-.113a1.272 1.272 0 0 0-.498.278 6.41 6.41 0 0 1-.875.754c-.526.3-.917-.477-1.422-.27-.505.206-.377.605-.939.761-.561.157-.618-.291-1.194-.227-.576.064-.59.27-1.223.277-.633.007-.64 0-1.301-.064-.662-.064-.711.157-1.422 0-.711-.156-.825.399-1.55.214-.726-.185-.363-1.424-1.067-1.673-.704-.25-.84.163-1.571-.093-.733-.256-.712-.27-1.422-.527-.712-.256-.925.399-1.53.114-.604-.285-.788.1-1.315-.242-.526-.342.448-1.523.22-1.758-.227-.235-.568.064-.71-.25a.364.364 0 0 0-.256-.17l-.178-.043h-.1l-.142-.085a2.249 2.249 0 0 1-.71-.712 2.506 2.506 0 0 1-.442-1.04 2.139 2.139 0 0 0-.291-.812l-.235-.384v-.071a.078.078 0 0 0-.078-.057l-.327-.142a1.033 1.033 0 0 1-.477-.584 3.038 3.038 0 0 0-.668-.99c-.391-.406-.711-.513-.967-.463l-.44.356c-.129.105-.257.204-.385.3a1.887 1.887 0 0 1-.405.213c-.076.029-.155.05-.235.064a.257.257 0 0 1-.128 0 4.802 4.802 0 0 1-1.109-.285c-.27-.107-.242-.498-.178-.861.064-.364.142-.712 0-.84-.327-.25-.96.47-1.322.092-.363-.377-.633-.15-.918-.598-.106-.242.086-.477.313-.676.228-.2.47-.385.427-.549-.071-.341-.412-.298-.427-.711a.712.712 0 0 0-.256-.47.548.548 0 0 1-.192-.556.798.798 0 0 1 .285-.463c.135-.12.246-.265.327-.427.249-.477.874-.085 1.123-.448.097-.115.21-.216.334-.3a1.08 1.08 0 0 0 .349-.241c.313-.242.035-.662.42-.876a.711.711 0 0 0 .327-.32.512.512 0 0 1 .37-.27 8.866 8.866 0 0 0-.122-1.524L9.57 73.6c-.263-1.523-.661-2.52-.996-2.449Z" fill="#000"/></svg>